<svg width="192" height="49" viewBox="0 0 192 49" fill="none" xmlns="http://www.w3.org/2000/svg">
<g clip-path="url(#clip0_580_89415)">
<path fill-rule="evenodd" clip-rule="evenodd" d="M24.031 46.646C36.282 46.646 46.211 36.731 46.211 24.5C46.211 12.268 36.282 2.354 24.031 2.354C11.784 2.354 1.858 12.268 1.858 24.5C1.858 36.73 11.784 46.646 24.031 46.646ZM24.031 0.5C37.31 0.5 48.068 11.246 48.068 24.5C48.068 37.754 37.308 48.5 24.031 48.5C10.761 48.5 0 37.754 0 24.5C0 11.246 10.76 0.5 24.031 0.5ZM24.031 41.5C23.241 41.5 22.765 40.973 22.736 40.252C22.563 40.577 22.34 40.797 22.004 40.864C21.67 40.9264 21.325 40.8866 21.014 40.75C20.7069 40.6271 20.4568 40.3939 20.313 40.096C20.163 39.792 20.213 39.479 20.32 39.114C19.948 39.644 19.32 39.782 18.767 39.526C18.009 39.174 17.733 38.535 18.044 37.806C18.98 35.598 19.911 33.43 20.851 31.225C20.936 31.025 21.008 30.818 21.102 30.619C21.186 30.442 21.239 30.312 21.318 30.205C21.3778 30.1247 21.4529 30.0571 21.539 30.006C20.085 30.165 19.386 30.734 19.001 30.986C18.899 31.054 18.905 31.064 18.512 30.942C18.3377 30.8914 18.1505 30.9116 17.991 30.998C17.8129 31.0923 17.6423 31.2002 17.481 31.321C16.96 31.725 16.428 32.115 15.935 32.551C15.705 32.755 15.375 33.102 15.42 33.416C15.456 33.707 16.171 34.381 16.385 34.582C16.892 35.058 16.125 35.954 15.103 35.869C15.375 35.585 15.439 35.344 15.404 35.13C15.303 35.129 15.108 35.148 14.924 34.984C14.704 34.787 14.802 34.205 14.598 34.007C14.238 33.659 13.061 33.627 12.358 33.597C12.062 33.585 11.753 33.506 11.775 33.049C11.328 33.079 11.235 33.409 11.235 33.707C10.85 33.491 10.521 32.455 11.941 32.22C11.701 32.003 11.303 31.924 11.058 32.2C10.827 31.82 11.411 31.073 12.462 31.494C12.459 31.491 12.935 30.873 14.356 32.454C14.535 32.32 14.713 32.188 14.876 32.038C15.426 31.541 16.812 30.195 16.812 30.195C16.812 29.438 16.926 27.972 17.933 27.093C18.362 26.718 18.773 26.519 19.681 26.356C19.681 26.356 19.242 25.673 19.173 25.404C18.381 26.19 16.79 26.425 16.79 25.099C15.493 26.386 14.288 25.692 14.288 24.884C14.2431 25.2935 14.1501 25.6963 14.011 26.084C13.848 26.518 13.254 28.181 11.721 28.181C11.686 28.759 11.683 30.66 9.851 31.086C9.772 31.104 9.671 31.131 9.621 31.191C8.881 32.105 5.805 33.065 5.429 32.806C5.667 32.636 6.044 32.411 6.104 31.338C6.142 30.63 6.22 26.956 6.22 21.781C6.22 19.949 6.419 14.015 12.33 13.188C13.227 13.063 14.109 13.128 14.873 13.691C15.913 14.463 16.425 15.761 15.813 17.232C15.793 17.285 15.778 17.337 15.75 17.384C15.542 17.734 15.627 18.036 15.898 18.304C16.391 18.791 16.966 19.12 17.658 19.2C18.094 19.25 18.456 19.059 18.745 18.761C19.408 18.083 19.858 17.286 20.021 16.35C20.329 14.572 19.851 13.68 19.824 13.624C19.343 12.666 18.322 11.964 17.138 11.864C16.596 10.858 15.04 11.256 15.04 11.256C14.65 11.34 14.513 11.45 14.416 11.641C14.416 11.641 13.733 10.609 14.376 10.195C15.021 9.78 16.46 9.609 16.46 9.609C16.46 8.937 17.58 8.414 19.603 8.773C22.05 9.207 22.576 8.257 22.576 8.257C22.679 9.419 21.783 10.019 21.496 10.181C22.425 11.181 23.722 13.179 24.031 16.014C24.341 13.179 25.638 11.181 26.566 10.181C26.279 10.019 25.384 9.419 25.486 8.257C25.486 8.257 26.012 9.207 28.459 8.773C30.483 8.414 31.603 8.937 31.603 9.609C31.603 9.609 33.042 9.779 33.686 10.195C34.33 10.609 33.646 11.641 33.646 11.641C33.549 11.45 33.412 11.341 33.022 11.256C33.022 11.256 31.466 10.858 30.924 11.864C29.74 11.964 28.72 12.666 28.239 13.624C28.212 13.68 27.762 14.564 28.041 16.35C28.188 17.288 28.654 18.083 29.318 18.761C29.607 19.059 29.968 19.249 30.405 19.2C31.096 19.12 31.672 18.79 32.165 18.304C32.435 18.036 32.52 17.734 32.313 17.384C32.284 17.337 32.269 17.285 32.25 17.232C31.637 15.762 32.15 14.462 33.19 13.692C33.953 13.129 34.836 13.062 35.732 13.188C41.644 14.015 41.842 19.949 41.842 21.781C41.842 26.956 41.921 30.63 41.958 31.338C42.018 32.411 42.395 32.636 42.634 32.806C42.257 33.066 39.181 32.105 38.441 31.191C38.391 31.131 38.291 31.104 38.212 31.086C36.38 30.66 36.377 28.759 36.342 28.181C34.809 28.181 34.214 26.518 34.051 26.084C33.9119 25.6963 33.8189 25.2935 33.774 24.884C33.774 25.692 32.57 26.386 31.273 25.099C31.273 26.425 29.681 26.19 28.89 25.404C28.82 25.673 28.38 26.356 28.38 26.356C29.29 26.519 29.7 26.718 30.13 27.093C31.136 27.973 31.25 29.438 31.25 30.195C31.25 30.195 32.637 31.541 33.187 32.038C33.349 32.188 33.527 32.32 33.707 32.454C35.127 30.873 35.603 31.491 35.6 31.494C36.651 31.073 37.235 31.821 37.005 32.199C36.76 31.924 36.361 32.003 36.121 32.219C37.541 32.455 37.212 33.491 36.828 33.707C36.828 33.409 36.734 33.079 36.288 33.049C36.31 33.506 36 33.585 35.704 33.597C35.001 33.627 33.824 33.659 33.464 34.007C33.26 34.205 33.359 34.787 33.138 34.984C32.955 35.148 32.76 35.129 32.658 35.13C32.624 35.344 32.688 35.585 32.96 35.87C31.937 35.954 31.17 35.058 31.678 34.582C31.89 34.382 32.606 33.707 32.642 33.416C32.688 33.102 32.357 32.755 32.127 32.551C31.634 32.115 31.103 31.725 30.581 31.321C30.4197 31.2002 30.2491 31.0923 30.071 30.998C29.9117 30.9118 29.725 30.8917 29.551 30.942C29.158 31.064 29.164 31.054 29.061 30.987C28.676 30.734 27.978 30.165 26.523 30.007C26.622 30.067 26.689 30.131 26.744 30.205C26.824 30.312 26.877 30.442 26.96 30.619C27.054 30.819 27.127 31.025 27.212 31.225C28.152 33.43 29.082 35.598 30.018 37.805C30.33 38.535 30.053 39.175 29.296 39.525C28.742 39.782 28.114 39.645 27.743 39.115C27.85 39.479 27.9 39.792 27.749 40.096C27.6056 40.3938 27.3559 40.6272 27.049 40.75C26.738 40.8866 26.393 40.9264 26.059 40.864C25.722 40.797 25.499 40.577 25.326 40.252C25.297 40.973 24.821 41.5 24.031 41.5ZM62.407 30.752C63.0783 30.78 63.7501 30.796 64.422 30.8C67.224 30.8 68.854 29.494 68.854 27.055C68.854 24.425 66.914 23.572 62.407 23.572V30.752ZM64.663 15.113C65.987 15.113 68.689 14.995 70.232 14.9C70.1923 15.1828 70.1689 15.4676 70.162 15.753C70.162 15.919 70.212 16.299 70.232 16.559C68.854 16.369 66.578 16.229 65.87 16.229C65.374 16.229 63.45 16.274 62.407 16.369V22.318H63.615C66.085 22.318 71.283 22.791 71.283 27.078C71.283 30.56 68.363 32.148 64.522 32.126C64.092 32.126 62.482 32.056 61.455 32.056C61.008 32.056 60.462 32.078 60.081 32.126C60.226 29.519 60.271 25.916 60.271 22.931C60.271 20.255 60.251 16.204 60.081 14.901C61.601 14.972 64.111 15.113 64.663 15.113ZM80.358 26.013L78.789 26.248C77.081 26.51 75.181 27.101 75.181 28.905C75.181 30.277 75.943 31.013 77.482 31.013C78.434 31.013 79.382 30.68 80.358 29.663V26.013ZM73.973 21.535C74.9 20.399 76.605 19.903 78.033 19.903C80.523 19.903 82.253 21.132 82.253 24.093V29.969C82.253 31.178 82.513 31.461 83.01 31.461C83.18 31.461 83.44 31.413 83.581 31.365L83.722 31.935C83.169 32.2144 82.5613 32.3687 81.942 32.387C81.16 32.387 80.664 32.031 80.473 31.343L80.333 30.825C79.05 31.843 77.651 32.387 76.489 32.387C74.329 32.387 72.926 31.248 72.926 29.258C72.926 27.126 74.519 26.13 76.7 25.729L79.116 25.279C79.928 25.136 80.358 24.899 80.358 24.308C80.358 21.724 79.265 21.062 77.462 21.062C76.062 21.062 75.015 21.464 74.259 23.006H73.973V21.535ZM86.975 20.208C87.235 20.208 87.732 20.161 88.087 20.138C87.897 21.936 87.873 24.921 87.873 25.041C88.87 25.089 90.313 25.136 91.079 25.136C91.861 25.136 93.356 25.089 94.067 25.041C94.067 24.898 94.042 21.915 93.857 20.138C94.254 20.161 94.779 20.208 95.06 20.208C95.325 20.208 95.822 20.161 96.178 20.138C95.988 21.915 95.962 24.898 95.962 26.13C95.962 27.126 95.987 30.324 96.178 32.126C95.8156 32.0791 95.4505 32.0557 95.085 32.056C94.684 32.056 94.208 32.079 93.856 32.126C94.042 30.324 94.067 27.126 94.067 26.37C93.025 26.295 91.601 26.202 91.055 26.202C90.409 26.202 88.825 26.248 87.873 26.32C87.873 27.126 87.898 30.324 88.087 32.126C87.7249 32.0792 87.3601 32.0558 86.995 32.056C86.594 32.056 86.118 32.079 85.762 32.126C85.948 30.324 85.973 27.126 85.973 26.13C85.973 24.921 85.948 21.915 85.762 20.138C86.163 20.161 86.689 20.208 86.975 20.208ZM100.613 20.208C100.87 20.208 101.371 20.161 101.722 20.138C101.536 21.915 101.516 24.921 101.516 25.351H101.896C102.679 25.351 106.688 20.799 107.069 20.138C107.399 20.161 107.942 20.208 108.228 20.208C108.468 20.208 109.038 20.161 109.39 20.138L103.721 25.208C104.437 26.06 108.202 30.301 109.911 32.126C109.439 32.0863 108.966 32.0629 108.493 32.056C108.062 32.056 107.42 32.079 106.923 32.126C106.047 30.752 103.365 27.601 101.896 25.988H101.516C101.516 26.865 101.536 30.324 101.722 32.126C101.361 32.0789 100.998 32.0555 100.634 32.056C100.237 32.056 99.761 32.079 99.401 32.126C99.596 30.324 99.621 27.126 99.621 26.13C99.621 24.921 99.596 21.915 99.401 20.138C99.807 20.161 100.328 20.208 100.613 20.208ZM121.318 23.051C124.641 23.051 126.59 21.725 126.59 19.212C126.59 16.867 124.736 16.229 122.435 16.229C122.034 16.229 120.656 16.251 120.321 16.299V22.954C120.611 23.006 121.082 23.051 121.318 23.051ZM120.395 14.973C121.223 14.973 122.295 14.9 122.907 14.9C127.297 14.9 129.007 16.229 129.007 19.212C129.007 23.076 125.754 24.307 121.893 24.307C121.368 24.2924 120.844 24.2607 120.321 24.212V28.31C120.321 29.494 120.371 30.94 120.516 32.126C119.679 32.0337 118.833 32.0337 117.996 32.126C118.14 29.518 118.19 25.917 118.19 22.932C118.19 20.256 118.165 16.204 117.995 14.9C118.781 14.923 119.849 14.973 120.395 14.973ZM131.61 26.32C131.61 28.997 132.727 31.46 135.24 31.46C137.66 31.46 139.108 29.138 139.108 25.964C139.108 23.406 138.111 20.824 135.43 20.824C132.868 20.824 131.61 23.501 131.61 26.32ZM141.364 26.06C141.364 29.685 139.009 32.386 135.289 32.386C131.635 32.386 129.355 29.71 129.355 26.392C129.355 22.46 131.871 19.902 135.5 19.902C139.108 19.902 141.364 22.507 141.364 26.06ZM152.992 22.719H152.706C151.874 21.369 150.716 20.824 149.408 20.824C146.631 20.824 145.303 23.502 145.303 26.107C145.303 29.116 146.963 31.461 149.905 31.461C150.881 31.461 151.758 31.321 153.132 29.826L153.347 30.087L153.062 31.248C151.919 32.008 150.645 32.387 149.172 32.387C145.468 32.387 143.048 29.804 143.048 26.155C143.048 22.34 145.658 19.903 149.478 19.903C150.716 19.903 152.065 20.138 153.583 20.944L152.992 22.719ZM164.967 22.719H164.685C163.858 21.369 162.695 20.824 161.392 20.824C158.611 20.824 157.282 23.502 157.282 26.107C157.282 29.116 158.951 31.461 161.888 31.461C162.856 31.461 163.738 31.321 165.112 29.826L165.322 30.087L165.042 31.248C163.903 32.008 162.621 32.387 161.152 32.387C157.452 32.387 155.032 29.804 155.032 26.155C155.032 22.34 157.642 19.903 161.462 19.903C162.695 19.903 164.048 20.138 165.567 20.944L164.967 22.719ZM168.484 32.056C168.339 32.056 167.913 32.101 167.723 32.126C167.913 30.324 167.938 27.126 167.938 26.13C167.938 24.92 167.913 21.915 167.723 20.138C168.128 20.161 168.645 20.208 168.931 20.208C169.191 20.208 169.688 20.161 170.049 20.138C169.859 21.915 169.838 24.898 169.838 26.13C169.838 27.126 169.858 28.522 169.883 29.186C171.186 27.601 175.838 21.702 176.955 20.138C177.211 20.183 177.377 20.208 177.662 20.208C177.802 20.208 178.299 20.161 178.569 20.138C178.374 21.915 178.349 24.898 178.349 26.13C178.349 27.126 178.374 30.324 178.569 32.125C178.207 32.0785 177.841 32.0552 177.476 32.055C177.07 32.055 176.599 32.078 176.239 32.125C176.429 30.325 176.454 27.125 176.454 26.13C176.455 25.0478 176.44 23.9657 176.408 22.884C174.79 24.52 170.52 30.111 169.171 32.125C168.945 32.0763 168.715 32.0538 168.484 32.056ZM181.921 32.056C181.667 32.0691 181.415 32.0924 181.163 32.126C181.349 30.324 181.374 27.126 181.374 26.13C181.374 24.92 181.349 21.915 181.164 20.138C181.564 20.161 182.082 20.208 182.367 20.208C182.628 20.208 183.129 20.161 183.485 20.138C183.295 21.915 183.273 24.898 183.273 26.13C183.273 27.126 183.294 28.522 183.319 29.186C184.623 27.601 189.269 21.702 190.387 20.138C190.647 20.183 190.813 20.208 191.099 20.208C191.239 20.208 191.74 20.161 192.001 20.138C191.814 21.915 191.789 24.898 191.789 26.13C191.789 27.126 191.814 30.324 192.001 32.125C191.639 32.0782 191.273 32.0548 190.908 32.055C190.507 32.055 190.031 32.078 189.679 32.125C189.869 30.325 189.89 27.125 189.89 26.13C189.89 24.899 189.87 23.384 189.845 22.884C188.231 24.52 183.956 30.111 182.603 32.125C182.379 32.0761 182.15 32.0536 181.921 32.056Z" fill="#9096A3"/>
</g>
<defs>
<clipPath id="clip0_580_89415">
<rect width="192" height="48" fill="white" transform="translate(0 0.5)"/>
</clipPath>
</defs>
</svg>
