<svg width="79" height="13" viewBox="0 0 79 13" fill="none" xmlns="http://www.w3.org/2000/svg">
<path fill-rule="evenodd" clip-rule="evenodd" d="M6.31043 0.288711H0.123734C0.0412445 0.288711 0 0.329956 0 0.412445V8.99133C0 9.07381 0.0412445 9.11503 0.123734 9.11503H2.22721C2.3097 9.11503 2.35094 9.07381 2.35094 8.99133V2.35094H5.60924C5.6505 2.35094 5.69172 2.30969 5.73299 2.26845C5.98044 1.69103 6.22794 1.07236 6.47539 0.453689V0.329956C6.39291 0.329956 6.35164 0.288711 6.31043 0.288711ZM23.7156 7.05283C23.7156 7.01156 23.6743 6.97035 23.6331 6.97035H23.5094C23.0145 7.13531 22.0658 7.34155 21.3647 7.34155C19.9211 7.34155 19.22 6.97035 19.22 4.70187C19.22 2.92836 19.4262 2.06222 21.3647 2.06222C21.9009 2.06222 22.437 2.14471 23.0557 2.35094C23.097 2.35094 23.1794 2.35094 23.1794 2.26845C23.4269 1.81476 23.7156 1.27858 24.0455 0.577422V0.45369C24.0455 0.412445 24.0043 0.371201 23.9631 0.371201C23.1382 0.123734 22.107 0 21.1997 0C18.1476 0 16.7865 1.40231 16.7865 4.66063C16.7865 7.9602 18.1476 9.40375 21.1997 9.40375C21.9421 9.40375 23.4682 9.23878 24.2105 8.95006C24.293 8.90879 24.293 8.86758 24.293 8.82631C24.3755 8.78509 23.7156 7.05283 23.7156 7.05283ZM11.136 0.0412447C8.12517 0.0412447 6.92908 1.31982 6.92908 4.70187C6.92908 8.12517 8.08391 9.40375 11.136 9.40375C14.1881 9.40375 15.3842 8.0839 15.3842 4.70187C15.3842 1.36107 14.1881 0.0412447 11.136 0.0412447ZM11.136 7.42403C9.73369 7.42403 9.32127 7.05283 9.32127 4.74312C9.32127 2.26845 9.77495 2.06222 11.136 2.06222C12.4971 2.06222 12.992 2.26845 12.992 4.74312C12.992 7.05283 12.5383 7.42403 11.136 7.42403Z" fill="#0065B1"/>
<path fill-rule="evenodd" clip-rule="evenodd" d="M69.463 0.329956H63.2764C63.1941 0.329956 63.1529 0.371201 63.1529 0.45369V9.03253C63.1529 9.11506 63.1941 9.15628 63.2764 9.15628H65.38C65.4623 9.15628 65.5034 9.11506 65.5034 9.03253V2.39218H68.7622C68.8033 2.39218 68.8856 2.35094 68.8856 2.30969C69.1331 1.73227 69.3807 1.1136 69.6282 0.494934V0.371201C69.5041 0.371201 69.5041 0.329956 69.463 0.329956ZM61.6268 0.371201H59.4821C59.4409 0.371201 59.3581 0.412445 59.3581 0.45369C59.0282 1.77352 58.3686 4.00072 57.4197 6.3104L55.275 0.412445C55.275 0.371201 55.1927 0.329956 55.151 0.329956H53.0063C52.9652 0.329956 52.924 0.371201 52.8828 0.371201C52.8417 0.412445 52.8417 0.45369 52.8828 0.494934L56.0999 9.23876C55.77 9.89868 55.4402 10.4349 55.1927 11.0123C54.9864 11.3835 54.78 11.7959 54.5325 12.2084C54.4914 12.2496 54.5325 12.2909 54.5325 12.3321C54.5737 12.3734 54.6149 12.4146 54.6565 12.4146H56.9659C57.007 12.4146 57.0487 12.3734 57.0899 12.3321C57.4609 11.5897 57.9971 10.5173 58.4509 9.445C59.8119 6.22792 60.9254 3.25832 61.7091 0.494934C61.7091 0.45369 61.7091 0.412445 61.6679 0.371201H61.6268ZM41.7055 7.09408C41.7055 7.05281 41.6643 7.01159 41.6231 7.01159H41.4994C41.0044 7.17656 40.0558 7.38275 39.3546 7.38275C37.9111 7.38275 37.2099 7.01159 37.2099 4.74312C37.2099 2.96961 37.4161 2.10347 39.3546 2.10347C39.8908 2.10347 40.427 2.18596 41.0457 2.39218C41.1281 2.39218 41.1694 2.39218 41.1694 2.30969C41.4169 1.85601 41.7055 1.31982 42.0355 0.61867V0.494934C42.0355 0.45369 41.9943 0.412445 41.953 0.412445C41.0869 0.123734 40.0558 0 39.1896 0C36.1788 0 34.8177 1.40231 34.8177 4.66063C34.8177 7.96018 36.1788 9.40373 39.2309 9.40373C39.9733 9.40373 41.4993 9.23876 42.2418 8.95004C42.3242 8.90883 42.3242 8.86756 42.3242 8.82634C42.3242 8.78507 41.7055 7.09408 41.7055 7.09408ZM34.0753 0.371201H31.9306C31.8481 0.371201 31.8068 0.412445 31.8068 0.45369C31.4769 1.77352 30.817 4.00072 29.8684 6.3104L27.7649 0.371201C27.7649 0.329956 27.6824 0.288712 27.6412 0.288712H25.4964C25.4552 0.288712 25.414 0.329956 25.3727 0.329956C25.3315 0.371201 25.3315 0.412445 25.3727 0.45369L28.631 9.19755C28.3011 9.85742 27.9711 10.4349 27.7237 10.971C27.5174 11.3422 27.3112 11.7547 27.0637 12.1671C27.0225 12.2084 27.0637 12.2496 27.0637 12.2909C27.105 12.3321 27.1462 12.3734 27.1875 12.3734H29.4972C29.5384 12.3734 29.5797 12.3321 29.6209 12.2909C29.9921 11.5485 30.5283 10.4761 30.982 9.40373C32.3431 6.1867 33.4566 3.21707 34.2403 0.45369C34.2403 0.412445 34.2403 0.371201 34.199 0.329956C34.1578 0.371201 34.1166 0.371201 34.0753 0.371201ZM78.4132 0.329956H76.3097C76.2274 0.329956 76.1862 0.371201 76.1862 0.45369V7.09408C75.7324 7.21778 75.2785 7.25905 74.7424 7.25905C73.3402 7.25905 73.0515 6.84657 73.0515 4.99059V0.45369C73.0515 0.371201 73.0104 0.329956 72.9275 0.329956H70.824C70.7417 0.329956 70.7005 0.371201 70.7005 0.45369V5.23806C70.7005 8.20764 71.6905 9.40373 74.2885 9.40373C75.7324 9.40373 77.4232 9.03253 78.3721 8.66138C78.4132 8.66138 78.4544 8.57884 78.4544 8.53762V0.45369C78.5367 0.371201 78.4956 0.329956 78.4132 0.329956ZM51.3155 0.329956H44.9226C44.8401 0.329956 44.7989 0.371201 44.7989 0.45369C44.6339 3.34081 44.0977 6.47537 43.3141 8.99131V9.07379C43.3554 9.11506 43.3966 9.11506 43.4379 9.11506H45.665C45.7063 9.11506 45.7888 9.07379 45.7888 9.03253C46.4074 7.09408 46.9024 4.49566 47.0673 2.35094H49.1708V9.03253C49.1708 9.11506 49.2121 9.15628 49.2946 9.15628H51.398C51.4805 9.15628 51.5217 9.11506 51.5217 9.03253V0.45369C51.4392 0.371201 51.398 0.329956 51.3155 0.329956Z" fill="#EE3F58"/>
</svg>
