<svg width="257" height="64" viewBox="0 0 257 64" fill="none" xmlns="http://www.w3.org/2000/svg">
<g clip-path="url(#clip0_619_3027)">
<mask id="mask0_619_3027" style="mask-type:luminance" maskUnits="userSpaceOnUse" x="0" y="0" width="257" height="64">
<path d="M0.5 0H256.5V64H0.5V0Z" fill="white"/>
</mask>
<g mask="url(#mask0_619_3027)">
<path fill-rule="evenodd" clip-rule="evenodd" d="M104.559 33.3872C104.559 30.9872 106.199 29.1808 108.633 29.1808C111.06 29.1808 112.708 30.9952 112.708 33.3888C112.708 35.7888 111.068 37.5936 108.633 37.5936C106.199 37.5936 104.559 35.7888 104.559 33.3872ZM108.633 42.08C113.749 42.08 117.801 38.632 117.801 33.3872C117.801 28.1312 113.759 24.696 108.633 24.696C103.497 24.696 99.4678 28.1216 99.4678 33.3872C99.4678 38.6432 103.506 42.08 108.633 42.08ZM124.354 25.2544H121.058V41.52H126.143V33.224C126.143 30.8992 127.116 29.7376 129.487 29.7376H131.898V25.1584H130.213C128.425 25.1584 127.009 25.6144 125.817 26.9952L125.425 27.448L124.354 25.2528V25.2544ZM138.189 33.3872C138.189 30.9872 139.829 29.1808 142.265 29.1808C144.69 29.1808 146.338 30.9952 146.338 33.3888C146.338 35.7888 144.698 37.5936 142.265 37.5936C139.829 37.5936 138.189 35.7888 138.189 33.3872ZM142.265 42.08C147.38 42.08 151.429 38.632 151.429 33.3872C151.429 28.1312 147.391 24.696 142.265 24.696C137.129 24.696 133.098 28.1216 133.098 33.3872C133.098 38.6432 137.138 42.08 142.265 42.08ZM158.162 25.2544H154.689V41.52H159.775V32.808C159.775 30.7024 161.021 28.9488 163.308 28.9488C165.314 28.9488 166.177 30.5488 166.177 32.312V41.52H171.261V31.504C171.261 27.6752 168.833 24.7504 164.834 24.7504C162.919 24.7504 160.81 25.4384 159.516 26.8784L159.113 27.3248L158.162 25.2544ZM183.929 37.6672C181.485 37.6672 179.711 35.808 179.711 33.3824C179.711 30.9568 181.485 29.1072 183.929 29.1072C186.364 29.1072 188.146 30.9632 188.146 33.3824C188.146 35.8048 186.37 37.6672 183.929 37.6672ZM189.21 25.2384L188.503 26.7904L188.105 26.464C186.697 25.304 184.964 24.7232 183.145 24.7232C178.098 24.7232 174.594 28.352 174.594 33.3728C174.594 38.3904 178.082 42.08 183.145 42.08C184.94 42.08 186.645 41.5152 188.045 40.384L188.455 40.0512L189.057 41.5008H192.937V25.2384H189.21ZM206.898 30.8768H203.135V24.7168H206.898C208.711 24.7168 209.957 25.992 209.957 27.7968C209.957 29.6016 208.711 30.8768 206.898 30.8768ZM197.828 20.2V41.52H203.135V35.392H207.631C212.057 35.392 215.423 32.256 215.423 27.7792C215.423 23.3024 212.049 20.1984 207.631 20.1984H197.828V20.2ZM226.689 37.6688C224.245 37.6688 222.473 35.808 222.473 33.3824C222.473 30.9568 224.245 29.1072 226.689 29.1072C229.124 29.1072 230.906 30.9632 230.906 33.3824C230.906 35.8048 229.13 37.6688 226.689 37.6688ZM231.97 25.2384L231.261 26.7904L230.865 26.464C229.457 25.304 227.724 24.7232 225.905 24.7232C220.858 24.7232 217.354 28.352 217.354 33.3728C217.354 38.3904 220.842 42.08 225.905 42.08C227.7 42.08 229.405 41.5152 230.805 40.384L231.215 40.0512L231.817 41.5008H235.697V25.2384H231.97ZM251.074 25.2544L247.434 35.3888L243.533 25.2544H238.034L244.895 40.4928L244.837 40.6448C243.996 42.8912 243.433 43.096 240.986 43.096H239.764V47.3504H241.381C246.239 47.3504 247.762 45.1872 249.597 41L256.5 25.2544H251.074ZM99.5798 41.52L92.111 30.5152L98.9334 20.1984H92.8198L87.6406 28.4544H84.9638V20.1984H79.6582V41.52H84.9638V32.9792H87.7702L93.3126 41.52H99.5798Z" fill="#18212F"/>
<path d="M47.0072 64H17.9928C7.612 64 0.5 56.8848 0.5 46.5072V17.4928C0.5 7.1168 7.6168 0 17.9928 0H47.0072C57.3832 0 64.5 7.112 64.5 17.4928V46.5072C64.5 56.888 57.388 64 47.0072 64Z" fill="#E31A3C"/>
<path fill-rule="evenodd" clip-rule="evenodd" d="M17.3913 46.3296H47.6953V42.9216H17.3913V46.3296ZM32.4553 11.416L36.4793 15.2304L32.4553 18.9648L28.5193 15.2304L32.4553 11.416ZM53.6873 27.816C48.2937 23.3488 41.2729 20.5104 33.4857 20.2656V41.4608C33.4857 41.4608 39.3049 41.3792 40.8457 41.4608C42.1321 41.4608 42.5577 40.3216 42.5577 40.3216L47.9513 27.9808C48.4633 28.3072 48.9769 28.632 49.4073 28.9568L43.9289 41.4608H47.7817L53.6857 27.8192V27.8144L53.6873 27.816ZM38.9641 38.368C38.5369 38.448 37.0809 38.368 37.0809 38.368V24C39.8217 24.4064 42.3881 25.2208 44.8729 26.3552L39.8217 37.8848C39.4793 38.456 38.9641 38.3728 38.9641 38.3728V38.3696V38.368ZM11.3145 27.8144C16.7065 23.3504 23.8121 20.5104 31.5161 20.2656V41.4608C31.5161 41.4608 25.6953 41.3792 24.1545 41.4608C22.8697 41.4608 22.4425 40.3216 22.4425 40.3216L17.0505 27.9808C16.5369 28.3072 16.0201 28.632 15.5945 28.9568L21.1577 41.4608H17.2201L11.3145 27.8192V27.8144ZM26.0377 38.3696C26.4649 38.4496 27.9209 38.3696 27.9209 38.3696V24C25.2504 24.3994 22.6541 25.1931 20.2169 26.3552L25.1833 37.8848C25.5289 38.456 26.0377 38.3728 26.0377 38.3728V38.3696Z" fill="#FECC00"/>
</g>
</g>
<defs>
<clipPath id="clip0_619_3027">
<rect width="256" height="64" fill="white" transform="translate(0.5)"/>
</clipPath>
</defs>
</svg>
