<svg width="188" height="47" viewBox="0 0 188 47" fill="none" xmlns="http://www.w3.org/2000/svg">
<path d="M55.1143 9.10815H64.4356V11.2263H57.7729V13.5907H60.9745C62.3717 13.5907 63.4336 13.8808 64.1561 14.461C64.8946 15.0412 65.2619 15.8797 65.2619 16.9726C65.2619 18.121 64.8547 19.0152 64.0404 19.651C63.226 20.2868 62.0763 20.6048 60.5913 20.6048H55.1143V9.10815ZM60.4396 18.6376C61.1222 18.6376 61.6452 18.5065 62.0084 18.2442C62.3717 17.97 62.5513 17.5766 62.5513 17.06C62.5513 16.0506 61.8488 15.5499 60.4396 15.5499H57.7689V18.6376H60.4396Z" fill="white"/>
<path d="M76.1676 18.1448H70.8064L69.7844 20.6086H67.0459L72.1916 9.11206H74.8303L79.9919 20.6086H77.1896L76.1676 18.1448ZM75.3253 16.1221L73.493 11.719L71.6606 16.1221H75.3253Z" fill="white"/>
<path d="M93.0302 9.10815V20.6048H90.3556V15.8917H85.1101V20.6048H82.4395V9.10815H85.1101V13.6424H90.3556V9.10815H93.0302Z" fill="white"/>
<path d="M101.146 15.975H99.2973V20.6086H96.6426V9.11206H99.2973V13.7616H101.209L104.243 9.11206H107.066L103.289 14.6636L107.181 20.6086H104.148L101.146 15.975Z" fill="white"/>
<path d="M64.0523 35.5188V37.6528H55.1143V26.1562H63.8408V28.2902H57.7689V30.7859H63.1302V32.8563H57.7689V35.5188H64.0523Z" fill="white"/>
<path d="M75.3652 31.6601C76.0678 31.8668 76.6067 32.2085 76.982 32.6775C77.3572 33.1464 77.5408 33.7306 77.5408 34.418C77.5408 35.4354 77.1496 36.2302 76.3712 36.7984C75.6007 37.3667 74.4949 37.6528 73.0538 37.6528H67.3652V26.1562H72.7425C74.0838 26.1562 75.1297 26.4145 75.8762 26.9272C76.6227 27.4438 76.9979 28.175 76.9979 29.1287C76.9979 29.697 76.8542 30.2017 76.5708 30.6388C76.2834 31.068 75.8842 31.4058 75.3652 31.6601ZM70.0199 30.921H72.5109C73.0937 30.921 73.5329 30.8057 73.8283 30.5753C74.1237 30.3329 74.2754 29.9831 74.2754 29.5222C74.2754 29.0731 74.1197 28.7274 73.8123 28.4889C73.5169 28.2465 73.0818 28.1273 72.5109 28.1273H70.0199V30.921ZM72.958 35.6857C74.2115 35.6857 74.8383 35.193 74.8383 34.2074C74.8383 33.2537 74.2115 32.7768 72.958 32.7768H70.0239V35.6857H72.958Z" fill="white"/>
<path d="M85.4091 26.1562C86.4311 26.1562 87.3173 26.3271 88.0638 26.6649C88.8223 27.0027 89.4051 27.4875 89.8123 28.1114C90.2195 28.7353 90.4231 29.4745 90.4231 30.3289C90.4231 31.1714 90.2195 31.9105 89.8123 32.5463C89.4051 33.1702 88.8223 33.6511 88.0638 33.9928C87.3173 34.3227 86.4311 34.4856 85.4091 34.4856H83.0818V37.6568H80.4111V26.1602H85.4091V26.1562ZM85.2614 32.3158C86.0638 32.3158 86.6746 32.145 87.0937 31.8072C87.5129 31.4575 87.7205 30.9647 87.7205 30.3289C87.7205 29.6811 87.5129 29.1884 87.0937 28.8506C86.6746 28.5009 86.0638 28.326 85.2614 28.326H83.0858V32.3158H85.2614Z" fill="white"/>
<path d="M99.0097 37.8517C97.8121 37.8517 96.7262 37.5934 95.7602 37.0807C94.8021 36.5641 94.0516 35.8607 93.5007 34.9626C92.9618 34.0526 92.6943 33.0353 92.6943 31.9067C92.6943 30.7781 92.9618 29.7647 93.5007 28.8666C94.0516 27.9566 94.8021 27.2453 95.7602 26.7326C96.7262 26.216 97.8121 25.9617 99.0097 25.9617C100.207 25.9617 101.285 26.22 102.243 26.7326C103.201 27.2492 103.952 27.9606 104.503 28.8666C105.054 29.7647 105.329 30.7781 105.329 31.9067C105.329 33.0353 105.054 34.0526 104.503 34.9626C103.952 35.8607 103.201 36.5681 102.243 37.0807C101.285 37.5973 100.207 37.8517 99.0097 37.8517ZM99.0097 35.5865C99.6923 35.5865 100.307 35.4315 100.858 35.1256C101.409 34.8076 101.836 34.3705 102.143 33.8102C102.463 33.2499 102.622 32.618 102.622 31.9067C102.622 31.1953 102.463 30.5595 102.143 30.0032C101.836 29.4428 101.409 29.0136 100.858 28.7037C100.307 28.3858 99.6923 28.2268 99.0097 28.2268C98.327 28.2268 97.7123 28.3858 97.1614 28.7037C96.6105 29.0097 96.1793 29.4428 95.86 30.0032C95.5526 30.5635 95.3969 31.1953 95.3969 31.9067C95.3969 32.618 95.5526 33.2538 95.86 33.8102C96.1793 34.3705 96.6145 34.8076 97.1614 35.1256C97.7123 35.4315 98.331 35.5865 99.0097 35.5865Z" fill="white"/>
<path d="M115.716 35.1929H110.355L109.333 37.6567H106.595L111.74 26.1602H114.379L119.541 37.6567H116.738L115.716 35.1929ZM114.874 33.1702L113.042 28.7671L111.213 33.1702H114.874Z" fill="white"/>
<path d="M132.858 26.1562V37.6528H130.219V28.322H126.259L126.176 30.7223C126.12 32.3556 125.988 33.6789 125.78 34.6962C125.573 35.7056 125.218 36.4805 124.726 37.0289C124.243 37.5654 123.561 37.8356 122.683 37.8356C122.319 37.8356 121.88 37.776 121.365 37.6568L121.529 35.4076C121.673 35.4513 121.832 35.4751 122.008 35.4751C122.647 35.4751 123.09 35.1016 123.345 34.3584C123.597 33.6034 123.756 32.4271 123.824 30.8256L123.988 26.1602H132.858V26.1562Z" fill="white"/>
<path d="M142.092 29.9354C143.501 29.9354 144.579 30.2493 145.325 30.8732C146.084 31.4972 146.463 32.4231 146.463 33.651C146.463 34.9545 146.044 35.9519 145.21 36.6394C144.383 37.319 143.218 37.6567 141.713 37.6567H136.499V26.1602H139.154V29.9394H142.092V29.9354ZM141.565 35.6857C142.259 35.6857 142.798 35.5148 143.182 35.177C143.577 34.8392 143.776 34.3465 143.776 33.6987C143.776 32.5065 143.042 31.9065 141.565 31.9065H139.158V35.6857H141.565Z" fill="white"/>
<path d="M158.582 26.1566V37.6531H155.943V34.5972H153.504L151.46 37.6531H148.638L151.045 34.1879C150.267 33.87 149.664 33.3931 149.249 32.7573C148.83 32.1095 148.622 31.3386 148.622 30.4405C148.622 29.5543 148.826 28.7913 149.233 28.1555C149.64 27.5077 150.219 27.0149 150.965 26.6771C151.712 26.3274 152.594 26.1526 153.604 26.1526H158.582V26.1566ZM153.668 28.3263C152.909 28.3263 152.327 28.5012 151.919 28.8509C151.524 29.2006 151.325 29.7212 151.325 30.4126C151.325 31.0803 151.516 31.5969 151.903 31.9585C152.287 32.3201 152.854 32.499 153.6 32.499H155.943V28.3263H153.668Z" fill="white"/>
<path d="M172.977 26.1562V37.6528H170.307V32.9397H165.061V37.6528H162.391V26.1562H165.061V30.6905H170.307V26.1562H172.977Z" fill="white"/>
<path d="M182.087 37.8517C180.91 37.8517 179.844 37.6013 178.886 37.0966C177.94 36.58 177.193 35.8766 176.642 34.9785C176.103 34.0685 175.832 33.0472 175.832 31.9067C175.832 30.7662 176.103 29.7488 176.642 28.8507C177.193 27.9407 177.94 27.2373 178.886 26.7326C179.844 26.216 180.914 25.9617 182.103 25.9617C183.105 25.9617 184.004 26.1365 184.806 26.4862C185.62 26.8359 186.303 27.3406 186.85 27.9963L185.133 29.574C184.351 28.6759 183.385 28.2268 182.231 28.2268C181.517 28.2268 180.878 28.3858 180.319 28.7037C179.76 29.0097 179.317 29.4428 178.998 30.0032C178.69 30.5635 178.535 31.1953 178.535 31.9067C178.535 32.618 178.69 33.2538 178.998 33.8102C179.317 34.3705 179.756 34.8076 180.319 35.1256C180.882 35.4315 181.517 35.5865 182.231 35.5865C183.385 35.5865 184.355 35.1335 185.133 34.2235L186.85 35.8011C186.299 36.4688 185.616 36.9774 184.806 37.3271C183.992 37.6768 183.085 37.8517 182.087 37.8517Z" fill="white"/>
<path fill-rule="evenodd" clip-rule="evenodd" d="M17.9163 8.92944C16.8145 9.78384 15.9921 10.678 15.4771 11.3973C14.0919 13.3206 11.9043 17.7476 13.9083 21.7414C14.0959 22.1189 14.2955 22.4567 14.5031 22.7587C11.5131 23.1323 8.18776 24.0185 5.81651 26.0253C2.17182 29.1091 -0.0157941 32.6657 0.31155 37.5656C0.638893 42.4655 4.57899 46.1294 10.2636 46.8567C15.9522 47.5839 20.5829 45.4419 23.5729 42.7556C26.5629 40.0692 28.4591 36.441 27.2934 33.4287C26.1278 30.4165 22.2995 29.9078 19.3813 30.2695C16.4632 30.6311 13.2935 32.6657 11.3215 34.6964C9.35342 36.7271 8.40333 38.9048 8.43925 39.1234C8.47518 39.3419 8.80252 39.9221 9.05801 39.3419C9.3135 38.7617 10.2596 37.4543 11.2097 36.2582C12.1558 35.062 18.2117 29.8721 22.2955 31.8312C26.3793 33.7904 23.6088 40.252 19.05 43.7729C14.4911 47.2938 10.1917 46.2407 8.73067 45.2591C7.27359 44.2776 3.80854 40.9395 5.22969 34.8077C6.65084 28.6759 9.27757 26.4982 10.9183 25.155C11.6768 24.5351 13.3215 23.8794 15.034 23.4542C16.9302 25.6319 19.2216 25.3855 20.2156 25.2663C21.4172 25.1192 22.2955 22.5084 18.8304 22.5084C18.032 22.5084 17.1059 22.5322 16.1039 22.6037C15.0779 20.8393 15.054 18.9239 16.3554 16.1183C16.8384 15.0731 17.7406 13.6664 19.2057 12.1603L17.9163 8.92944Z" fill="white"/>
<path d="M17.1572 0H27.0015L45.4525 46.9997H35.6082L17.1572 0Z" fill="white"/>
</svg>
