<svg width="154" height="40" viewBox="0 0 154 40" fill="none" xmlns="http://www.w3.org/2000/svg">
<g clip-path="url(#clip0_941_224)">
<path d="M45.5254 8.05811H53.2251V9.81569H47.7215V11.7777H50.3661C51.5203 11.7777 52.3974 12.0184 52.9943 12.4999C53.6043 12.9813 53.9077 13.6771 53.9077 14.5839C53.9077 15.5369 53.5713 16.2788 52.8986 16.8064C52.2259 17.334 51.2763 17.5978 50.0496 17.5978H45.5254V8.05811ZM49.9243 15.9656C50.4882 15.9656 50.9201 15.8567 51.2202 15.6391C51.5203 15.4116 51.6687 15.0851 51.6687 14.6564C51.6687 13.8189 51.0883 13.4034 49.9243 13.4034H47.7182V15.9656H49.9243Z" fill="#31509A"/>
<path d="M62.9167 15.5563H58.4881L57.6439 17.6008H55.3818L59.6323 8.06104H61.812L66.0757 17.6008H63.7608L62.9167 15.5563ZM62.2209 13.8779L60.7073 10.2242L59.1938 13.8779H62.2209Z" fill="#31509A"/>
<path d="M76.845 8.05811V17.5978H74.6357V13.687H70.3027V17.5978H68.0967V8.05811H70.3027V11.8206H74.6357V8.05811H76.845Z" fill="#31509A"/>
<path d="M83.5497 13.7558H82.0229V17.6008H79.8301V8.06104H82.0229V11.9191H83.6024L86.1085 8.06104H88.4399L85.3204 12.6677L88.5355 17.6008H86.0294L83.5497 13.7558Z" fill="#31509A"/>
<path d="M52.9085 29.9731V31.7438H45.5254V22.2041H52.7338V23.9749H47.7182V26.0457H52.1468V27.7637H47.7182V29.9731H52.9085Z" fill="#31509A"/>
<path d="M62.2537 26.7712C62.8341 26.9426 63.2793 27.2262 63.5892 27.6153C63.8992 28.0044 64.0509 28.4892 64.0509 29.0596C64.0509 29.9038 63.7277 30.5633 63.0847 31.0349C62.4483 31.5064 61.5349 31.7438 60.3445 31.7438H55.6455V22.2041H60.0873C61.1952 22.2041 62.0592 22.4184 62.6758 22.8438C63.2925 23.2725 63.6024 23.8792 63.6024 24.6706C63.6024 25.1422 63.4837 25.561 63.2496 25.9237C63.0122 26.2798 62.6824 26.5601 62.2537 26.7712ZM57.8384 26.1578H59.896C60.3774 26.1578 60.7402 26.0622 60.9842 25.8709C61.2282 25.6698 61.3535 25.3796 61.3535 24.9971C61.3535 24.6245 61.2249 24.3376 60.971 24.1397C60.727 23.9386 60.3676 23.8397 59.896 23.8397H57.8384V26.1578ZM60.2653 30.1115C61.3008 30.1115 61.8185 29.7027 61.8185 28.8849C61.8185 28.0935 61.3008 27.6978 60.2653 27.6978H57.8417V30.1115H60.2653Z" fill="#31509A"/>
<path d="M70.5504 22.2041C71.3945 22.2041 72.1266 22.3459 72.7432 22.6262C73.3697 22.9065 73.8512 23.3088 74.1875 23.8265C74.5239 24.3442 74.692 24.9575 74.692 25.6665C74.692 26.3656 74.5239 26.9789 74.1875 27.5065C73.8512 28.0242 73.3697 28.4232 72.7432 28.7068C72.1266 28.9805 71.3945 29.1157 70.5504 29.1157H68.6279V31.7471H66.4219V22.2074H70.5504V22.2041ZM70.4284 27.3153C71.0912 27.3153 71.5957 27.1735 71.9419 26.8932C72.2882 26.603 72.4596 26.1941 72.4596 25.6665C72.4596 25.129 72.2882 24.7201 71.9419 24.4398C71.5957 24.1496 71.0912 24.0045 70.4284 24.0045H68.6312V27.3153H70.4284Z" fill="#31509A"/>
<path d="M81.785 31.9087C80.7958 31.9087 79.8989 31.6943 79.1009 31.2689C78.3094 30.8403 77.6895 30.2566 77.2345 29.5114C76.7893 28.7562 76.5684 27.9121 76.5684 26.9756C76.5684 26.0391 76.7893 25.1982 77.2345 24.453C77.6895 23.6978 78.3094 23.1076 79.1009 22.6822C79.8989 22.2535 80.7958 22.0425 81.785 22.0425C82.7743 22.0425 83.6646 22.2568 84.456 22.6822C85.2474 23.1109 85.8674 23.7011 86.3224 24.453C86.7775 25.1982 87.005 26.0391 87.005 26.9756C87.005 27.9121 86.7775 28.7562 86.3224 29.5114C85.8674 30.2566 85.2474 30.8436 84.456 31.2689C83.6646 31.6976 82.7743 31.9087 81.785 31.9087ZM81.785 30.0291C82.3489 30.0291 82.8567 29.9005 83.3118 29.6466C83.7668 29.3828 84.1197 29.02 84.3736 28.5551C84.6374 28.0901 84.7693 27.5658 84.7693 26.9756C84.7693 26.3853 84.6374 25.8577 84.3736 25.3961C84.1197 24.9311 83.7668 24.575 83.3118 24.3178C82.8567 24.054 82.3489 23.9221 81.785 23.9221C81.2212 23.9221 80.7133 24.054 80.2583 24.3178C79.8032 24.5717 79.4471 24.9311 79.1833 25.3961C78.9294 25.861 78.8008 26.3853 78.8008 26.9756C78.8008 27.5658 78.9294 28.0934 79.1833 28.5551C79.4471 29.02 79.8065 29.3828 80.2583 29.6466C80.7133 29.9005 81.2245 30.0291 81.785 30.0291Z" fill="#31509A"/>
<path d="M95.5846 29.7028H91.1561L90.3119 31.7472H88.0498L92.3003 22.2075H94.48L98.7437 31.7472H96.4288L95.5846 29.7028ZM94.8889 28.0243L93.3753 24.3707L91.865 28.0243H94.8889Z" fill="#31509A"/>
<path d="M109.745 22.2041V31.7438H107.565V24.0012H104.294L104.224 25.9929C104.178 27.3482 104.07 28.4463 103.898 29.2905C103.727 30.128 103.433 30.771 103.027 31.2261C102.628 31.6713 102.065 31.8955 101.339 31.8955C101.039 31.8955 100.676 31.846 100.251 31.7471L100.386 29.8807C100.505 29.917 100.637 29.9368 100.782 29.9368C101.309 29.9368 101.676 29.6268 101.887 29.0102C102.094 28.3836 102.226 27.4076 102.282 26.0787L102.417 22.2074H109.745V22.2041Z" fill="#31509A"/>
<path d="M117.372 25.3402C118.536 25.3402 119.426 25.6007 120.043 26.1184C120.669 26.6361 120.983 27.4044 120.983 28.4233C120.983 29.5049 120.636 30.3326 119.947 30.9031C119.265 31.4669 118.302 31.7472 117.059 31.7472H112.752V22.2075H114.945V25.3435H117.372V25.3402ZM116.937 30.1117C117.51 30.1117 117.955 29.9699 118.272 29.6896C118.598 29.4093 118.763 29.0004 118.763 28.4629C118.763 27.4737 118.157 26.9757 116.937 26.9757H114.948V30.1117H116.937Z" fill="#31509A"/>
<path d="M130.994 22.2045V31.7442H128.814V29.2084H126.799L125.111 31.7442H122.78L124.768 28.8688C124.125 28.605 123.627 28.2092 123.284 27.6816C122.938 27.1442 122.767 26.5044 122.767 25.7592C122.767 25.0239 122.935 24.3907 123.271 23.8631C123.607 23.3256 124.086 22.9167 124.702 22.6364C125.319 22.3463 126.048 22.2012 126.882 22.2012H130.994V22.2045ZM126.935 24.0049C126.308 24.0049 125.827 24.15 125.49 24.4402C125.164 24.7304 124.999 25.1623 124.999 25.7361C124.999 26.2901 125.157 26.7188 125.477 27.0188C125.794 27.3189 126.262 27.4673 126.879 27.4673H128.814V24.0049H126.935Z" fill="#31509A"/>
<path d="M142.885 22.2041V31.7438H140.679V27.833H136.346V31.7438H134.14V22.2041H136.346V25.9666H140.679V22.2041H142.885Z" fill="#31509A"/>
<path d="M150.409 31.9087C149.437 31.9087 148.556 31.7009 147.765 31.2821C146.983 30.8535 146.367 30.2698 145.912 29.5246C145.466 28.7694 145.242 27.922 145.242 26.9756C145.242 26.0292 145.466 25.185 145.912 24.4398C146.367 23.6847 146.983 23.101 147.765 22.6822C148.556 22.2535 149.44 22.0425 150.423 22.0425C151.25 22.0425 151.992 22.1876 152.655 22.4778C153.328 22.7679 153.892 23.1867 154.343 23.7308L152.925 25.0399C152.279 24.2947 151.481 23.9221 150.528 23.9221C149.938 23.9221 149.41 24.054 148.949 24.3178C148.487 24.5717 148.121 24.9311 147.857 25.3961C147.603 25.861 147.475 26.3853 147.475 26.9756C147.475 27.5658 147.603 28.0934 147.857 28.5551C148.121 29.02 148.484 29.3828 148.949 29.6466C149.414 29.9005 149.938 30.0291 150.528 30.0291C151.481 30.0291 152.282 29.6532 152.925 28.898L154.343 30.2071C153.888 30.7611 153.324 31.1832 152.655 31.4734C151.982 31.7636 151.234 31.9087 150.409 31.9087Z" fill="#31509A"/>
<path fill-rule="evenodd" clip-rule="evenodd" d="M14.7992 7.90967C13.8891 8.61863 13.2098 9.36057 12.7844 9.95742C11.6401 11.5534 9.8331 15.2269 11.4885 18.5409C11.6434 18.8541 11.8083 19.1344 11.9798 19.385C9.50995 19.695 6.76311 20.4303 4.80439 22.0956C1.79375 24.6545 -0.013286 27.6057 0.257111 31.6716C0.527507 35.7374 3.78216 38.7777 8.47782 39.3812C13.1768 39.9846 17.0019 38.2073 19.4718 35.9781C21.9416 33.749 23.5079 30.7384 22.545 28.2389C21.5822 25.7393 18.4198 25.3173 16.0094 25.6173C13.5989 25.9174 10.9806 27.6057 9.35167 29.2908C7.72599 30.9758 6.94118 32.7828 6.97086 32.9642C7.00054 33.1456 7.27093 33.627 7.48197 33.1456C7.69301 32.6641 8.47453 31.5793 9.25933 30.5867C10.0408 29.5941 15.0432 25.2876 18.4165 26.9133C21.7899 28.5389 19.5014 33.9007 15.7357 36.8223C11.9699 39.7439 8.41847 38.8701 7.21158 38.0556C6.00798 37.2411 3.14574 34.4712 4.31965 29.3831C5.49357 24.295 7.66334 22.488 9.01862 21.3734C9.64515 20.859 11.0037 20.3149 12.4184 19.9621C13.9847 21.7691 15.8775 21.5647 16.6985 21.4658C17.6911 21.3438 18.4165 19.1773 15.5543 19.1773C14.8948 19.1773 14.1298 19.1971 13.3021 19.2564C12.4546 17.7923 12.4348 16.2029 13.5098 13.8749C13.9088 13.0076 14.6541 11.8403 15.8643 10.5906L14.7992 7.90967Z" fill="#31509A"/>
<path d="M14.1729 0.5H22.3045L37.5457 39.4997H29.414L14.1729 0.5Z" fill="#31509A"/>
</g>
<defs>
<clipPath id="clip0_941_224">
<rect width="154" height="39" fill="white" transform="translate(0 0.5)"/>
</clipPath>
</defs>
</svg>
