<svg width="32" height="32" viewBox="0 0 32 32" fill="none" xmlns="http://www.w3.org/2000/svg">
<rect width="32" height="32" rx="16" fill="#31509A"/>
<rect x="5" y="5" width="22" height="22" rx="11" fill="white"/>
<path d="M14.0183 11.4958C14.6294 11.1659 15.3252 10.9947 16.0325 11.0001C16.7398 11.0055 17.4325 11.1874 18.0377 11.5265C19.2628 12.2317 20.0068 13.4907 20 14.8434C19.9714 16.1881 19.1731 17.4529 18.1754 18.4302C17.6011 18.9958 16.9571 19.4969 16.2565 19.9232C16.1845 19.9621 16.1052 19.9881 16.0228 20C15.944 19.9967 15.8674 19.975 15.8 19.937C14.7292 19.2955 13.7925 18.48 13.0349 17.5297C12.3972 16.7302 12.0364 15.7702 12 14.7767L12.0029 14.6321C12.0543 13.3319 12.8143 12.1438 14.0183 11.4958ZM16.5183 13.6654C16.27 13.5678 15.9957 13.5419 15.7312 13.591C15.4668 13.6401 15.2245 13.762 15.036 13.9407C14.8451 14.1216 14.7153 14.3503 14.6626 14.5986C14.61 14.8468 14.6366 15.104 14.7394 15.3384C14.8397 15.5714 15.0129 15.7713 15.2367 15.9125C15.4604 16.0538 15.7247 16.1298 15.9954 16.1309C16.1744 16.1318 16.3518 16.0994 16.517 16.0355C16.6822 15.9717 16.8318 15.8777 16.9571 15.7593C17.212 15.5195 17.3548 15.1928 17.3537 14.8529C17.3558 14.6008 17.2777 14.3537 17.1291 14.1425C16.9805 13.9313 16.768 13.7654 16.5183 13.6654Z" fill="#31509A"/>
</svg>
