<svg width="176" height="176" viewBox="0 0 176 176" fill="none" xmlns="http://www.w3.org/2000/svg">
<path d="M66.8813 0.000244141C68.8254 0.000244141 70.4013 1.57622 70.4013 3.52024C70.4013 5.46436 68.8254 7.04023 66.8813 7.04023C64.9373 7.04023 63.3613 5.46436 63.3613 3.52024C63.3613 1.57622 64.9373 0.000244141 66.8813 0.000244141Z" fill="#18212F"/>
<path d="M73.9213 0C75.8654 0 77.4413 1.57597 77.4413 3.51999C77.4413 5.46411 75.8654 7.03999 73.9213 7.03999C71.9773 7.03999 70.4014 5.46411 70.4014 3.51999C70.4014 1.57597 71.9773 0 73.9213 0Z" fill="#18212F"/>
<path d="M80.9594 0.000366211C82.9035 0.000366211 84.4794 1.57634 84.4794 3.52036C84.4794 5.46448 82.9035 7.04035 80.9594 7.04035C79.0154 7.04035 77.4395 5.46448 77.4395 3.52036C77.4395 1.57634 79.0154 0.000366211 80.9594 0.000366211Z" fill="#18212F"/>
<path d="M95.0395 0.000366211C96.9836 0.000366211 98.5595 1.57634 98.5595 3.52036C98.5595 5.46448 96.9836 7.04035 95.0395 7.04035C93.0955 7.04035 91.5195 5.46448 91.5195 3.52036C91.5195 1.57634 93.0955 0.000366211 95.0395 0.000366211Z" fill="#18212F"/>
<path d="M116.16 0.000244141C118.104 0.000244141 119.68 1.57622 119.68 3.52024C119.68 5.46436 118.104 7.04023 116.16 7.04023C114.216 7.04023 112.64 5.46436 112.64 3.52024C112.64 1.57622 114.216 0.000244141 116.16 0.000244141Z" fill="#18212F"/>
<path d="M80.9594 7.04004C82.9035 7.04004 84.4794 8.61601 84.4794 10.56C84.4794 12.5042 82.9035 14.08 80.9594 14.08C79.0154 14.08 77.4395 12.5042 77.4395 10.56C77.4395 8.61601 79.0154 7.04004 80.9594 7.04004Z" fill="#18212F"/>
<path d="M95.0395 7.04004C96.9836 7.04004 98.5595 8.61601 98.5595 10.56C98.5595 12.5042 96.9836 14.08 95.0395 14.08C93.0955 14.08 91.5195 12.5042 91.5195 10.56C91.5195 8.61601 93.0955 7.04004 95.0395 7.04004Z" fill="#18212F"/>
<path d="M102.081 7.04004C104.025 7.04004 105.6 8.61601 105.6 10.56C105.6 12.5042 104.025 14.08 102.081 14.08C100.137 14.08 98.5605 12.5042 98.5605 10.56C98.5605 8.61601 100.137 7.04004 102.081 7.04004Z" fill="#18212F"/>
<path d="M109.12 7.04004C111.064 7.04004 112.64 8.61601 112.64 10.56C112.64 12.5042 111.064 14.08 109.12 14.08C107.176 14.08 105.6 12.5042 105.6 10.56C105.6 8.61601 107.176 7.04004 109.12 7.04004Z" fill="#18212F"/>
<path d="M116.16 7.04016C118.104 7.04016 119.68 8.61613 119.68 10.5602C119.68 12.5043 118.104 14.0801 116.16 14.0801C114.216 14.0801 112.64 12.5043 112.64 10.5602C112.64 8.61613 114.216 7.04016 116.16 7.04016Z" fill="#18212F"/>
<path d="M59.8393 14.0802C61.7834 14.0802 63.3593 15.6562 63.3593 17.6002C63.3593 19.5443 61.7834 21.1202 59.8393 21.1202C57.8953 21.1202 56.3193 19.5443 56.3193 17.6002C56.3193 15.6562 57.8953 14.0802 59.8393 14.0802Z" fill="#18212F"/>
<path d="M66.8813 14.0802C68.8254 14.0802 70.4013 15.6562 70.4013 17.6002C70.4013 19.5443 68.8254 21.1202 66.8813 21.1202C64.9373 21.1202 63.3613 19.5443 63.3613 17.6002C63.3613 15.6562 64.9373 14.0802 66.8813 14.0802Z" fill="#18212F"/>
<path d="M88.0004 14.0802C89.9445 14.0802 91.5204 15.6561 91.5204 17.6002C91.5204 19.5443 89.9445 21.1202 88.0004 21.1202C86.0564 21.1202 84.4805 19.5443 84.4805 17.6002C84.4805 15.6561 86.0564 14.0802 88.0004 14.0802Z" fill="#18212F"/>
<path d="M109.12 14.0801C111.064 14.0801 112.64 15.6561 112.64 17.6001C112.64 19.5442 111.064 21.1201 109.12 21.1201C107.176 21.1201 105.6 19.5442 105.6 17.6001C105.6 15.6561 107.176 14.0801 109.12 14.0801Z" fill="#18212F"/>
<path d="M59.8393 21.1203C61.7834 21.1203 63.3593 22.6962 63.3593 24.6403C63.3593 26.5844 61.7834 28.1603 59.8393 28.1603C57.8953 28.1603 56.3193 26.5844 56.3193 24.6403C56.3193 22.6962 57.8953 21.1203 59.8393 21.1203Z" fill="#18212F"/>
<path d="M66.8813 21.1203C68.8254 21.1203 70.4013 22.6962 70.4013 24.6403C70.4013 26.5844 68.8254 28.1603 66.8813 28.1603C64.9373 28.1603 63.3613 26.5844 63.3613 24.6403C63.3613 22.6962 64.9373 21.1203 66.8813 21.1203Z" fill="#18212F"/>
<path d="M95.0395 21.1201C96.9836 21.1201 98.5595 22.6961 98.5595 24.6401C98.5595 26.5843 96.9836 28.1601 95.0395 28.1601C93.0955 28.1601 91.5195 26.5843 91.5195 24.6401C91.5195 22.6961 93.0955 21.1201 95.0395 21.1201Z" fill="#18212F"/>
<path d="M102.081 21.1202C104.025 21.1202 105.6 22.6962 105.6 24.6402C105.6 26.5843 104.025 28.1602 102.081 28.1602C100.137 28.1602 98.5605 26.5843 98.5605 24.6402C98.5605 22.6962 100.137 21.1202 102.081 21.1202Z" fill="#18212F"/>
<path d="M109.12 21.1202C111.064 21.1202 112.64 22.6962 112.64 24.6402C112.64 26.5843 111.064 28.1602 109.12 28.1602C107.176 28.1602 105.6 26.5843 105.6 24.6402C105.6 22.6962 107.176 21.1202 109.12 21.1202Z" fill="#18212F"/>
<path d="M59.8393 28.1602C61.7834 28.1602 63.3593 29.7362 63.3593 31.6802C63.3593 33.6243 61.7834 35.2002 59.8393 35.2002C57.8953 35.2002 56.3193 33.6243 56.3193 31.6802C56.3193 29.7362 57.8953 28.1602 59.8393 28.1602Z" fill="#18212F"/>
<path d="M88.0004 28.1603C89.9445 28.1603 91.5204 29.7362 91.5204 31.6803C91.5204 33.6244 89.9445 35.2003 88.0004 35.2003C86.0564 35.2003 84.4805 33.6244 84.4805 31.6803C84.4805 29.7362 86.0564 28.1603 88.0004 28.1603Z" fill="#18212F"/>
<path d="M116.16 28.1602C118.104 28.1602 119.68 29.7362 119.68 31.6802C119.68 33.6243 118.104 35.2002 116.16 35.2002C114.216 35.2002 112.64 33.6243 112.64 31.6802C112.64 29.7362 114.216 28.1602 116.16 28.1602Z" fill="#18212F"/>
<path d="M59.8393 35.2C61.7834 35.2 63.3593 36.776 63.3593 38.72C63.3593 40.6641 61.7834 42.24 59.8393 42.24C57.8953 42.24 56.3193 40.6641 56.3193 38.72C56.3193 36.776 57.8953 35.2 59.8393 35.2Z" fill="#18212F"/>
<path d="M66.8813 35.2C68.8254 35.2 70.4013 36.776 70.4013 38.72C70.4013 40.6641 68.8254 42.24 66.8813 42.24C64.9373 42.24 63.3613 40.6641 63.3613 38.72C63.3613 36.776 64.9373 35.2 66.8813 35.2Z" fill="#18212F"/>
<path d="M73.9213 35.2003C75.8654 35.2003 77.4413 36.7762 77.4413 38.7203C77.4413 40.6644 75.8654 42.2402 73.9213 42.2402C71.9773 42.2402 70.4014 40.6644 70.4014 38.7203C70.4014 36.7762 71.9773 35.2003 73.9213 35.2003Z" fill="#18212F"/>
<path d="M80.9594 35.1999C82.9035 35.1999 84.4794 36.7759 84.4794 38.7199C84.4794 40.664 82.9035 42.2399 80.9594 42.2399C79.0154 42.2399 77.4395 40.664 77.4395 38.7199C77.4395 36.7759 79.0154 35.1999 80.9594 35.1999Z" fill="#18212F"/>
<path d="M95.0395 35.1999C96.9836 35.1999 98.5595 36.7759 98.5595 38.7199C98.5595 40.664 96.9836 42.2399 95.0395 42.2399C93.0955 42.2399 91.5195 40.664 91.5195 38.7199C91.5195 36.7759 93.0955 35.1999 95.0395 35.1999Z" fill="#18212F"/>
<path d="M109.12 35.2003C111.064 35.2003 112.64 36.7762 112.64 38.7203C112.64 40.6644 111.064 42.2402 109.12 42.2402C107.176 42.2402 105.6 40.6644 105.6 38.7203C105.6 36.7762 107.176 35.2003 109.12 35.2003Z" fill="#18212F"/>
<path d="M116.16 35.2C118.104 35.2 119.68 36.776 119.68 38.72C119.68 40.6641 118.104 42.24 116.16 42.24C114.216 42.24 112.64 40.6641 112.64 38.72C112.64 36.776 114.216 35.2 116.16 35.2Z" fill="#18212F"/>
<path d="M59.8393 42.2402C61.7834 42.2402 63.3593 43.8161 63.3593 45.7602C63.3593 47.7043 61.7834 49.2802 59.8393 49.2802C57.8953 49.2802 56.3193 47.7043 56.3193 45.7602C56.3193 43.8161 57.8953 42.2402 59.8393 42.2402Z" fill="#18212F"/>
<path d="M73.9213 42.2401C75.8654 42.2401 77.4413 43.816 77.4413 45.76C77.4413 47.7042 75.8654 49.28 73.9213 49.28C71.9773 49.28 70.4014 47.7042 70.4014 45.76C70.4014 43.816 71.9773 42.2401 73.9213 42.2401Z" fill="#18212F"/>
<path d="M88.0004 42.24C89.9445 42.24 91.5204 43.816 91.5204 45.76C91.5204 47.7041 89.9445 49.28 88.0004 49.28C86.0564 49.28 84.4805 47.7041 84.4805 45.76C84.4805 43.816 86.0564 42.24 88.0004 42.24Z" fill="#18212F"/>
<path d="M102.081 42.24C104.025 42.24 105.6 43.816 105.6 45.76C105.6 47.7041 104.025 49.28 102.081 49.28C100.137 49.28 98.5605 47.7041 98.5605 45.76C98.5605 43.816 100.137 42.24 102.081 42.24Z" fill="#18212F"/>
<path d="M116.16 42.2402C118.104 42.2402 119.68 43.8161 119.68 45.7602C119.68 47.7043 118.104 49.2802 116.16 49.2802C114.216 49.2802 112.64 47.7043 112.64 45.7602C112.64 43.8161 114.216 42.2402 116.16 42.2402Z" fill="#18212F"/>
<path d="M59.8393 49.2801C61.7834 49.2801 63.3593 50.8561 63.3593 52.8001C63.3593 54.7442 61.7834 56.3201 59.8393 56.3201C57.8953 56.3201 56.3193 54.7442 56.3193 52.8001C56.3193 50.8561 57.8953 49.2801 59.8393 49.2801Z" fill="#18212F"/>
<path d="M73.9213 49.2801C75.8654 49.2801 77.4413 50.8561 77.4413 52.8001C77.4413 54.7442 75.8654 56.3201 73.9213 56.3201C71.9773 56.3201 70.4014 54.7442 70.4014 52.8001C70.4014 50.8561 71.9773 49.2801 73.9213 49.2801Z" fill="#18212F"/>
<path d="M88.0004 49.2801C89.9445 49.2801 91.5204 50.8561 91.5204 52.8001C91.5204 54.7442 89.9445 56.3201 88.0004 56.3201C86.0564 56.3201 84.4805 54.7442 84.4805 52.8001C84.4805 50.8561 86.0564 49.2801 88.0004 49.2801Z" fill="#18212F"/>
<path d="M102.081 49.2801C104.025 49.2801 105.6 50.8561 105.6 52.8001C105.6 54.7442 104.025 56.3201 102.081 56.3201C100.137 56.3201 98.5605 54.7442 98.5605 52.8001C98.5605 50.8561 100.137 49.2801 102.081 49.2801Z" fill="#18212F"/>
<path d="M109.12 49.2801C111.064 49.2801 112.64 50.8561 112.64 52.8001C112.64 54.7442 111.064 56.3201 109.12 56.3201C107.176 56.3201 105.6 54.7442 105.6 52.8001C105.6 50.8561 107.176 49.2801 109.12 49.2801Z" fill="#18212F"/>
<path d="M3.51997 56.3201C5.46408 56.3201 7.03994 57.8961 7.03994 59.8401C7.03994 61.7842 5.46408 63.3601 3.51997 63.3601C1.57596 63.3601 0 61.7842 0 59.8401C0 57.8961 1.57596 56.3201 3.51997 56.3201Z" fill="#18212F"/>
<path d="M17.601 56.3202C19.5451 56.3202 21.121 57.8961 21.121 59.8402C21.121 61.7843 19.5451 63.3601 17.601 63.3601C15.657 63.3601 14.0811 61.7843 14.0811 59.8402C14.0811 57.8961 15.657 56.3202 17.601 56.3202Z" fill="#18212F"/>
<path d="M24.6411 56.3202C26.5852 56.3202 28.161 57.8961 28.161 59.8402C28.161 61.7843 26.5852 63.3601 24.6411 63.3601C22.6971 63.3601 21.1211 61.7843 21.1211 59.8402C21.1211 57.8961 22.6971 56.3202 24.6411 56.3202Z" fill="#18212F"/>
<path d="M31.6801 56.3202C33.6242 56.3202 35.2001 57.8961 35.2001 59.8402C35.2001 61.7843 33.6242 63.3601 31.6801 63.3601C29.7361 63.3601 28.1602 61.7843 28.1602 59.8402C28.1602 57.8961 29.7361 56.3202 31.6801 56.3202Z" fill="#18212F"/>
<path d="M38.7202 56.3201C40.6643 56.3201 42.2401 57.8961 42.2401 59.8401C42.2401 61.7842 40.6643 63.3601 38.7202 63.3601C36.7762 63.3601 35.2002 61.7842 35.2002 59.8401C35.2002 57.8961 36.7762 56.3201 38.7202 56.3201Z" fill="#18212F"/>
<path d="M45.7602 56.3201C47.7043 56.3201 49.2802 57.8961 49.2802 59.8401C49.2802 61.7842 47.7043 63.3601 45.7602 63.3601C43.8162 63.3601 42.2402 61.7842 42.2402 59.8401C42.2402 57.8961 43.8162 56.3201 45.7602 56.3201Z" fill="#18212F"/>
<path d="M66.8813 56.32C68.8254 56.32 70.4013 57.896 70.4013 59.84C70.4013 61.7842 68.8254 63.36 66.8813 63.36C64.9373 63.36 63.3613 61.7842 63.3613 59.84C63.3613 57.896 64.9373 56.32 66.8813 56.32Z" fill="#18212F"/>
<path d="M88.0004 56.3201C89.9445 56.3201 91.5204 57.896 91.5204 59.8401C91.5204 61.7842 89.9445 63.3601 88.0004 63.3601C86.0564 63.3601 84.4805 61.7842 84.4805 59.8401C84.4805 57.896 86.0564 56.3201 88.0004 56.3201Z" fill="#18212F"/>
<path d="M95.0395 56.32C96.9836 56.32 98.5595 57.896 98.5595 59.84C98.5595 61.7842 96.9836 63.36 95.0395 63.36C93.0955 63.36 91.5195 61.7842 91.5195 59.84C91.5195 57.896 93.0955 56.32 95.0395 56.32Z" fill="#18212F"/>
<path d="M102.081 56.3201C104.025 56.3201 105.6 57.896 105.6 59.8401C105.6 61.7842 104.025 63.3601 102.081 63.3601C100.137 63.3601 98.5605 61.7842 98.5605 59.8401C98.5605 57.896 100.137 56.3201 102.081 56.3201Z" fill="#18212F"/>
<path d="M130.238 56.3201C132.182 56.3201 133.758 57.896 133.758 59.8401C133.758 61.7842 132.182 63.3601 130.238 63.3601C128.294 63.3601 126.718 61.7842 126.718 59.8401C126.718 57.896 128.294 56.3201 130.238 56.3201Z" fill="#18212F"/>
<path d="M137.28 56.32C139.224 56.32 140.8 57.896 140.8 59.84C140.8 61.7842 139.224 63.36 137.28 63.36C135.336 63.36 133.76 61.7842 133.76 59.84C133.76 57.896 135.336 56.32 137.28 56.32Z" fill="#18212F"/>
<path d="M144.319 56.3202C146.263 56.3202 147.839 57.8961 147.839 59.8402C147.839 61.7843 146.263 63.3601 144.319 63.3601C142.375 63.3601 140.799 61.7843 140.799 59.8402C140.799 57.8961 142.375 56.3202 144.319 56.3202Z" fill="#18212F"/>
<path d="M151.361 56.3201C153.305 56.3201 154.881 57.8961 154.881 59.8401C154.881 61.7842 153.305 63.3601 151.361 63.3601C149.417 63.3601 147.841 61.7842 147.841 59.8401C147.841 57.8961 149.417 56.3201 151.361 56.3201Z" fill="#18212F"/>
<path d="M158.399 56.3201C160.343 56.3201 161.919 57.8961 161.919 59.8401C161.919 61.7842 160.343 63.3601 158.399 63.3601C156.455 63.3601 154.879 61.7842 154.879 59.8401C154.879 57.8961 156.455 56.3201 158.399 56.3201Z" fill="#18212F"/>
<path d="M17.601 63.36C19.5451 63.36 21.121 64.9359 21.121 66.8799C21.121 68.8241 19.5451 70.3999 17.601 70.3999C15.657 70.3999 14.0811 68.8241 14.0811 66.8799C14.0811 64.9359 15.657 63.36 17.601 63.36Z" fill="#18212F"/>
<path d="M24.6411 63.3601C26.5852 63.3601 28.161 64.936 28.161 66.8801C28.161 68.8242 26.5852 70.4001 24.6411 70.4001C22.6971 70.4001 21.1211 68.8242 21.1211 66.8801C21.1211 64.936 22.6971 63.3601 24.6411 63.3601Z" fill="#18212F"/>
<path d="M31.6801 63.3601C33.6242 63.3601 35.2001 64.936 35.2001 66.8801C35.2001 68.8242 33.6242 70.4001 31.6801 70.4001C29.7361 70.4001 28.1602 68.8242 28.1602 66.8801C28.1602 64.936 29.7361 63.3601 31.6801 63.3601Z" fill="#18212F"/>
<path d="M38.7202 63.36C40.6643 63.36 42.2401 64.936 42.2401 66.88C42.2401 68.8241 40.6643 70.4 38.7202 70.4C36.7762 70.4 35.2002 68.8241 35.2002 66.88C35.2002 64.936 36.7762 63.36 38.7202 63.36Z" fill="#18212F"/>
<path d="M66.8813 63.36C68.8254 63.36 70.4013 64.9359 70.4013 66.8799C70.4013 68.8241 68.8254 70.3999 66.8813 70.3999C64.9373 70.3999 63.3613 68.8241 63.3613 66.8799C63.3613 64.9359 64.9373 63.36 66.8813 63.36Z" fill="#18212F"/>
<path d="M73.9213 63.3601C75.8654 63.3601 77.4413 64.936 77.4413 66.8801C77.4413 68.8242 75.8654 70.4001 73.9213 70.4001C71.9773 70.4001 70.4014 68.8242 70.4014 66.8801C70.4014 64.936 71.9773 63.3601 73.9213 63.3601Z" fill="#18212F"/>
<path d="M88.0004 63.3601C89.9445 63.3601 91.5204 64.9361 91.5204 66.8801C91.5204 68.8242 89.9445 70.4001 88.0004 70.4001C86.0564 70.4001 84.4805 68.8242 84.4805 66.8801C84.4805 64.9361 86.0564 63.3601 88.0004 63.3601Z" fill="#18212F"/>
<path d="M116.16 63.36C118.104 63.36 119.68 64.9359 119.68 66.8799C119.68 68.8241 118.104 70.3999 116.16 70.3999C114.216 70.3999 112.64 68.8241 112.64 66.8799C112.64 64.9359 114.216 63.36 116.16 63.36Z" fill="#18212F"/>
<path d="M123.201 63.36C125.145 63.36 126.721 64.936 126.721 66.88C126.721 68.8241 125.145 70.4 123.201 70.4C121.257 70.4 119.681 68.8241 119.681 66.88C119.681 64.936 121.257 63.36 123.201 63.36Z" fill="#18212F"/>
<path d="M137.28 63.36C139.224 63.36 140.8 64.9359 140.8 66.8799C140.8 68.8241 139.224 70.3999 137.28 70.3999C135.336 70.3999 133.76 68.8241 133.76 66.8799C133.76 64.9359 135.336 63.36 137.28 63.36Z" fill="#18212F"/>
<path d="M165.439 63.36C167.383 63.36 168.959 64.936 168.959 66.88C168.959 68.8241 167.383 70.4 165.439 70.4C163.495 70.4 161.919 68.8241 161.919 66.88C161.919 64.936 163.495 63.36 165.439 63.36Z" fill="#18212F"/>
<path d="M10.56 70.4C12.5041 70.4 14.08 71.976 14.08 73.92C14.08 75.8641 12.5041 77.44 10.56 77.44C8.616 77.44 7.04004 75.8641 7.04004 73.92C7.04004 71.976 8.616 70.4 10.56 70.4Z" fill="#18212F"/>
<path d="M31.6801 70.3999C33.6242 70.3999 35.2001 71.9759 35.2001 73.9199C35.2001 75.864 33.6242 77.4399 31.6801 77.4399C29.7361 77.4399 28.1602 75.864 28.1602 73.9199C28.1602 71.9759 29.7361 70.3999 31.6801 70.3999Z" fill="#18212F"/>
<path d="M38.7202 70.4C40.6643 70.4 42.2401 71.976 42.2401 73.92C42.2401 75.8641 40.6643 77.44 38.7202 77.44C36.7762 77.44 35.2002 75.8641 35.2002 73.92C35.2002 71.976 36.7762 70.4 38.7202 70.4Z" fill="#18212F"/>
<path d="M45.7602 70.4C47.7043 70.4 49.2802 71.976 49.2802 73.92C49.2802 75.8641 47.7043 77.44 45.7602 77.44C43.8162 77.44 42.2402 75.8641 42.2402 73.92C42.2402 71.976 43.8162 70.4 45.7602 70.4Z" fill="#18212F"/>
<path d="M66.8813 70.4C68.8254 70.4 70.4013 71.976 70.4013 73.92C70.4013 75.8641 68.8254 77.44 66.8813 77.44C64.9373 77.44 63.3613 75.8641 63.3613 73.92C63.3613 71.976 64.9373 70.4 66.8813 70.4Z" fill="#18212F"/>
<path d="M73.9213 70.4003C75.8654 70.4003 77.4413 71.9762 77.4413 73.9203C77.4413 75.8644 75.8654 77.4403 73.9213 77.4403C71.9773 77.4403 70.4014 75.8644 70.4014 73.9203C70.4014 71.9762 71.9773 70.4003 73.9213 70.4003Z" fill="#18212F"/>
<path d="M80.9594 70.3999C82.9035 70.3999 84.4794 71.9759 84.4794 73.9199C84.4794 75.864 82.9035 77.4399 80.9594 77.4399C79.0154 77.4399 77.4395 75.864 77.4395 73.9199C77.4395 71.9759 79.0154 70.3999 80.9594 70.3999Z" fill="#18212F"/>
<path d="M102.081 70.3999C104.025 70.3999 105.6 71.9759 105.6 73.9199C105.6 75.864 104.025 77.4399 102.081 77.4399C100.137 77.4399 98.5605 75.864 98.5605 73.9199C98.5605 71.9759 100.137 70.3999 102.081 70.3999Z" fill="#18212F"/>
<path d="M109.12 70.4002C111.064 70.4002 112.64 71.9762 112.64 73.9202C112.64 75.8644 111.064 77.4402 109.12 77.4402C107.176 77.4402 105.6 75.8644 105.6 73.9202C105.6 71.9762 107.176 70.4002 109.12 70.4002Z" fill="#18212F"/>
<path d="M123.201 70.4C125.145 70.4 126.721 71.976 126.721 73.92C126.721 75.8641 125.145 77.44 123.201 77.44C121.257 77.44 119.681 75.8641 119.681 73.92C119.681 71.976 121.257 70.4 123.201 70.4Z" fill="#18212F"/>
<path d="M130.238 70.4002C132.182 70.4002 133.758 71.9762 133.758 73.9202C133.758 75.8644 132.182 77.4402 130.238 77.4402C128.294 77.4402 126.718 75.8644 126.718 73.9202C126.718 71.9762 128.294 70.4002 130.238 70.4002Z" fill="#18212F"/>
<path d="M137.28 70.4001C139.224 70.4001 140.8 71.9761 140.8 73.9201C140.8 75.8643 139.224 77.4401 137.28 77.4401C135.336 77.4401 133.76 75.8643 133.76 73.9201C133.76 71.9761 135.336 70.4001 137.28 70.4001Z" fill="#18212F"/>
<path d="M151.361 70.3999C153.305 70.3999 154.881 71.9759 154.881 73.9199C154.881 75.864 153.305 77.4399 151.361 77.4399C149.417 77.4399 147.841 75.864 147.841 73.9199C147.841 71.9759 149.417 70.3999 151.361 70.3999Z" fill="#18212F"/>
<path d="M165.439 70.4C167.383 70.4 168.959 71.976 168.959 73.92C168.959 75.8641 167.383 77.44 165.439 77.44C163.495 77.44 161.919 75.8641 161.919 73.92C161.919 71.976 163.495 70.4 165.439 70.4Z" fill="#18212F"/>
<path d="M172.48 70.4C174.424 70.4 176 71.976 176 73.92C176 75.8641 174.424 77.44 172.48 77.44C170.536 77.44 168.96 75.8641 168.96 73.92C168.96 71.976 170.536 70.4 172.48 70.4Z" fill="#18212F"/>
<path d="M10.56 77.44C12.5041 77.44 14.08 79.016 14.08 80.96C14.08 82.9041 12.5041 84.48 10.56 84.48C8.616 84.48 7.04004 82.9041 7.04004 80.96C7.04004 79.016 8.616 77.44 10.56 77.44Z" fill="#18212F"/>
<path d="M17.601 77.4401C19.5451 77.4401 21.121 79.016 21.121 80.9601C21.121 82.9042 19.5451 84.4801 17.601 84.4801C15.657 84.4801 14.0811 82.9042 14.0811 80.9601C14.0811 79.016 15.657 77.4401 17.601 77.4401Z" fill="#18212F"/>
<path d="M38.7202 77.44C40.6643 77.44 42.2401 79.016 42.2401 80.96C42.2401 82.9041 40.6643 84.48 38.7202 84.48C36.7762 84.48 35.2002 82.9041 35.2002 80.96C35.2002 79.016 36.7762 77.44 38.7202 77.44Z" fill="#18212F"/>
<path d="M52.7993 77.4399C54.7434 77.4399 56.3192 79.0159 56.3192 80.9599C56.3192 82.9041 54.7434 84.4799 52.7993 84.4799C50.8553 84.4799 49.2793 82.9041 49.2793 80.9599C49.2793 79.0159 50.8553 77.4399 52.7993 77.4399Z" fill="#18212F"/>
<path d="M59.8393 77.4401C61.7834 77.4401 63.3593 79.016 63.3593 80.9601C63.3593 82.9042 61.7834 84.4801 59.8393 84.4801C57.8953 84.4801 56.3193 82.9042 56.3193 80.9601C56.3193 79.016 57.8953 77.4401 59.8393 77.4401Z" fill="#18212F"/>
<path d="M66.8813 77.4401C68.8254 77.4401 70.4013 79.016 70.4013 80.9601C70.4013 82.9042 68.8254 84.4801 66.8813 84.4801C64.9373 84.4801 63.3613 82.9042 63.3613 80.9601C63.3613 79.016 64.9373 77.4401 66.8813 77.4401Z" fill="#18212F"/>
<path d="M73.9213 77.4399C75.8654 77.4399 77.4413 79.0159 77.4413 80.9599C77.4413 82.9041 75.8654 84.4799 73.9213 84.4799C71.9773 84.4799 70.4014 82.9041 70.4014 80.9599C70.4014 79.0159 71.9773 77.4399 73.9213 77.4399Z" fill="#18212F"/>
<path d="M88.0004 77.4399C89.9445 77.4399 91.5204 79.0159 91.5204 80.9599C91.5204 82.9041 89.9445 84.4799 88.0004 84.4799C86.0564 84.4799 84.4805 82.9041 84.4805 80.9599C84.4805 79.0159 86.0564 77.4399 88.0004 77.4399Z" fill="#18212F"/>
<path d="M102.081 77.4399C104.025 77.4399 105.6 79.0159 105.6 80.9599C105.6 82.9041 104.025 84.4799 102.081 84.4799C100.137 84.4799 98.5605 82.9041 98.5605 80.9599C98.5605 79.0159 100.137 77.4399 102.081 77.4399Z" fill="#18212F"/>
<path d="M109.12 77.4399C111.064 77.4399 112.64 79.0159 112.64 80.9599C112.64 82.9041 111.064 84.4799 109.12 84.4799C107.176 84.4799 105.6 82.9041 105.6 80.9599C105.6 79.0159 107.176 77.4399 109.12 77.4399Z" fill="#18212F"/>
<path d="M116.16 77.4401C118.104 77.4401 119.68 79.016 119.68 80.9601C119.68 82.9042 118.104 84.4801 116.16 84.4801C114.216 84.4801 112.64 82.9042 112.64 80.9601C112.64 79.016 114.216 77.4401 116.16 77.4401Z" fill="#18212F"/>
<path d="M123.201 77.44C125.145 77.44 126.721 79.016 126.721 80.96C126.721 82.9041 125.145 84.48 123.201 84.48C121.257 84.48 119.681 82.9041 119.681 80.96C119.681 79.016 121.257 77.44 123.201 77.44Z" fill="#18212F"/>
<path d="M130.238 77.4399C132.182 77.4399 133.758 79.0159 133.758 80.9599C133.758 82.9041 132.182 84.4799 130.238 84.4799C128.294 84.4799 126.718 82.9041 126.718 80.9599C126.718 79.0159 128.294 77.4399 130.238 77.4399Z" fill="#18212F"/>
<path d="M137.28 77.4401C139.224 77.4401 140.8 79.016 140.8 80.9601C140.8 82.9042 139.224 84.4801 137.28 84.4801C135.336 84.4801 133.76 82.9042 133.76 80.9601C133.76 79.016 135.336 77.4401 137.28 77.4401Z" fill="#18212F"/>
<path d="M172.48 77.4401C174.424 77.4401 176 79.016 176 80.9601C176 82.9042 174.424 84.4801 172.48 84.4801C170.536 84.4801 168.96 82.9042 168.96 80.9601C168.96 79.016 170.536 77.4401 172.48 77.4401Z" fill="#18212F"/>
<path d="M10.56 84.48C12.5041 84.48 14.08 86.056 14.08 88C14.08 89.9442 12.5041 91.52 10.56 91.52C8.616 91.52 7.04004 89.9442 7.04004 88C7.04004 86.056 8.616 84.48 10.56 84.48Z" fill="#18212F"/>
<path d="M24.6411 84.48C26.5852 84.48 28.161 86.056 28.161 88C28.161 89.9441 26.5852 91.52 24.6411 91.52C22.6971 91.52 21.1211 89.9441 21.1211 88C21.1211 86.056 22.6971 84.48 24.6411 84.48Z" fill="#18212F"/>
<path d="M31.6801 84.48C33.6242 84.48 35.2001 86.056 35.2001 88C35.2001 89.9441 33.6242 91.52 31.6801 91.52C29.7361 91.52 28.1602 89.9441 28.1602 88C28.1602 86.056 29.7361 84.48 31.6801 84.48Z" fill="#18212F"/>
<path d="M45.7602 84.48C47.7043 84.48 49.2802 86.056 49.2802 88C49.2802 89.9442 47.7043 91.52 45.7602 91.52C43.8162 91.52 42.2402 89.9442 42.2402 88C42.2402 86.056 43.8162 84.48 45.7602 84.48Z" fill="#18212F"/>
<path d="M52.7993 84.48C54.7434 84.48 56.3192 86.056 56.3192 88C56.3192 89.9441 54.7434 91.52 52.7993 91.52C50.8553 91.52 49.2793 89.9441 49.2793 88C49.2793 86.056 50.8553 84.48 52.7993 84.48Z" fill="#18212F"/>
<path d="M66.8813 84.48C68.8254 84.48 70.4013 86.056 70.4013 88C70.4013 89.9441 68.8254 91.52 66.8813 91.52C64.9373 91.52 63.3613 89.9441 63.3613 88C63.3613 86.056 64.9373 84.48 66.8813 84.48Z" fill="#18212F"/>
<path d="M95.0395 84.48C96.9836 84.48 98.5595 86.056 98.5595 88C98.5595 89.9441 96.9836 91.52 95.0395 91.52C93.0955 91.52 91.5195 89.9441 91.5195 88C91.5195 86.056 93.0955 84.48 95.0395 84.48Z" fill="#18212F"/>
<path d="M123.201 84.48C125.145 84.48 126.721 86.056 126.721 88C126.721 89.9442 125.145 91.52 123.201 91.52C121.257 91.52 119.681 89.9442 119.681 88C119.681 86.056 121.257 84.48 123.201 84.48Z" fill="#18212F"/>
<path d="M130.238 84.48C132.182 84.48 133.758 86.056 133.758 88C133.758 89.9441 132.182 91.52 130.238 91.52C128.294 91.52 126.718 89.9441 126.718 88C126.718 86.056 128.294 84.48 130.238 84.48Z" fill="#18212F"/>
<path d="M144.319 84.48C146.263 84.48 147.839 86.056 147.839 88C147.839 89.9441 146.263 91.52 144.319 91.52C142.375 91.52 140.799 89.9441 140.799 88C140.799 86.056 142.375 84.48 144.319 84.48Z" fill="#18212F"/>
<path d="M158.399 84.48C160.343 84.48 161.919 86.056 161.919 88C161.919 89.9441 160.343 91.52 158.399 91.52C156.455 91.52 154.879 89.9441 154.879 88C154.879 86.056 156.455 84.48 158.399 84.48Z" fill="#18212F"/>
<path d="M165.439 84.48C167.383 84.48 168.959 86.056 168.959 88C168.959 89.9442 167.383 91.52 165.439 91.52C163.495 91.52 161.919 89.9442 161.919 88C161.919 86.056 163.495 84.48 165.439 84.48Z" fill="#18212F"/>
<path d="M172.48 84.48C174.424 84.48 176 86.056 176 88C176 89.9441 174.424 91.52 172.48 91.52C170.536 91.52 168.96 89.9441 168.96 88C168.96 86.056 170.536 84.48 172.48 84.48Z" fill="#18212F"/>
<path d="M3.51997 91.5201C5.46408 91.5201 7.03994 93.096 7.03994 95.04C7.03994 96.9842 5.46408 98.56 3.51997 98.56C1.57596 98.56 0 96.9842 0 95.04C0 93.096 1.57596 91.5201 3.51997 91.5201Z" fill="#18212F"/>
<path d="M10.56 91.5201C12.5041 91.5201 14.08 93.096 14.08 95.04C14.08 96.9842 12.5041 98.56 10.56 98.56C8.616 98.56 7.04004 96.9842 7.04004 95.04C7.04004 93.096 8.616 91.5201 10.56 91.5201Z" fill="#18212F"/>
<path d="M17.601 91.5201C19.5451 91.5201 21.121 93.096 21.121 95.04C21.121 96.9842 19.5451 98.56 17.601 98.56C15.657 98.56 14.0811 96.9842 14.0811 95.04C14.0811 93.096 15.657 91.5201 17.601 91.5201Z" fill="#18212F"/>
<path d="M24.6411 91.5201C26.5852 91.5201 28.161 93.096 28.161 95.04C28.161 96.9842 26.5852 98.56 24.6411 98.56C22.6971 98.56 21.1211 96.9842 21.1211 95.04C21.1211 93.096 22.6971 91.5201 24.6411 91.5201Z" fill="#18212F"/>
<path d="M31.6801 91.5201C33.6242 91.5201 35.2001 93.096 35.2001 95.04C35.2001 96.9842 33.6242 98.56 31.6801 98.56C29.7361 98.56 28.1602 96.9842 28.1602 95.04C28.1602 93.096 29.7361 91.5201 31.6801 91.5201Z" fill="#18212F"/>
<path d="M52.7993 91.5201C54.7434 91.5201 56.3192 93.096 56.3192 95.04C56.3192 96.9842 54.7434 98.56 52.7993 98.56C50.8553 98.56 49.2793 96.9842 49.2793 95.04C49.2793 93.096 50.8553 91.5201 52.7993 91.5201Z" fill="#18212F"/>
<path d="M59.8393 91.5201C61.7834 91.5201 63.3593 93.096 63.3593 95.04C63.3593 96.9842 61.7834 98.56 59.8393 98.56C57.8953 98.56 56.3193 96.9842 56.3193 95.04C56.3193 93.096 57.8953 91.5201 59.8393 91.5201Z" fill="#18212F"/>
<path d="M73.9213 91.5201C75.8654 91.5201 77.4413 93.096 77.4413 95.04C77.4413 96.9842 75.8654 98.56 73.9213 98.56C71.9773 98.56 70.4014 96.9842 70.4014 95.04C70.4014 93.096 71.9773 91.5201 73.9213 91.5201Z" fill="#18212F"/>
<path d="M88.0004 91.5201C89.9445 91.5201 91.5204 93.096 91.5204 95.04C91.5204 96.9842 89.9445 98.56 88.0004 98.56C86.0564 98.56 84.4805 96.9842 84.4805 95.04C84.4805 93.096 86.0564 91.5201 88.0004 91.5201Z" fill="#18212F"/>
<path d="M95.0395 91.5201C96.9836 91.5201 98.5595 93.096 98.5595 95.04C98.5595 96.9842 96.9836 98.56 95.0395 98.56C93.0955 98.56 91.5195 96.9842 91.5195 95.04C91.5195 93.096 93.0955 91.5201 95.0395 91.5201Z" fill="#18212F"/>
<path d="M116.16 91.5201C118.104 91.5201 119.68 93.096 119.68 95.04C119.68 96.9842 118.104 98.56 116.16 98.56C114.216 98.56 112.64 96.9842 112.64 95.04C112.64 93.096 114.216 91.5201 116.16 91.5201Z" fill="#18212F"/>
<path d="M123.201 91.5201C125.145 91.5201 126.721 93.096 126.721 95.04C126.721 96.9842 125.145 98.56 123.201 98.56C121.257 98.56 119.681 96.9842 119.681 95.04C119.681 93.096 121.257 91.5201 123.201 91.5201Z" fill="#18212F"/>
<path d="M137.28 91.5201C139.224 91.5201 140.8 93.096 140.8 95.04C140.8 96.9842 139.224 98.56 137.28 98.56C135.336 98.56 133.76 96.9842 133.76 95.04C133.76 93.096 135.336 91.5201 137.28 91.5201Z" fill="#18212F"/>
<path d="M151.361 91.5201C153.305 91.5201 154.881 93.096 154.881 95.04C154.881 96.9842 153.305 98.56 151.361 98.56C149.417 98.56 147.841 96.9842 147.841 95.04C147.841 93.096 149.417 91.5201 151.361 91.5201Z" fill="#18212F"/>
<path d="M165.439 91.5201C167.383 91.5201 168.959 93.096 168.959 95.04C168.959 96.9842 167.383 98.56 165.439 98.56C163.495 98.56 161.919 96.9842 161.919 95.04C161.919 93.096 163.495 91.5201 165.439 91.5201Z" fill="#18212F"/>
<path d="M3.51997 98.5601C5.46408 98.5601 7.03994 100.136 7.03994 102.08C7.03994 104.024 5.46408 105.6 3.51997 105.6C1.57596 105.6 0 104.024 0 102.08C0 100.136 1.57596 98.5601 3.51997 98.5601Z" fill="#18212F"/>
<path d="M17.601 98.56C19.5451 98.56 21.121 100.136 21.121 102.08C21.121 104.024 19.5451 105.6 17.601 105.6C15.657 105.6 14.0811 104.024 14.0811 102.08C14.0811 100.136 15.657 98.56 17.601 98.56Z" fill="#18212F"/>
<path d="M38.7202 98.56C40.6643 98.56 42.2401 100.136 42.2401 102.08C42.2401 104.024 40.6643 105.6 38.7202 105.6C36.7762 105.6 35.2002 104.024 35.2002 102.08C35.2002 100.136 36.7762 98.56 38.7202 98.56Z" fill="#18212F"/>
<path d="M45.7602 98.56C47.7043 98.56 49.2802 100.136 49.2802 102.08C49.2802 104.024 47.7043 105.6 45.7602 105.6C43.8162 105.6 42.2402 104.024 42.2402 102.08C42.2402 100.136 43.8162 98.56 45.7602 98.56Z" fill="#18212F"/>
<path d="M95.0395 98.5601C96.9836 98.5601 98.5595 100.136 98.5595 102.08C98.5595 104.024 96.9836 105.6 95.0395 105.6C93.0955 105.6 91.5195 104.024 91.5195 102.08C91.5195 100.136 93.0955 98.5601 95.0395 98.5601Z" fill="#18212F"/>
<path d="M102.081 98.5601C104.025 98.5601 105.6 100.136 105.6 102.08C105.6 104.024 104.025 105.6 102.081 105.6C100.137 105.6 98.5605 104.024 98.5605 102.08C98.5605 100.136 100.137 98.5601 102.081 98.5601Z" fill="#18212F"/>
<path d="M109.12 98.5601C111.064 98.5601 112.64 100.136 112.64 102.08C112.64 104.024 111.064 105.6 109.12 105.6C107.176 105.6 105.6 104.024 105.6 102.08C105.6 100.136 107.176 98.5601 109.12 98.5601Z" fill="#18212F"/>
<path d="M130.238 98.5601C132.182 98.5601 133.758 100.136 133.758 102.08C133.758 104.024 132.182 105.6 130.238 105.6C128.294 105.6 126.718 104.024 126.718 102.08C126.718 100.136 128.294 98.5601 130.238 98.5601Z" fill="#18212F"/>
<path d="M137.28 98.56C139.224 98.56 140.8 100.136 140.8 102.08C140.8 104.024 139.224 105.6 137.28 105.6C135.336 105.6 133.76 104.024 133.76 102.08C133.76 100.136 135.336 98.56 137.28 98.56Z" fill="#18212F"/>
<path d="M144.319 98.56C146.263 98.56 147.839 100.136 147.839 102.08C147.839 104.024 146.263 105.6 144.319 105.6C142.375 105.6 140.799 104.024 140.799 102.08C140.799 100.136 142.375 98.56 144.319 98.56Z" fill="#18212F"/>
<path d="M151.361 98.5601C153.305 98.5601 154.881 100.136 154.881 102.08C154.881 104.024 153.305 105.6 151.361 105.6C149.417 105.6 147.841 104.024 147.841 102.08C147.841 100.136 149.417 98.5601 151.361 98.5601Z" fill="#18212F"/>
<path d="M165.439 98.56C167.383 98.56 168.959 100.136 168.959 102.08C168.959 104.024 167.383 105.6 165.439 105.6C163.495 105.6 161.919 104.024 161.919 102.08C161.919 100.136 163.495 98.56 165.439 98.56Z" fill="#18212F"/>
<path d="M172.48 98.56C174.424 98.56 176 100.136 176 102.08C176 104.024 174.424 105.6 172.48 105.6C170.536 105.6 168.96 104.024 168.96 102.08C168.96 100.136 170.536 98.56 172.48 98.56Z" fill="#18212F"/>
<path d="M3.51997 105.6C5.46408 105.6 7.03994 107.176 7.03994 109.12C7.03994 111.064 5.46408 112.64 3.51997 112.64C1.57596 112.64 0 111.064 0 109.12C0 107.176 1.57596 105.6 3.51997 105.6Z" fill="#18212F"/>
<path d="M38.7202 105.6C40.6643 105.6 42.2401 107.176 42.2401 109.12C42.2401 111.064 40.6643 112.64 38.7202 112.64C36.7762 112.64 35.2002 111.064 35.2002 109.12C35.2002 107.176 36.7762 105.6 38.7202 105.6Z" fill="#18212F"/>
<path d="M52.7993 105.6C54.7434 105.6 56.3192 107.176 56.3192 109.12C56.3192 111.064 54.7434 112.64 52.7993 112.64C50.8553 112.64 49.2793 111.064 49.2793 109.12C49.2793 107.176 50.8553 105.6 52.7993 105.6Z" fill="#18212F"/>
<path d="M73.9213 105.6C75.8654 105.6 77.4413 107.176 77.4413 109.12C77.4413 111.064 75.8654 112.64 73.9213 112.64C71.9773 112.64 70.4014 111.064 70.4014 109.12C70.4014 107.176 71.9773 105.6 73.9213 105.6Z" fill="#18212F"/>
<path d="M88.0004 105.6C89.9445 105.6 91.5204 107.176 91.5204 109.12C91.5204 111.064 89.9445 112.64 88.0004 112.64C86.0564 112.64 84.4805 111.064 84.4805 109.12C84.4805 107.176 86.0564 105.6 88.0004 105.6Z" fill="#18212F"/>
<path d="M109.12 105.6C111.064 105.6 112.64 107.176 112.64 109.12C112.64 111.064 111.064 112.64 109.12 112.64C107.176 112.64 105.6 111.064 105.6 109.12C105.6 107.176 107.176 105.6 109.12 105.6Z" fill="#18212F"/>
<path d="M116.16 105.6C118.104 105.6 119.68 107.176 119.68 109.12C119.68 111.064 118.104 112.64 116.16 112.64C114.216 112.64 112.64 111.064 112.64 109.12C112.64 107.176 114.216 105.6 116.16 105.6Z" fill="#18212F"/>
<path d="M137.28 105.6C139.224 105.6 140.8 107.176 140.8 109.12C140.8 111.064 139.224 112.64 137.28 112.64C135.336 112.64 133.76 111.064 133.76 109.12C133.76 107.176 135.336 105.6 137.28 105.6Z" fill="#18212F"/>
<path d="M144.319 105.6C146.263 105.6 147.839 107.176 147.839 109.12C147.839 111.064 146.263 112.64 144.319 112.64C142.375 112.64 140.799 111.064 140.799 109.12C140.799 107.176 142.375 105.6 144.319 105.6Z" fill="#18212F"/>
<path d="M172.48 105.6C174.424 105.6 176 107.176 176 109.12C176 111.064 174.424 112.64 172.48 112.64C170.536 112.64 168.96 111.064 168.96 109.12C168.96 107.176 170.536 105.6 172.48 105.6Z" fill="#18212F"/>
<path d="M3.51997 112.64C5.46408 112.64 7.03994 114.216 7.03994 116.16C7.03994 118.104 5.46408 119.68 3.51997 119.68C1.57596 119.68 0 118.104 0 116.16C0 114.216 1.57596 112.64 3.51997 112.64Z" fill="#18212F"/>
<path d="M31.6801 112.64C33.6242 112.64 35.2001 114.216 35.2001 116.16C35.2001 118.104 33.6242 119.68 31.6801 119.68C29.7361 119.68 28.1602 118.104 28.1602 116.16C28.1602 114.216 29.7361 112.64 31.6801 112.64Z" fill="#18212F"/>
<path d="M45.7602 112.64C47.7043 112.64 49.2802 114.216 49.2802 116.16C49.2802 118.104 47.7043 119.68 45.7602 119.68C43.8162 119.68 42.2402 118.104 42.2402 116.16C42.2402 114.216 43.8162 112.64 45.7602 112.64Z" fill="#18212F"/>
<path d="M52.7993 112.64C54.7434 112.64 56.3192 114.216 56.3192 116.16C56.3192 118.104 54.7434 119.68 52.7993 119.68C50.8553 119.68 49.2793 118.104 49.2793 116.16C49.2793 114.216 50.8553 112.64 52.7993 112.64Z" fill="#18212F"/>
<path d="M59.8393 112.64C61.7834 112.64 63.3593 114.216 63.3593 116.16C63.3593 118.104 61.7834 119.68 59.8393 119.68C57.8953 119.68 56.3193 118.104 56.3193 116.16C56.3193 114.216 57.8953 112.64 59.8393 112.64Z" fill="#18212F"/>
<path d="M66.8813 112.64C68.8254 112.64 70.4013 114.216 70.4013 116.16C70.4013 118.104 68.8254 119.68 66.8813 119.68C64.9373 119.68 63.3613 118.104 63.3613 116.16C63.3613 114.216 64.9373 112.64 66.8813 112.64Z" fill="#18212F"/>
<path d="M73.9213 112.64C75.8654 112.64 77.4413 114.216 77.4413 116.16C77.4413 118.104 75.8654 119.68 73.9213 119.68C71.9773 119.68 70.4014 118.104 70.4014 116.16C70.4014 114.216 71.9773 112.64 73.9213 112.64Z" fill="#18212F"/>
<path d="M88.0004 112.64C89.9445 112.64 91.5204 114.216 91.5204 116.16C91.5204 118.104 89.9445 119.68 88.0004 119.68C86.0564 119.68 84.4805 118.104 84.4805 116.16C84.4805 114.216 86.0564 112.64 88.0004 112.64Z" fill="#18212F"/>
<path d="M95.0395 112.64C96.9836 112.64 98.5595 114.216 98.5595 116.16C98.5595 118.104 96.9836 119.68 95.0395 119.68C93.0955 119.68 91.5195 118.104 91.5195 116.16C91.5195 114.216 93.0955 112.64 95.0395 112.64Z" fill="#18212F"/>
<path d="M102.081 112.64C104.025 112.64 105.6 114.216 105.6 116.16C105.6 118.104 104.025 119.68 102.081 119.68C100.137 119.68 98.5605 118.104 98.5605 116.16C98.5605 114.216 100.137 112.64 102.081 112.64Z" fill="#18212F"/>
<path d="M116.16 112.64C118.104 112.64 119.68 114.216 119.68 116.16C119.68 118.104 118.104 119.68 116.16 119.68C114.216 119.68 112.64 118.104 112.64 116.16C112.64 114.216 114.216 112.64 116.16 112.64Z" fill="#18212F"/>
<path d="M123.201 112.64C125.145 112.64 126.721 114.216 126.721 116.16C126.721 118.104 125.145 119.68 123.201 119.68C121.257 119.68 119.681 118.104 119.681 116.16C119.681 114.216 121.257 112.64 123.201 112.64Z" fill="#18212F"/>
<path d="M130.238 112.64C132.182 112.64 133.758 114.216 133.758 116.16C133.758 118.104 132.182 119.68 130.238 119.68C128.294 119.68 126.718 118.104 126.718 116.16C126.718 114.216 128.294 112.64 130.238 112.64Z" fill="#18212F"/>
<path d="M137.28 112.64C139.224 112.64 140.8 114.216 140.8 116.16C140.8 118.104 139.224 119.68 137.28 119.68C135.336 119.68 133.76 118.104 133.76 116.16C133.76 114.216 135.336 112.64 137.28 112.64Z" fill="#18212F"/>
<path d="M144.319 112.64C146.263 112.64 147.839 114.216 147.839 116.16C147.839 118.104 146.263 119.68 144.319 119.68C142.375 119.68 140.799 118.104 140.799 116.16C140.799 114.216 142.375 112.64 144.319 112.64Z" fill="#18212F"/>
<path d="M158.399 112.64C160.343 112.64 161.919 114.216 161.919 116.16C161.919 118.104 160.343 119.68 158.399 119.68C156.455 119.68 154.879 118.104 154.879 116.16C154.879 114.216 156.455 112.64 158.399 112.64Z" fill="#18212F"/>
<path d="M59.8393 119.68C61.7834 119.68 63.3593 121.256 63.3593 123.2C63.3593 125.144 61.7834 126.72 59.8393 126.72C57.8953 126.72 56.3193 125.144 56.3193 123.2C56.3193 121.256 57.8953 119.68 59.8393 119.68Z" fill="#18212F"/>
<path d="M66.8813 119.68C68.8254 119.68 70.4013 121.256 70.4013 123.2C70.4013 125.144 68.8254 126.72 66.8813 126.72C64.9373 126.72 63.3613 125.144 63.3613 123.2C63.3613 121.256 64.9373 119.68 66.8813 119.68Z" fill="#18212F"/>
<path d="M73.9213 119.68C75.8654 119.68 77.4413 121.256 77.4413 123.2C77.4413 125.144 75.8654 126.72 73.9213 126.72C71.9773 126.72 70.4014 125.144 70.4014 123.2C70.4014 121.256 71.9773 119.68 73.9213 119.68Z" fill="#18212F"/>
<path d="M102.081 119.68C104.025 119.68 105.6 121.256 105.6 123.2C105.6 125.144 104.025 126.72 102.081 126.72C100.137 126.72 98.5605 125.144 98.5605 123.2C98.5605 121.256 100.137 119.68 102.081 119.68Z" fill="#18212F"/>
<path d="M109.12 119.68C111.064 119.68 112.64 121.256 112.64 123.2C112.64 125.144 111.064 126.72 109.12 126.72C107.176 126.72 105.6 125.144 105.6 123.2C105.6 121.256 107.176 119.68 109.12 119.68Z" fill="#18212F"/>
<path d="M116.16 119.68C118.104 119.68 119.68 121.256 119.68 123.2C119.68 125.144 118.104 126.72 116.16 126.72C114.216 126.72 112.64 125.144 112.64 123.2C112.64 121.256 114.216 119.68 116.16 119.68Z" fill="#18212F"/>
<path d="M144.319 119.68C146.263 119.68 147.839 121.256 147.839 123.2C147.839 125.144 146.263 126.72 144.319 126.72C142.375 126.72 140.799 125.144 140.799 123.2C140.799 121.256 142.375 119.68 144.319 119.68Z" fill="#18212F"/>
<path d="M151.361 119.68C153.305 119.68 154.881 121.256 154.881 123.2C154.881 125.144 153.305 126.72 151.361 126.72C149.417 126.72 147.841 125.144 147.841 123.2C147.841 121.256 149.417 119.68 151.361 119.68Z" fill="#18212F"/>
<path d="M66.8813 126.72C68.8254 126.72 70.4013 128.296 70.4013 130.24C70.4013 132.184 68.8254 133.76 66.8813 133.76C64.9373 133.76 63.3613 132.184 63.3613 130.24C63.3613 128.296 64.9373 126.72 66.8813 126.72Z" fill="#18212F"/>
<path d="M73.9213 126.72C75.8654 126.72 77.4413 128.296 77.4413 130.24C77.4413 132.184 75.8654 133.76 73.9213 133.76C71.9773 133.76 70.4014 132.184 70.4014 130.24C70.4014 128.296 71.9773 126.72 73.9213 126.72Z" fill="#18212F"/>
<path d="M80.9594 126.72C82.9035 126.72 84.4794 128.296 84.4794 130.24C84.4794 132.184 82.9035 133.76 80.9594 133.76C79.0154 133.76 77.4395 132.184 77.4395 130.24C77.4395 128.296 79.0154 126.72 80.9594 126.72Z" fill="#18212F"/>
<path d="M88.0004 126.72C89.9445 126.72 91.5204 128.296 91.5204 130.24C91.5204 132.184 89.9445 133.76 88.0004 133.76C86.0564 133.76 84.4805 132.184 84.4805 130.24C84.4805 128.296 86.0564 126.72 88.0004 126.72Z" fill="#18212F"/>
<path d="M95.0395 126.72C96.9836 126.72 98.5595 128.296 98.5595 130.24C98.5595 132.184 96.9836 133.76 95.0395 133.76C93.0955 133.76 91.5195 132.184 91.5195 130.24C91.5195 128.296 93.0955 126.72 95.0395 126.72Z" fill="#18212F"/>
<path d="M116.16 126.72C118.104 126.72 119.68 128.296 119.68 130.24C119.68 132.184 118.104 133.76 116.16 133.76C114.216 133.76 112.64 132.184 112.64 130.24C112.64 128.296 114.216 126.72 116.16 126.72Z" fill="#18212F"/>
<path d="M130.238 126.72C132.182 126.72 133.758 128.296 133.758 130.24C133.758 132.184 132.182 133.76 130.238 133.76C128.294 133.76 126.718 132.184 126.718 130.24C126.718 128.296 128.294 126.72 130.238 126.72Z" fill="#18212F"/>
<path d="M144.319 126.72C146.263 126.72 147.839 128.296 147.839 130.24C147.839 132.184 146.263 133.76 144.319 133.76C142.375 133.76 140.799 132.184 140.799 130.24C140.799 128.296 142.375 126.72 144.319 126.72Z" fill="#18212F"/>
<path d="M158.399 126.72C160.343 126.72 161.919 128.296 161.919 130.24C161.919 132.184 160.343 133.76 158.399 133.76C156.455 133.76 154.879 132.184 154.879 130.24C154.879 128.296 156.455 126.72 158.399 126.72Z" fill="#18212F"/>
<path d="M165.439 126.72C167.383 126.72 168.959 128.296 168.959 130.24C168.959 132.184 167.383 133.76 165.439 133.76C163.495 133.76 161.919 132.184 161.919 130.24C161.919 128.296 163.495 126.72 165.439 126.72Z" fill="#18212F"/>
<path d="M172.48 126.72C174.424 126.72 176 128.296 176 130.24C176 132.184 174.424 133.76 172.48 133.76C170.536 133.76 168.96 132.184 168.96 130.24C168.96 128.296 170.536 126.72 172.48 126.72Z" fill="#18212F"/>
<path d="M59.8393 133.76C61.7834 133.76 63.3593 135.336 63.3593 137.28C63.3593 139.224 61.7834 140.8 59.8393 140.8C57.8953 140.8 56.3193 139.224 56.3193 137.28C56.3193 135.336 57.8953 133.76 59.8393 133.76Z" fill="#18212F"/>
<path d="M66.8813 133.76C68.8254 133.76 70.4013 135.336 70.4013 137.28C70.4013 139.224 68.8254 140.8 66.8813 140.8C64.9373 140.8 63.3613 139.224 63.3613 137.28C63.3613 135.336 64.9373 133.76 66.8813 133.76Z" fill="#18212F"/>
<path d="M80.9594 133.76C82.9035 133.76 84.4794 135.336 84.4794 137.28C84.4794 139.224 82.9035 140.8 80.9594 140.8C79.0154 140.8 77.4395 139.224 77.4395 137.28C77.4395 135.336 79.0154 133.76 80.9594 133.76Z" fill="#18212F"/>
<path d="M116.16 133.76C118.104 133.76 119.68 135.336 119.68 137.28C119.68 139.224 118.104 140.8 116.16 140.8C114.216 140.8 112.64 139.224 112.64 137.28C112.64 135.336 114.216 133.76 116.16 133.76Z" fill="#18212F"/>
<path d="M144.319 133.76C146.263 133.76 147.839 135.336 147.839 137.28C147.839 139.224 146.263 140.8 144.319 140.8C142.375 140.8 140.799 139.224 140.799 137.28C140.799 135.336 142.375 133.76 144.319 133.76Z" fill="#18212F"/>
<path d="M151.361 133.76C153.305 133.76 154.881 135.336 154.881 137.28C154.881 139.224 153.305 140.8 151.361 140.8C149.417 140.8 147.841 139.224 147.841 137.28C147.841 135.336 149.417 133.76 151.361 133.76Z" fill="#18212F"/>
<path d="M172.48 133.76C174.424 133.76 176 135.336 176 137.28C176 139.224 174.424 140.8 172.48 140.8C170.536 140.8 168.96 139.224 168.96 137.28C168.96 135.336 170.536 133.76 172.48 133.76Z" fill="#18212F"/>
<path d="M59.8393 140.8C61.7834 140.8 63.3593 142.376 63.3593 144.32C63.3593 146.264 61.7834 147.84 59.8393 147.84C57.8953 147.84 56.3193 146.264 56.3193 144.32C56.3193 142.376 57.8953 140.8 59.8393 140.8Z" fill="#18212F"/>
<path d="M80.9594 140.8C82.9035 140.8 84.4794 142.376 84.4794 144.32C84.4794 146.264 82.9035 147.84 80.9594 147.84C79.0154 147.84 77.4395 146.264 77.4395 144.32C77.4395 142.376 79.0154 140.8 80.9594 140.8Z" fill="#18212F"/>
<path d="M88.0004 140.8C89.9445 140.8 91.5204 142.376 91.5204 144.32C91.5204 146.264 89.9445 147.84 88.0004 147.84C86.0564 147.84 84.4805 146.264 84.4805 144.32C84.4805 142.376 86.0564 140.8 88.0004 140.8Z" fill="#18212F"/>
<path d="M95.0395 140.8C96.9836 140.8 98.5595 142.376 98.5595 144.32C98.5595 146.264 96.9836 147.84 95.0395 147.84C93.0955 147.84 91.5195 146.264 91.5195 144.32C91.5195 142.376 93.0955 140.8 95.0395 140.8Z" fill="#18212F"/>
<path d="M102.081 140.8C104.025 140.8 105.6 142.376 105.6 144.32C105.6 146.264 104.025 147.84 102.081 147.84C100.137 147.84 98.5605 146.264 98.5605 144.32C98.5605 142.376 100.137 140.8 102.081 140.8Z" fill="#18212F"/>
<path d="M109.12 140.8C111.064 140.8 112.64 142.376 112.64 144.32C112.64 146.264 111.064 147.84 109.12 147.84C107.176 147.84 105.6 146.264 105.6 144.32C105.6 142.376 107.176 140.8 109.12 140.8Z" fill="#18212F"/>
<path d="M116.16 140.8C118.104 140.8 119.68 142.376 119.68 144.32C119.68 146.264 118.104 147.84 116.16 147.84C114.216 147.84 112.64 146.264 112.64 144.32C112.64 142.376 114.216 140.8 116.16 140.8Z" fill="#18212F"/>
<path d="M123.201 140.8C125.145 140.8 126.721 142.376 126.721 144.32C126.721 146.264 125.145 147.84 123.201 147.84C121.257 147.84 119.681 146.264 119.681 144.32C119.681 142.376 121.257 140.8 123.201 140.8Z" fill="#18212F"/>
<path d="M130.238 140.8C132.182 140.8 133.758 142.376 133.758 144.32C133.758 146.264 132.182 147.84 130.238 147.84C128.294 147.84 126.718 146.264 126.718 144.32C126.718 142.376 128.294 140.8 130.238 140.8Z" fill="#18212F"/>
<path d="M137.28 140.8C139.224 140.8 140.8 142.376 140.8 144.32C140.8 146.264 139.224 147.84 137.28 147.84C135.336 147.84 133.76 146.264 133.76 144.32C133.76 142.376 135.336 140.8 137.28 140.8Z" fill="#18212F"/>
<path d="M144.319 140.8C146.263 140.8 147.839 142.376 147.839 144.32C147.839 146.264 146.263 147.84 144.319 147.84C142.375 147.84 140.799 146.264 140.799 144.32C140.799 142.376 142.375 140.8 144.319 140.8Z" fill="#18212F"/>
<path d="M158.399 140.8C160.343 140.8 161.919 142.376 161.919 144.32C161.919 146.264 160.343 147.84 158.399 147.84C156.455 147.84 154.879 146.264 154.879 144.32C154.879 142.376 156.455 140.8 158.399 140.8Z" fill="#18212F"/>
<path d="M59.8393 147.84C61.7834 147.84 63.3593 149.416 63.3593 151.36C63.3593 153.304 61.7834 154.88 59.8393 154.88C57.8953 154.88 56.3193 153.304 56.3193 151.36C56.3193 149.416 57.8953 147.84 59.8393 147.84Z" fill="#18212F"/>
<path d="M66.8813 147.84C68.8254 147.84 70.4013 149.416 70.4013 151.36C70.4013 153.304 68.8254 154.88 66.8813 154.88C64.9373 154.88 63.3613 153.304 63.3613 151.36C63.3613 149.416 64.9373 147.84 66.8813 147.84Z" fill="#18212F"/>
<path d="M88.0004 147.84C89.9445 147.84 91.5204 149.416 91.5204 151.36C91.5204 153.304 89.9445 154.88 88.0004 154.88C86.0564 154.88 84.4805 153.304 84.4805 151.36C84.4805 149.416 86.0564 147.84 88.0004 147.84Z" fill="#18212F"/>
<path d="M102.081 147.84C104.025 147.84 105.6 149.416 105.6 151.36C105.6 153.304 104.025 154.88 102.081 154.88C100.137 154.88 98.5605 153.304 98.5605 151.36C98.5605 149.416 100.137 147.84 102.081 147.84Z" fill="#18212F"/>
<path d="M123.201 147.84C125.145 147.84 126.721 149.416 126.721 151.36C126.721 153.304 125.145 154.88 123.201 154.88C121.257 154.88 119.681 153.304 119.681 151.36C119.681 149.416 121.257 147.84 123.201 147.84Z" fill="#18212F"/>
<path d="M130.238 147.84C132.182 147.84 133.758 149.416 133.758 151.36C133.758 153.304 132.182 154.88 130.238 154.88C128.294 154.88 126.718 153.304 126.718 151.36C126.718 149.416 128.294 147.84 130.238 147.84Z" fill="#18212F"/>
<path d="M144.319 147.84C146.263 147.84 147.839 149.416 147.839 151.36C147.839 153.304 146.263 154.88 144.319 154.88C142.375 154.88 140.799 153.304 140.799 151.36C140.799 149.416 142.375 147.84 144.319 147.84Z" fill="#18212F"/>
<path d="M151.361 147.84C153.305 147.84 154.881 149.416 154.881 151.36C154.881 153.304 153.305 154.88 151.361 154.88C149.417 154.88 147.841 153.304 147.841 151.36C147.841 149.416 149.417 147.84 151.361 147.84Z" fill="#18212F"/>
<path d="M158.399 147.84C160.343 147.84 161.919 149.416 161.919 151.36C161.919 153.304 160.343 154.88 158.399 154.88C156.455 154.88 154.879 153.304 154.879 151.36C154.879 149.416 156.455 147.84 158.399 147.84Z" fill="#18212F"/>
<path d="M165.439 147.84C167.383 147.84 168.959 149.416 168.959 151.36C168.959 153.304 167.383 154.88 165.439 154.88C163.495 154.88 161.919 153.304 161.919 151.36C161.919 149.416 163.495 147.84 165.439 147.84Z" fill="#18212F"/>
<path d="M172.48 147.84C174.424 147.84 176 149.416 176 151.36C176 153.304 174.424 154.88 172.48 154.88C170.536 154.88 168.96 153.304 168.96 151.36C168.96 149.416 170.536 147.84 172.48 147.84Z" fill="#18212F"/>
<path d="M59.8393 154.88C61.7834 154.88 63.3593 156.456 63.3593 158.4C63.3593 160.344 61.7834 161.92 59.8393 161.92C57.8953 161.92 56.3193 160.344 56.3193 158.4C56.3193 156.456 57.8953 154.88 59.8393 154.88Z" fill="#18212F"/>
<path d="M73.9213 154.88C75.8654 154.88 77.4413 156.456 77.4413 158.4C77.4413 160.344 75.8654 161.92 73.9213 161.92C71.9773 161.92 70.4014 160.344 70.4014 158.4C70.4014 156.456 71.9773 154.88 73.9213 154.88Z" fill="#18212F"/>
<path d="M102.081 154.88C104.025 154.88 105.6 156.456 105.6 158.4C105.6 160.344 104.025 161.92 102.081 161.92C100.137 161.92 98.5605 160.344 98.5605 158.4C98.5605 156.456 100.137 154.88 102.081 154.88Z" fill="#18212F"/>
<path d="M109.12 154.88C111.064 154.88 112.64 156.456 112.64 158.4C112.64 160.344 111.064 161.92 109.12 161.92C107.176 161.92 105.6 160.344 105.6 158.4C105.6 156.456 107.176 154.88 109.12 154.88Z" fill="#18212F"/>
<path d="M151.361 154.88C153.305 154.88 154.881 156.456 154.881 158.4C154.881 160.344 153.305 161.92 151.361 161.92C149.417 161.92 147.841 160.344 147.841 158.4C147.841 156.456 149.417 154.88 151.361 154.88Z" fill="#18212F"/>
<path d="M158.399 154.88C160.343 154.88 161.919 156.456 161.919 158.4C161.919 160.344 160.343 161.92 158.399 161.92C156.455 161.92 154.879 160.344 154.879 158.4C154.879 156.456 156.455 154.88 158.399 154.88Z" fill="#18212F"/>
<path d="M172.48 154.88C174.424 154.88 176 156.456 176 158.4C176 160.344 174.424 161.92 172.48 161.92C170.536 161.92 168.96 160.344 168.96 158.4C168.96 156.456 170.536 154.88 172.48 154.88Z" fill="#18212F"/>
<path d="M66.8813 161.92C68.8254 161.92 70.4013 163.496 70.4013 165.44C70.4013 167.384 68.8254 168.96 66.8813 168.96C64.9373 168.96 63.3613 167.384 63.3613 165.44C63.3613 163.496 64.9373 161.92 66.8813 161.92Z" fill="#18212F"/>
<path d="M73.9213 161.92C75.8654 161.92 77.4413 163.496 77.4413 165.44C77.4413 167.384 75.8654 168.96 73.9213 168.96C71.9773 168.96 70.4014 167.384 70.4014 165.44C70.4014 163.496 71.9773 161.92 73.9213 161.92Z" fill="#18212F"/>
<path d="M80.9594 161.92C82.9035 161.92 84.4794 163.496 84.4794 165.44C84.4794 167.384 82.9035 168.96 80.9594 168.96C79.0154 168.96 77.4395 167.384 77.4395 165.44C77.4395 163.496 79.0154 161.92 80.9594 161.92Z" fill="#18212F"/>
<path d="M102.081 161.92C104.025 161.92 105.6 163.496 105.6 165.44C105.6 167.384 104.025 168.96 102.081 168.96C100.137 168.96 98.5605 167.384 98.5605 165.44C98.5605 163.496 100.137 161.92 102.081 161.92Z" fill="#18212F"/>
<path d="M109.12 161.92C111.064 161.92 112.64 163.496 112.64 165.44C112.64 167.384 111.064 168.96 109.12 168.96C107.176 168.96 105.6 167.384 105.6 165.44C105.6 163.496 107.176 161.92 109.12 161.92Z" fill="#18212F"/>
<path d="M116.16 161.92C118.104 161.92 119.68 163.496 119.68 165.44C119.68 167.384 118.104 168.96 116.16 168.96C114.216 168.96 112.64 167.384 112.64 165.44C112.64 163.496 114.216 161.92 116.16 161.92Z" fill="#18212F"/>
<path d="M123.201 161.92C125.145 161.92 126.721 163.496 126.721 165.44C126.721 167.384 125.145 168.96 123.201 168.96C121.257 168.96 119.681 167.384 119.681 165.44C119.681 163.496 121.257 161.92 123.201 161.92Z" fill="#18212F"/>
<path d="M137.28 161.92C139.224 161.92 140.8 163.496 140.8 165.44C140.8 167.384 139.224 168.96 137.28 168.96C135.336 168.96 133.76 167.384 133.76 165.44C133.76 163.496 135.336 161.92 137.28 161.92Z" fill="#18212F"/>
<path d="M144.319 161.92C146.263 161.92 147.839 163.496 147.839 165.44C147.839 167.384 146.263 168.96 144.319 168.96C142.375 168.96 140.799 167.384 140.799 165.44C140.799 163.496 142.375 161.92 144.319 161.92Z" fill="#18212F"/>
<path d="M151.361 161.92C153.305 161.92 154.881 163.496 154.881 165.44C154.881 167.384 153.305 168.96 151.361 168.96C149.417 168.96 147.841 167.384 147.841 165.44C147.841 163.496 149.417 161.92 151.361 161.92Z" fill="#18212F"/>
<path d="M172.48 161.92C174.424 161.92 176 163.496 176 165.44C176 167.384 174.424 168.96 172.48 168.96C170.536 168.96 168.96 167.384 168.96 165.44C168.96 163.496 170.536 161.92 172.48 161.92Z" fill="#18212F"/>
<path d="M59.8393 168.96C61.7834 168.96 63.3593 170.536 63.3593 172.48C63.3593 174.424 61.7834 176 59.8393 176C57.8953 176 56.3193 174.424 56.3193 172.48C56.3193 170.536 57.8953 168.96 59.8393 168.96Z" fill="#18212F"/>
<path d="M66.8813 168.96C68.8254 168.96 70.4013 170.536 70.4013 172.48C70.4013 174.424 68.8254 176 66.8813 176C64.9373 176 63.3613 174.424 63.3613 172.48C63.3613 170.536 64.9373 168.96 66.8813 168.96Z" fill="#18212F"/>
<path d="M80.9594 168.96C82.9035 168.96 84.4794 170.536 84.4794 172.48C84.4794 174.424 82.9035 176 80.9594 176C79.0154 176 77.4395 174.424 77.4395 172.48C77.4395 170.536 79.0154 168.96 80.9594 168.96Z" fill="#18212F"/>
<path d="M88.0004 168.96C89.9445 168.96 91.5204 170.536 91.5204 172.48C91.5204 174.424 89.9445 176 88.0004 176C86.0564 176 84.4805 174.424 84.4805 172.48C84.4805 170.536 86.0564 168.96 88.0004 168.96Z" fill="#18212F"/>
<path d="M95.0395 168.96C96.9836 168.96 98.5595 170.536 98.5595 172.48C98.5595 174.424 96.9836 176 95.0395 176C93.0955 176 91.5195 174.424 91.5195 172.48C91.5195 170.536 93.0955 168.96 95.0395 168.96Z" fill="#18212F"/>
<path d="M123.201 168.96C125.145 168.96 126.721 170.536 126.721 172.48C126.721 174.424 125.145 176 123.201 176C121.257 176 119.681 174.424 119.681 172.48C119.681 170.536 121.257 168.96 123.201 168.96Z" fill="#18212F"/>
<path d="M137.28 168.96C139.224 168.96 140.8 170.536 140.8 172.48C140.8 174.424 139.224 176 137.28 176C135.336 176 133.76 174.424 133.76 172.48C133.76 170.536 135.336 168.96 137.28 168.96Z" fill="#18212F"/>
<path d="M144.319 168.96C146.263 168.96 147.839 170.536 147.839 172.48C147.839 174.424 146.263 176 144.319 176C142.375 176 140.799 174.424 140.799 172.48C140.799 170.536 142.375 168.96 144.319 168.96Z" fill="#18212F"/>
<path d="M151.361 168.96C153.305 168.96 154.881 170.536 154.881 172.48C154.881 174.424 153.305 176 151.361 176C149.417 176 147.841 174.424 147.841 172.48C147.841 170.536 149.417 168.96 151.361 168.96Z" fill="#18212F"/>
<path d="M158.399 168.96C160.343 168.96 161.919 170.536 161.919 172.48C161.919 174.424 160.343 176 158.399 176C156.455 176 154.879 174.424 154.879 172.48C154.879 170.536 156.455 168.96 158.399 168.96Z" fill="#18212F"/>
<path d="M165.439 168.96C167.383 168.96 168.959 170.536 168.959 172.48C168.959 174.424 167.383 176 165.439 176C163.495 176 161.919 174.424 161.919 172.48C161.919 170.536 163.495 168.96 165.439 168.96Z" fill="#18212F"/>
<path d="M172.48 168.96C174.424 168.96 176 170.536 176 172.48C176 174.424 174.424 176 172.48 176C170.536 176 168.96 174.424 168.96 172.48C168.96 170.536 170.536 168.96 172.48 168.96Z" fill="#18212F"/>
<path d="M24.643 0.483276C11.3022 0.483276 0.486328 11.2992 0.486328 24.6401C0.486328 37.9809 11.3022 48.7969 24.643 48.7969C37.9837 48.7969 48.7996 37.9809 48.7996 24.6401C48.7996 11.2992 37.9837 0.483276 24.643 0.483276ZM24.643 41.5499C15.319 41.5499 7.73332 33.9641 7.73332 24.6401C7.73332 15.316 15.319 7.73032 24.643 7.73032C33.967 7.73032 41.5526 15.316 41.5526 24.6401C41.5526 33.9641 33.967 41.5499 24.643 41.5499Z" fill="#18212F"/>
<path d="M151.36 0.483398C138.019 0.483398 127.203 11.2994 127.203 24.6402C127.203 37.9811 138.019 48.797 151.36 48.797C164.701 48.797 175.516 37.9811 175.516 24.6402C175.516 11.2994 164.701 0.483398 151.36 0.483398ZM151.36 41.55C142.036 41.55 134.45 33.9643 134.45 24.6402C134.45 15.3162 142.036 7.73044 151.36 7.73044C160.684 7.73044 168.269 15.3162 168.269 24.6402C168.269 33.9643 160.684 41.55 151.36 41.55Z" fill="#18212F"/>
<path d="M24.643 127.203C11.3022 127.203 0.486328 138.019 0.486328 151.36C0.486328 164.701 11.3022 175.517 24.643 175.517C37.9837 175.517 48.7996 164.701 48.7996 151.36C48.7996 138.019 37.9837 127.203 24.643 127.203ZM24.643 168.27C15.319 168.27 7.73332 160.684 7.73332 151.36C7.73332 142.036 15.319 134.45 24.643 134.45C33.967 134.45 41.5526 142.036 41.5526 151.36C41.5526 160.684 33.967 168.27 24.643 168.27Z" fill="#18212F"/>
<path d="M24.4339 34.786C30.1516 34.786 34.7868 30.1508 34.7868 24.433C34.7868 18.7153 30.1516 14.0801 24.4339 14.0801C18.7162 14.0801 14.0811 18.7153 14.0811 24.433C14.0811 30.1508 18.7162 34.786 24.4339 34.786Z" fill="#18212F"/>
<path d="M151.152 34.786C156.869 34.786 161.505 30.1508 161.505 24.433C161.505 18.7153 156.869 14.0801 151.152 14.0801C145.434 14.0801 140.799 18.7153 140.799 24.433C140.799 30.1508 145.434 34.786 151.152 34.786Z" fill="#18212F"/>
<path d="M24.4339 161.506C30.1516 161.506 34.7868 156.871 34.7868 151.153C34.7868 145.435 30.1516 140.8 24.4339 140.8C18.7162 140.8 14.0811 145.435 14.0811 151.153C14.0811 156.871 18.7162 161.506 24.4339 161.506Z" fill="#18212F"/>
<rect x="67.5664" y="67.3928" width="40.4506" height="41.536" rx="20.2253" fill="white"/>
<path fill-rule="evenodd" clip-rule="evenodd" d="M85.1428 80.3601C84.5568 80.8165 84.1195 81.2942 83.8456 81.6785C83.1089 82.7061 81.9454 85.0713 83.0112 87.205C83.111 87.4067 83.2171 87.5872 83.3275 87.7485C81.7373 87.9481 79.9688 88.4216 78.7076 89.4937C76.7692 91.1413 75.6058 93.0415 75.7798 95.6593C75.9539 98.2771 78.0495 100.235 81.0728 100.623C84.0982 101.012 86.5611 99.8673 88.1513 98.4321C89.7415 96.9968 90.75 95.0584 90.13 93.4491C89.5101 91.8398 87.474 91.568 85.922 91.7612C84.37 91.9544 82.6842 93.0415 81.6354 94.1264C80.5887 95.2113 80.0834 96.3748 80.1025 96.4915C80.1216 96.6083 80.2957 96.9183 80.4316 96.6083C80.5675 96.2983 81.0707 95.5998 81.576 94.9608C82.0791 94.3217 85.2999 91.5489 87.4719 92.5956C89.6438 93.6423 88.1704 97.0945 85.7458 98.9756C83.3212 100.857 81.0346 100.294 80.2575 99.7696C79.4826 99.2452 77.6397 97.4618 78.3955 94.1858C79.1514 90.9099 80.5484 89.7464 81.421 89.0288C81.8244 88.6976 82.6991 88.3473 83.6099 88.1201C84.6184 89.2835 85.8371 89.1519 86.3657 89.0882C87.0048 89.0097 87.4719 87.6148 85.629 87.6148C85.2044 87.6148 84.7118 87.6275 84.1789 87.6657C83.6333 86.7231 83.6205 85.6997 84.3127 84.2008C84.5696 83.6424 85.0494 82.8908 85.8286 82.0862L85.1428 80.3601Z" fill="#18212F"/>
<path d="M84.7402 75.5894H89.9758L99.7889 100.7H94.5533L84.7402 75.5894Z" fill="#18212F"/>
</svg>
