<svg width="700" height="700" viewBox="0 0 700 700" fill="none" xmlns="http://www.w3.org/2000/svg">
<path d="M660.004 510H39.9958C34.9981 510 31 506.009 31 501.02C31 496.031 34.9981 492.039 39.9958 492.039H660.004C665.002 492.039 669 496.031 669 501.02C669 506.009 665.002 510 660.004 510Z" fill="#C9C9C9"/>
<path d="M156.641 417.203C147.046 417.203 139.35 409.42 139.35 399.941C139.35 390.461 147.146 382.679 156.641 382.679H254.595V417.303H156.641V417.203Z" fill="#CECECE"/>
<path d="M260.293 423.19H156.642C143.748 423.19 133.353 412.713 133.353 399.941C133.353 387.069 143.848 376.692 156.642 376.692H260.293V423.19Z" fill="white"/>
<path d="M150.245 394.553H254.596" stroke="#1F3969" stroke-width="4" stroke-miterlimit="10" stroke-linecap="round" stroke-linejoin="round"/>
<path d="M150.245 405.129H254.596" stroke="#1F3969" stroke-width="4" stroke-miterlimit="10" stroke-linecap="round" stroke-linejoin="round"/>
<path d="M156.641 417.203C147.046 417.203 139.35 409.42 139.35 399.941C139.35 390.461 147.146 382.679 156.641 382.679H254.595V417.303H156.641V417.203Z" stroke="#1F3969" stroke-width="4" stroke-miterlimit="10" stroke-linecap="round" stroke-linejoin="round"/>
<path d="M156.642 417.203C147.046 417.203 139.35 409.42 139.35 399.941C139.35 390.462 147.146 382.679 156.642 382.679H256.295L260.293 376.692H156.642C143.748 376.692 133.353 387.169 133.353 399.941C133.353 412.813 143.848 423.19 156.642 423.19H260.293L256.295 417.203H156.642Z" fill="#FF3E3E"/>
<path d="M156.642 417.203C147.046 417.203 139.35 409.42 139.35 399.941C139.35 390.462 147.146 382.679 156.642 382.679H256.295L260.293 376.692H156.642C143.748 376.692 133.353 387.169 133.353 399.941C133.353 412.813 143.848 423.19 156.642 423.19H260.293L256.295 417.203H156.642Z" stroke="#1F3969" stroke-width="4" stroke-miterlimit="10" stroke-linecap="round" stroke-linejoin="round"/>
<path opacity="0.28" d="M238.003 376.592H219.611V423.19H238.003V376.592Z" fill="#1F3969" stroke="#1F3969" stroke-width="4" stroke-miterlimit="10" stroke-linecap="round" stroke-linejoin="round"/>
<path d="M249.598 461.606H59.787C56.0888 461.606 52.9902 458.612 52.9902 454.821V429.875C52.9902 426.183 55.9888 423.09 59.787 423.09H249.598C253.296 423.09 256.395 426.084 256.395 429.875V454.821C256.395 458.612 253.396 461.606 249.598 461.606Z" fill="#50B56F"/>
<path d="M111.063 443.645H108.464V449.133H106.765V435.862H111.063C114.161 435.862 115.66 437.558 115.66 439.754C115.66 441.749 114.361 443.645 111.063 443.645ZM111.063 442.148C113.062 442.148 113.861 441.25 113.861 439.754C113.861 438.257 113.062 437.259 111.063 437.259H108.464V442.148H111.063Z" fill="white"/>
<path d="M120.458 435.862H122.357L125.656 442.548L128.954 435.862H130.853L126.555 444.144V449.133H124.856V444.144L120.458 435.862Z" fill="white"/>
<path d="M135.651 435.862H144.647V437.259H141.049V449.133H139.35V437.259H135.751V435.862H135.651Z" fill="white"/>
<path d="M159.141 443.146H152.344V449.133H150.645V435.862H152.344V441.65H159.141V435.862H160.84V449.133H159.141V443.146Z" fill="white"/>
<path d="M173.633 449.233C169.935 449.233 166.937 446.439 166.937 442.448C166.937 438.456 169.835 435.663 173.633 435.663C177.432 435.663 180.33 438.456 180.33 442.448C180.23 446.439 177.332 449.233 173.633 449.233ZM173.633 447.736C176.432 447.736 178.531 445.741 178.531 442.448C178.531 439.155 176.432 437.159 173.633 437.159C170.835 437.159 168.736 439.155 168.736 442.448C168.736 445.741 170.835 447.736 173.633 447.736Z" fill="white"/>
<path d="M196.823 435.862V449.133H195.124L188.127 438.556V449.133H186.428V435.862H188.127L195.124 446.339V435.862H196.823Z" fill="white"/>
<path d="M249.598 461.606H59.787C56.0888 461.606 52.9902 458.612 52.9902 454.821V429.875C52.9902 426.183 55.9888 423.09 59.787 423.09H249.598C253.296 423.09 256.395 426.084 256.395 429.875V454.821C256.395 458.612 253.396 461.606 249.598 461.606Z" stroke="#1F3969" stroke-width="4" stroke-miterlimit="10" stroke-linecap="round" stroke-linejoin="round"/>
<path opacity="0.28" d="M249.597 423.19H219.611V438.157C219.611 447.537 227.208 455.22 236.703 455.22H256.394C256.394 455.12 256.394 455.02 256.394 454.92V429.975C256.394 426.183 253.395 423.19 249.597 423.19Z" fill="#1F3969" stroke="#1F3969" stroke-width="4" stroke-miterlimit="10" stroke-linecap="round" stroke-linejoin="round"/>
<path d="M303.072 469.389H83.1758C84.4752 472.582 85.1748 476.573 85.1748 480.764C85.1748 484.955 84.4752 488.846 83.1758 492.139H302.972C301.673 488.946 300.973 484.955 300.973 480.764C301.073 476.473 301.773 472.582 303.072 469.389Z" fill="#CECECE"/>
<path d="M309.069 463.302H77.2783V469.289H309.069V463.302Z" fill="#5F5AFF"/>
<path d="M309.069 463.302H77.2783V469.289H309.069V463.302Z" stroke="#1F3969" stroke-width="4" stroke-miterlimit="10" stroke-linecap="round" stroke-linejoin="round"/>
<path d="M309.069 492.039H77.2783V498.026H309.069V492.039Z" fill="#F6F9FD"/>
<path d="M309.069 492.039H77.2783V498.026H309.069V492.039Z" fill="#5F5AFF"/>
<path d="M309.069 492.039H77.2783V498.026H309.069V492.039Z" stroke="#1F3969" stroke-width="4" stroke-miterlimit="10" stroke-linecap="round" stroke-linejoin="round"/>
<path d="M424.216 476.773L421.217 443.146H371.84L368.842 476.773C368.142 484.556 363.444 492.039 356.048 498.026V498.126H437.01V498.026C429.613 492.039 424.915 484.556 424.216 476.773Z" fill="#BFCFE2"/>
<path opacity="0.28" d="M371.84 443.146L370.041 463.302H423.016L421.217 443.146H371.84Z" fill="#1F3969" stroke="#1F3969" stroke-width="4" stroke-miterlimit="10" stroke-linecap="round" stroke-linejoin="round"/>
<path d="M424.216 476.773L421.217 443.146H371.84L368.842 476.773C368.142 484.556 363.444 492.039 356.048 498.026V498.126H437.01V498.026C429.613 492.039 424.915 484.556 424.216 476.773Z" stroke="#1F3969" stroke-width="4" stroke-miterlimit="10" stroke-linecap="round" stroke-linejoin="round"/>
<path d="M554.454 448.135H238.603C232.006 448.135 226.608 442.747 226.608 436.162V230.611C226.608 224.026 232.006 218.637 238.603 218.637H554.454C561.051 218.637 566.449 224.026 566.449 230.611V436.162C566.449 442.847 561.051 448.135 554.454 448.135Z" fill="white"/>
<path d="M554.454 448.135H238.603C232.006 448.135 226.608 442.747 226.608 436.162V230.611C226.608 224.026 232.006 218.637 238.603 218.637H554.454C561.051 218.637 566.449 224.026 566.449 230.611V436.162C566.449 442.847 561.051 448.135 554.454 448.135Z" fill="#BFCFE2"/>
<path d="M554.454 448.135H238.603C232.006 448.135 226.608 442.747 226.608 436.162V230.611C226.608 224.026 232.006 218.637 238.603 218.637H554.454C561.051 218.637 566.449 224.026 566.449 230.611V436.162C566.449 442.847 561.051 448.135 554.454 448.135Z" stroke="#1F3969" stroke-width="4" stroke-miterlimit="10" stroke-linecap="round" stroke-linejoin="round"/>
<path d="M549.513 409.847V235.628L243.657 235.628L243.657 409.847L549.513 409.847Z" fill="#F6F9FD"/>
<path opacity="0.28" d="M254.596 218.637V356.935C254.596 361.325 258.194 364.917 262.592 364.917H451.603C456.001 364.917 459.599 361.325 459.599 356.935V218.637H254.596Z" fill="#1F3969" stroke="#1F3969" stroke-width="4" stroke-miterlimit="10" stroke-linecap="round" stroke-linejoin="round"/>
<path d="M549.513 409.847V235.628L243.657 235.628L243.657 409.847L549.513 409.847Z" stroke="#1F3969" stroke-width="4" stroke-miterlimit="10" stroke-linecap="round" stroke-linejoin="round"/>
<path d="M383.135 428.877H410.022" stroke="#1F3969" stroke-width="4" stroke-miterlimit="10" stroke-linecap="round" stroke-linejoin="round"/>
<path d="M460.598 353.942H271.587C267.189 353.942 263.591 350.349 263.591 345.959V198.083C263.591 193.692 267.189 190.1 271.587 190.1H460.598C464.996 190.1 468.594 193.692 468.594 198.083V346.059C468.594 350.449 464.996 353.942 460.598 353.942Z" fill="#2D425E"/>
<path d="M468.594 209.457H263.591V197.983C263.591 193.592 267.189 190 271.587 190H460.598C464.996 190 468.594 193.592 468.594 197.983V209.457Z" stroke="#1F3969" stroke-width="4" stroke-miterlimit="10" stroke-linecap="round" stroke-linejoin="round"/>
<path d="M468.594 213.249H263.591V197.983C263.591 193.592 267.189 190 271.587 190H460.598C464.996 190 468.594 193.592 468.594 197.983V213.249Z" fill="#D0DDF0"/>
<path d="M468.594 213.249H263.591V197.983C263.591 193.592 267.189 190 271.587 190H460.598C464.996 190 468.594 193.592 468.594 197.983V213.249Z" stroke="#1F3969" stroke-width="4" stroke-miterlimit="10" stroke-linecap="round" stroke-linejoin="round"/>
<path d="M468.594 213.249H263.591V197.983C263.591 193.592 267.189 190 271.587 190H460.598C464.996 190 468.594 193.592 468.594 197.983V213.249Z" stroke="#1F3969" stroke-width="4" stroke-miterlimit="10" stroke-linecap="round" stroke-linejoin="round"/>
<path d="M460.598 353.942H271.587C267.189 353.942 263.591 350.349 263.591 345.959V198.083C263.591 193.692 267.189 190.1 271.587 190.1H460.598C464.996 190.1 468.594 193.692 468.594 198.083V346.059C468.594 350.449 464.996 353.942 460.598 353.942Z" stroke="#1F3969" stroke-width="4" stroke-miterlimit="10" stroke-linecap="round" stroke-linejoin="round"/>
<path opacity="0.28" d="M559.252 389.264H443.307C438.909 389.264 435.311 385.672 435.311 381.282V258.65C435.311 254.259 438.909 250.667 443.307 250.667H559.252C563.65 250.667 567.249 254.259 567.249 258.65V381.282C567.249 385.772 563.65 389.264 559.252 389.264Z" fill="#1F3969" stroke="#1F3969" stroke-width="4" stroke-miterlimit="10" stroke-linecap="round" stroke-linejoin="round"/>
<path d="M567.248 382.279H451.303C446.905 382.279 443.307 378.687 443.307 374.297V251.665C443.307 247.275 446.905 243.683 451.303 243.683H567.248C571.646 243.683 575.245 247.275 575.245 251.665V374.297C575.245 378.787 571.646 382.279 567.248 382.279Z" fill="#2AA1FF"/>
<path d="M567.248 382.279H451.303C446.905 382.279 443.307 378.687 443.307 374.297V251.665C443.307 247.275 446.905 243.683 451.303 243.683H567.248C571.646 243.683 575.245 247.275 575.245 251.665V374.297C575.245 378.787 571.646 382.279 567.248 382.279Z" stroke="#1F3969" stroke-width="4" stroke-miterlimit="10" stroke-linecap="round" stroke-linejoin="round"/>
<path opacity="0.34" d="M549.957 281.699H468.396C465.497 281.699 463.198 279.404 463.198 276.511V268.728C463.198 265.834 465.497 263.539 468.396 263.539H549.957C552.856 263.539 555.155 265.834 555.155 268.728V276.511C555.155 279.404 552.856 281.699 549.957 281.699Z" stroke="white" stroke-width="2" stroke-miterlimit="10" stroke-linecap="round" stroke-linejoin="round"/>
<g opacity="0.34">
<path d="M514.173 310.935H468.594C465.695 310.935 463.396 308.64 463.396 305.747V297.964C463.396 295.07 465.695 292.775 468.594 292.775H514.173C517.071 292.775 519.37 295.07 519.37 297.964V305.747C519.27 308.64 516.971 310.935 514.173 310.935Z" stroke="white" stroke-width="2" stroke-miterlimit="10" stroke-linecap="round" stroke-linejoin="round"/>
<path d="M550.055 310.935H532.364C529.465 310.935 527.166 308.64 527.166 305.747V297.964C527.166 295.07 529.465 292.775 532.364 292.775H550.055C552.954 292.775 555.253 295.07 555.253 297.964V305.747C555.253 308.64 552.954 310.935 550.055 310.935Z" stroke="white" stroke-width="2" stroke-miterlimit="10" stroke-linecap="round" stroke-linejoin="round"/>
</g>
<path d="M463.298 341.269H555.155" stroke="white" stroke-width="2" stroke-miterlimit="10" stroke-linecap="round" stroke-linejoin="round"/>
<path d="M463.298 352.046H555.155" stroke="white" stroke-width="2" stroke-miterlimit="10" stroke-linecap="round" stroke-linejoin="round"/>
<path d="M463.298 362.822H519.272" stroke="white" stroke-width="2" stroke-miterlimit="10" stroke-linecap="round" stroke-linejoin="round"/>
<path d="M283.681 205.666C285.889 205.666 287.679 203.879 287.679 201.674C287.679 199.47 285.889 197.683 283.681 197.683C281.473 197.683 279.683 199.47 279.683 201.674C279.683 203.879 281.473 205.666 283.681 205.666Z" fill="#1F3969"/>
<path d="M297.575 205.666C299.783 205.666 301.573 203.879 301.573 201.674C301.573 199.47 299.783 197.683 297.575 197.683C295.367 197.683 293.577 199.47 293.577 201.674C293.577 203.879 295.367 205.666 297.575 205.666Z" fill="#1F3969"/>
<path d="M311.468 205.666C313.676 205.666 315.466 203.879 315.466 201.674C315.466 199.47 313.676 197.683 311.468 197.683C309.26 197.683 307.47 199.47 307.47 201.674C307.47 203.879 309.26 205.666 311.468 205.666Z" fill="#1F3969"/>
<path d="M381.336 231.709H394.33" stroke="white" stroke-width="4" stroke-miterlimit="10" stroke-linecap="round" stroke-linejoin="round"/>
<path d="M315.467 231.709H371.74" stroke="#7BFFA0" stroke-width="4" stroke-miterlimit="10" stroke-linecap="round" stroke-linejoin="round"/>
<path d="M287.68 231.709H307.47" stroke="#9169FF" stroke-width="4" stroke-miterlimit="10" stroke-linecap="round" stroke-linejoin="round"/>
<path d="M313.468 329.994H356.448" stroke="#9169FF" stroke-width="4" stroke-miterlimit="10" stroke-linecap="round" stroke-linejoin="round"/>
<path d="M287.68 329.994H301.573" stroke="#7BFFA0" stroke-width="4" stroke-miterlimit="10" stroke-linecap="round" stroke-linejoin="round"/>
<path d="M371.739 243.982H379.835" stroke="white" stroke-width="4" stroke-miterlimit="10" stroke-linecap="round" stroke-linejoin="round"/>
<path d="M334.957 243.982H362.144" stroke="#9169FF" stroke-width="4" stroke-miterlimit="10" stroke-linecap="round" stroke-linejoin="round"/>
<path d="M297.574 243.982H325.261" stroke="#FFC47D" stroke-width="4" stroke-miterlimit="10" stroke-linecap="round" stroke-linejoin="round"/>
<path d="M340.455 256.255H364.344" stroke="white" stroke-width="4" stroke-miterlimit="10" stroke-linecap="round" stroke-linejoin="round"/>
<path d="M310.469 256.255H332.958" stroke="#FF5757" stroke-width="4" stroke-miterlimit="10" stroke-linecap="round" stroke-linejoin="round"/>
<path d="M343.652 268.528H348.55" stroke="white" stroke-width="4" stroke-miterlimit="10" stroke-linecap="round" stroke-linejoin="round"/>
<path d="M323.861 268.528H334.956" stroke="#9169FF" stroke-width="4" stroke-miterlimit="10" stroke-linecap="round" stroke-linejoin="round"/>
<path d="M297.574 268.528H315.466" stroke="#7BFFA0" stroke-width="4" stroke-miterlimit="10" stroke-linecap="round" stroke-linejoin="round"/>
<path d="M335.957 280.901H367.842" stroke="#FFC47D" stroke-width="4" stroke-miterlimit="10" stroke-linecap="round" stroke-linejoin="round"/>
<path d="M297.574 280.901H326.161" stroke="#FF5757" stroke-width="4" stroke-miterlimit="10" stroke-linecap="round" stroke-linejoin="round"/>
<path d="M372.84 293.174H390.132" stroke="#9169FF" stroke-width="4" stroke-miterlimit="10" stroke-linecap="round" stroke-linejoin="round"/>
<path d="M335.957 293.174H363.644" stroke="#FF5757" stroke-width="4" stroke-miterlimit="10" stroke-linecap="round" stroke-linejoin="round"/>
<path d="M310.469 293.174H326.161" stroke="#7BFFA0" stroke-width="4" stroke-miterlimit="10" stroke-linecap="round" stroke-linejoin="round"/>
<path d="M348.551 305.447H363.644" stroke="white" stroke-width="4" stroke-miterlimit="10" stroke-linecap="round" stroke-linejoin="round"/>
<path d="M310.469 305.447H338.156" stroke="#9169FF" stroke-width="4" stroke-miterlimit="10" stroke-linecap="round" stroke-linejoin="round"/>
<path d="M387.832 317.721H405.124" stroke="white" stroke-width="4" stroke-miterlimit="10" stroke-linecap="round" stroke-linejoin="round"/>
<path d="M334.957 317.721H378.437" stroke="#FFC47D" stroke-width="4" stroke-miterlimit="10" stroke-linecap="round" stroke-linejoin="round"/>
<path d="M297.574 317.721H325.261" stroke="white" stroke-width="4" stroke-miterlimit="10" stroke-linecap="round" stroke-linejoin="round"/>
<path d="M85.6748 476.274H301.074" stroke="#1F3969" stroke-width="4" stroke-miterlimit="10" stroke-linecap="round" stroke-linejoin="round"/>
<path d="M85.6748 484.256H301.074" stroke="#1F3969" stroke-width="4" stroke-miterlimit="10" stroke-linecap="round" stroke-linejoin="round"/>
<path d="M303.072 469.389H83.1758C84.4752 472.582 85.1748 476.573 85.1748 480.764C85.1748 484.955 84.4752 488.846 83.1758 492.139H302.972C301.673 488.946 300.973 484.955 300.973 480.764C301.073 476.473 301.773 472.582 303.072 469.389Z" stroke="#1F3969" stroke-width="4" stroke-miterlimit="10" stroke-linecap="round" stroke-linejoin="round"/>
<path d="M598.883 388.038L589.154 389.178L597.615 461.127L607.344 459.987L598.883 388.038Z" fill="#FFA364"/>
<path d="M598.896 388.114L589.167 389.254L590.029 396.588L599.758 395.448L598.896 388.114Z" fill="#2AA1FF"/>
<path d="M598.896 388.114L589.167 389.254L590.029 396.588L599.758 395.448L598.896 388.114Z" stroke="#1F3969" stroke-width="4" stroke-miterlimit="10" stroke-linecap="round" stroke-linejoin="round"/>
<path d="M598.883 388.038L589.154 389.178L597.615 461.127L607.344 459.987L598.883 388.038Z" stroke="#1F3969" stroke-width="4" stroke-miterlimit="10" stroke-linecap="round" stroke-linejoin="round"/>
<path d="M625.559 402.775L615.821 401.718L607.977 473.732L617.715 474.79L625.559 402.775Z" fill="#FF5252"/>
<path d="M625.559 402.775L615.821 401.718L607.977 473.732L617.715 474.79L625.559 402.775Z" stroke="#1F3969" stroke-width="4" stroke-miterlimit="10" stroke-linecap="round" stroke-linejoin="round"/>
<path d="M625.631 402.792L615.894 401.735L615.094 409.076L624.832 410.133L625.631 402.792Z" fill="#2D425E"/>
<path d="M625.631 402.792L615.894 401.735L615.094 409.076L624.832 410.133L625.631 402.792Z" stroke="#1F3969" stroke-width="4" stroke-miterlimit="10" stroke-linecap="round" stroke-linejoin="round"/>
<path d="M631.618 498.326H592.336L585.939 438.257H638.015L631.618 498.326Z" fill="#6567C3"/>
<path d="M585.939 438.257L586.039 439.355H625.721L619.424 498.326H631.618L638.015 438.257H585.939Z" fill="#6567C3"/>
<path d="M631.618 498.326H592.336L585.939 438.257H638.015L631.618 498.326Z" stroke="#1F3969" stroke-width="4" stroke-miterlimit="10" stroke-linecap="round" stroke-linejoin="round"/>
</svg>
