<svg width="258" height="130" viewBox="0 0 258 130" fill="none" xmlns="http://www.w3.org/2000/svg">
<path fill-rule="evenodd" clip-rule="evenodd" d="M100.86 51.2964C94.5595 56.2046 89.8567 61.3411 86.9118 65.4732C78.9901 76.5224 66.4798 101.954 77.94 124.897C79.0129 127.066 80.1544 129.006 81.3415 130.741C64.2426 132.887 45.226 137.978 31.6656 149.507C10.8228 167.222 -1.68753 187.654 0.184443 215.802C2.05642 243.95 24.5886 264.999 57.0971 269.176C89.6284 273.354 116.11 261.049 133.209 245.617C150.308 230.184 161.152 209.341 154.486 192.037C147.82 174.733 125.927 171.811 109.239 173.888C92.5505 175.965 74.4243 187.654 63.1468 199.32C51.8921 210.985 46.4588 223.495 46.6643 224.751C46.8697 226.007 48.7417 229.34 50.2027 226.007C51.6638 222.674 57.0743 215.163 62.5076 208.291C67.918 201.42 102.55 171.605 125.904 182.86C149.258 194.115 133.414 231.234 107.344 251.461C81.273 271.687 56.6862 265.638 48.3308 259.999C39.9982 254.36 20.1826 235.184 28.3098 199.959C36.4369 164.734 51.4584 152.223 60.8411 144.507C65.1786 140.946 74.5841 137.179 84.3778 134.736C95.2215 147.247 108.325 145.831 114.01 145.146C120.881 144.302 125.904 129.303 106.088 129.303C101.522 129.303 96.226 129.44 90.4959 129.851C84.6289 119.715 84.4919 108.711 91.9341 92.594C94.6964 86.59 99.8558 78.5086 108.234 69.8564L100.86 51.2964Z" fill="white"/>
<path d="M96.5234 0H152.82L258.335 269.998H202.039L96.5234 0Z" fill="white"/>
</svg>
