<svg width="146" height="46" viewBox="0 0 146 46" fill="none" xmlns="http://www.w3.org/2000/svg">
<path d="M30.2554 22.8658C30.269 21.822 30.5486 20.7986 31.0682 19.8908C31.5878 18.983 32.3305 18.2202 33.2273 17.6735C32.6576 16.8668 31.906 16.2028 31.0323 15.7344C30.1586 15.266 29.1868 15.0061 28.1941 14.9753C26.0764 14.7549 24.0234 16.2319 22.9443 16.2319C21.8443 16.2319 20.1828 14.9972 18.3936 15.0337C17.2363 15.0708 16.1085 15.4045 15.12 16.0023C14.1314 16.6001 13.3159 17.4417 12.7529 18.445C10.314 22.6323 12.1332 28.7862 14.4695 32.1709C15.6384 33.8283 17.0045 35.6796 18.792 35.614C20.5412 35.542 21.1945 34.5079 23.306 34.5079C25.3978 34.5079 26.0107 35.614 27.8345 35.5722C29.7115 35.542 30.8941 33.9075 32.022 32.2344C32.8619 31.0534 33.5081 29.7482 33.9369 28.3671C32.8464 27.9098 31.9158 27.1442 31.2611 26.1659C30.6065 25.1876 30.2567 24.0399 30.2554 22.8658Z" fill="white"/>
<path d="M26.811 12.7493C27.8344 11.531 28.3386 9.96512 28.2165 8.38416C26.653 8.547 25.2087 9.28801 24.1715 10.4595C23.6643 11.0319 23.2759 11.6977 23.0284 12.419C22.7809 13.1402 22.6792 13.9028 22.7291 14.6631C23.5112 14.671 24.2849 14.503 24.9919 14.1715C25.6989 13.84 26.3209 13.3537 26.811 12.7493V12.7493Z" fill="white"/>
<path d="M51.2415 31.5846H45.5012L44.1227 35.6209H41.6914L47.1285 20.6876H49.6545L55.0916 35.6209H52.6188L51.2415 31.5846ZM46.0958 29.7221H50.6458L48.4028 23.1714H48.34L46.0958 29.7221Z" fill="white"/>
<path d="M66.8346 30.1777C66.8346 33.5611 65.0084 35.7348 62.2526 35.7348C61.5545 35.771 60.8602 35.6116 60.2492 35.2747C59.6383 34.9378 59.1354 34.4371 58.798 33.83H58.7459V39.2227H56.4922V24.7334H58.6736V26.5442H58.7151C59.0679 25.94 59.5794 25.4419 60.195 25.103C60.8106 24.764 61.5073 24.5969 62.2111 24.6194C64.9977 24.6195 66.8346 26.8038 66.8346 30.1777ZM64.5181 30.1777C64.5181 27.9735 63.3693 26.5243 61.6166 26.5243C59.8947 26.5243 58.7364 28.004 58.7364 30.1777C58.7364 32.3714 59.8947 33.8406 61.6166 33.8406C63.3694 33.8406 64.5181 32.402 64.5181 30.1777H64.5181Z" fill="white"/>
<path d="M78.9191 30.1777C78.9191 33.5611 77.0924 35.7348 74.3366 35.7348C73.6385 35.771 72.9442 35.6116 72.3332 35.2747C71.7223 34.9378 71.2193 34.4371 70.882 33.83H70.8299V39.2227H68.5762V24.7334H70.7576V26.5442H70.7991C71.1519 25.94 71.6633 25.4419 72.279 25.103C72.8946 24.764 73.5913 24.5969 74.2951 24.6194C77.0817 24.6195 78.9191 26.8038 78.9191 30.1777ZM76.6021 30.1777C76.6021 27.9735 75.4533 26.5243 73.7006 26.5243C71.9787 26.5243 70.8204 28.004 70.8204 30.1777C70.8204 32.3714 71.9787 33.8406 73.7006 33.8406C75.4533 33.8406 76.6021 32.402 76.6021 30.1777V30.1777Z" fill="white"/>
<path d="M86.9047 31.4602C87.0717 32.941 88.5224 33.9134 90.5049 33.9134C92.4045 33.9134 93.7712 32.941 93.7712 31.6057C93.7712 30.4466 92.9469 29.7526 90.9952 29.277L89.0435 28.8107C86.2782 28.1484 84.9945 26.866 84.9945 24.785C84.9945 22.2084 87.2588 20.4387 90.4729 20.4387C93.6563 20.4387 95.8378 22.2084 95.9112 24.785H93.6361C93.5 23.2947 92.2576 22.3952 90.4421 22.3952C88.6266 22.3952 87.3843 23.3053 87.3843 24.63C87.3843 25.6857 88.1778 26.307 90.1188 26.7826L91.778 27.1865C94.8678 27.9111 96.1504 29.1419 96.1504 31.3262C96.1504 34.12 93.9073 35.8698 90.3379 35.8698C86.9982 35.8698 84.7433 34.1611 84.5977 31.46L86.9047 31.4602Z" fill="white"/>
<path d="M101.017 22.1568V24.7334H103.105V26.5031H101.017V32.5053C101.017 33.4378 101.435 33.8723 102.353 33.8723C102.601 33.868 102.848 33.8507 103.094 33.8206V35.5798C102.682 35.6562 102.262 35.6909 101.842 35.6831C99.6196 35.6831 98.7527 34.8552 98.7527 32.7437V26.5031H97.1562V24.7334H98.7526V22.1568H101.017Z" fill="white"/>
<path d="M104.312 30.1777C104.312 26.7521 106.347 24.5995 109.52 24.5995C112.703 24.5995 114.728 26.7521 114.728 30.1777C114.728 33.6128 112.714 35.756 109.52 35.756C106.327 35.756 104.312 33.6127 104.312 30.1777ZM112.432 30.1777C112.432 27.8278 111.346 26.4409 109.52 26.4409C107.694 26.4409 106.608 27.8384 106.608 30.1777C106.608 32.537 107.694 33.9134 109.52 33.9134C111.346 33.9134 112.432 32.537 112.432 30.1777H112.432Z" fill="white"/>
<path d="M116.586 24.7334H118.735V26.5865H118.788C118.933 26.0077 119.275 25.4963 119.756 25.138C120.237 24.7798 120.827 24.5967 121.429 24.6194C121.688 24.6185 121.947 24.6465 122.201 24.7028V26.7932C121.873 26.6939 121.531 26.6482 121.188 26.6582C120.861 26.645 120.534 26.7022 120.231 26.826C119.928 26.9497 119.656 27.137 119.433 27.3749C119.21 27.6129 119.041 27.8959 118.939 28.2046C118.836 28.5133 118.803 28.8402 118.84 29.1631V35.6209H116.586L116.586 24.7334Z" fill="white"/>
<path d="M132.592 32.4231C132.288 34.3996 130.347 35.756 127.864 35.756C124.67 35.756 122.688 33.6339 122.688 30.2294C122.688 26.8143 124.681 24.5995 127.769 24.5995C130.807 24.5995 132.717 26.6687 132.717 29.9699V30.7356H124.963V30.8706C124.927 31.2713 124.977 31.6749 125.111 32.0548C125.245 32.4346 125.458 32.7819 125.737 33.0735C126.017 33.3652 126.356 33.5946 126.731 33.7465C127.107 33.8984 127.511 33.9693 127.916 33.9545C128.449 34.004 128.983 33.8817 129.44 33.6057C129.897 33.3298 130.252 32.915 130.452 32.4231L132.592 32.4231ZM124.973 29.1736H130.462C130.483 28.8134 130.427 28.4528 130.301 28.1147C130.174 27.7765 129.978 27.468 129.725 27.2085C129.472 26.9491 129.168 26.7442 128.831 26.6069C128.495 26.4695 128.133 26.4026 127.769 26.4104C127.402 26.4082 127.038 26.4781 126.699 26.6161C126.359 26.7541 126.051 26.9574 125.791 27.2143C125.531 27.4712 125.325 27.7766 125.184 28.1129C125.044 28.4492 124.972 28.8097 124.973 29.1737V29.1736Z" fill="white"/>
<path d="M44.4938 12.4806H45.4614C45.6279 12.5012 45.797 12.4873 45.9579 12.4399C46.1188 12.3925 46.268 12.3125 46.3962 12.205C46.5244 12.0976 46.6287 11.9649 46.7026 11.8155C46.7765 11.6661 46.8184 11.5031 46.8257 11.3368C46.8257 10.675 46.3235 10.2476 45.472 10.2476C45.3014 10.2239 45.1277 10.2344 44.9612 10.2785C44.7947 10.3225 44.6388 10.3991 44.5027 10.5039C44.3666 10.6087 44.253 10.7394 44.1687 10.8884C44.0844 11.0374 44.0311 11.2017 44.0118 11.3714H42.9495C42.9678 11.0632 43.0498 10.762 43.1906 10.4867C43.3313 10.2113 43.5278 9.96754 43.7676 9.77067C44.0075 9.57381 44.2856 9.42802 44.5848 9.34237C44.8839 9.25672 45.1976 9.23306 45.5064 9.27285C46.931 9.27285 47.9342 10.0638 47.9342 11.2023C47.9375 11.5838 47.8089 11.9548 47.5696 12.2535C47.3304 12.5521 46.995 12.7604 46.6196 12.8435V12.9281C47.0647 12.9476 47.4838 13.1411 47.7854 13.4663C48.087 13.7914 48.2465 14.2218 48.2291 14.6632C48.1961 14.9805 48.0996 15.2882 47.9453 15.568C47.7909 15.8479 47.5817 16.0944 47.33 16.2931C47.0783 16.4918 46.7891 16.6387 46.4794 16.7251C46.1697 16.8115 45.8458 16.8358 45.5265 16.7964C45.2066 16.8397 44.8812 16.8186 44.5696 16.7345C44.2581 16.6504 43.9668 16.5049 43.7132 16.3067C43.4595 16.1086 43.2487 15.8619 43.0933 15.5812C42.9379 15.3005 42.8411 14.9917 42.8086 14.6732H43.8875C43.9526 15.3596 44.5886 15.8024 45.5265 15.8024C46.4645 15.8024 47.0768 15.305 47.0768 14.6039C47.0768 13.8929 46.5 13.4548 45.4922 13.4548H44.4938V12.4806Z" fill="white"/>
<path d="M49.4551 15.0912C49.4551 14.1165 50.1883 13.5546 51.4865 13.4747L52.966 13.3902V12.9228C52.966 12.3508 52.5858 12.0279 51.8478 12.0279C51.2461 12.0279 50.8303 12.2469 50.7095 12.6298H49.6659C49.7761 11.6997 50.6597 11.1031 51.8987 11.1031C53.2681 11.1031 54.0404 11.7789 54.0404 12.9228V16.6226H53.0015V15.8616H52.9163C52.7431 16.1346 52.5001 16.3571 52.2118 16.5065C51.9236 16.6559 51.6006 16.7267 51.2757 16.7118C51.0464 16.7355 50.8147 16.7112 50.5954 16.6406C50.3762 16.57 50.1743 16.4547 50.0027 16.302C49.8312 16.1493 49.6938 15.9627 49.5995 15.7541C49.5052 15.5456 49.456 15.3198 49.4551 15.0912V15.0912ZM52.966 14.6285V14.1758L51.6322 14.2604C50.88 14.3103 50.5389 14.5639 50.5389 15.0413C50.5389 15.5287 50.9653 15.8123 51.5517 15.8123C51.7235 15.8295 51.897 15.8123 52.062 15.7617C52.227 15.7111 52.38 15.6281 52.512 15.5177C52.6439 15.4072 52.7521 15.2716 52.8301 15.1188C52.9081 14.9661 52.9543 14.7993 52.966 14.6285V14.6285Z" fill="white"/>
<path d="M56.9002 12.1072V16.6226H55.8223V11.2076H59.4185V12.1071L56.9002 12.1072Z" fill="white"/>
<path d="M65.9482 13.9127C65.9482 15.6332 65.0706 16.7118 63.6921 16.7118C63.3537 16.7347 63.0158 16.6613 62.718 16.5002C62.4203 16.339 62.1752 16.0969 62.0116 15.8023H61.9263V18.4229H60.8486V11.2076H61.8861V12.1025H61.9666C62.1332 11.7976 62.3814 11.5442 62.6841 11.3704C62.9867 11.1967 63.3319 11.1092 63.6814 11.1178C65.0706 11.1177 65.9482 12.1917 65.9482 13.9127ZM64.8397 13.9127C64.8397 12.7689 64.2937 12.0778 63.3806 12.0778C62.4735 12.0778 61.9062 12.7836 61.9062 13.9174C61.9062 15.046 62.4735 15.7524 63.3759 15.7524C64.2937 15.7524 64.8397 15.0612 64.8397 13.9127Z" fill="white"/>
<path d="M67.3838 18.5621V17.642C67.5004 17.6567 67.6179 17.6634 67.7355 17.662C67.9651 17.6788 68.1929 17.611 68.3752 17.4715C68.5575 17.3321 68.6814 17.1308 68.7232 16.9063L68.8037 16.6426L66.8271 11.2076H68.0008L69.3699 15.5088H69.4551L70.8194 11.2076H71.9622L69.9265 16.8464C69.4599 18.164 68.9435 18.5868 67.8303 18.5868C67.7403 18.5868 67.4845 18.5768 67.3838 18.5621Z" fill="white"/>
<path d="M72.8027 15.0859H73.8759C73.9813 15.5633 74.4327 15.8123 75.064 15.8123C75.7818 15.8123 76.2224 15.4987 76.2224 15.0114C76.2224 14.4894 75.8268 14.2404 75.064 14.2404H74.2467V13.4101H75.0498C75.7013 13.4101 76.0329 13.1618 76.0329 12.709C76.0329 12.3115 75.7119 12.008 75.0498 12.008C74.4468 12.008 74.0062 12.2616 73.9363 12.6891H72.8975C72.9752 12.1979 73.2442 11.7565 73.6467 11.4599C74.0492 11.1634 74.553 11.0352 75.0498 11.1031C76.348 11.1031 77.0907 11.685 77.0907 12.5998C77.0968 12.8546 77.0144 13.1037 76.8575 13.3055C76.7005 13.5073 76.4784 13.6495 76.2284 13.7084V13.793C76.5261 13.8311 76.7993 13.9762 76.9963 14.2008C77.1932 14.4254 77.3002 14.7138 77.2968 15.0114C77.2968 16.0408 76.4132 16.7219 75.064 16.7219C73.8712 16.7218 72.9022 16.1799 72.8027 15.0859Z" fill="white"/>
<path d="M78.8477 16.6226V11.2076H79.9161V14.9322H80.0014L82.5185 11.2077H83.5869V16.6227H82.5185V12.8782H82.4379L79.9161 16.6227L78.8477 16.6226Z" fill="white"/>
<path d="M89.4712 12.1072H87.7512V16.6226H86.6721V12.1072H84.9521V11.2077H89.4712V12.1072Z" fill="white"/>
<path d="M95.2755 15.1606C95.1286 15.6554 94.811 16.0834 94.3783 16.3698C93.9455 16.6561 93.4249 16.7826 92.9076 16.7272C92.5478 16.7366 92.1902 16.6683 91.8597 16.5269C91.5291 16.3856 91.2336 16.1746 90.9935 15.9087C90.7535 15.6428 90.5747 15.3282 90.4695 14.9869C90.3644 14.6456 90.3354 14.2857 90.3846 13.9322C90.3367 13.5776 90.3662 13.2169 90.4711 12.8745C90.576 12.5322 90.7539 12.2162 90.9927 11.948C91.2314 11.6797 91.5256 11.4654 91.8552 11.3197C92.1847 11.1739 92.542 11.1001 92.9029 11.1031C94.4226 11.1031 95.3406 12.1325 95.3406 13.8329V14.2058H91.4839V14.2657C91.4668 14.4645 91.4918 14.6646 91.5574 14.8532C91.623 15.0417 91.7276 15.2146 91.8646 15.3607C92.0016 15.5068 92.1679 15.6229 92.3529 15.7015C92.5378 15.7801 92.7373 15.8194 92.9385 15.817C93.1961 15.8475 93.4571 15.8014 93.6883 15.6845C93.9195 15.5677 94.1103 15.3853 94.2367 15.1605L95.2755 15.1606ZM91.4838 13.4155H94.2414C94.255 13.2338 94.2302 13.0513 94.1684 12.8798C94.1067 12.7082 94.0095 12.5514 93.883 12.4193C93.7565 12.2872 93.6035 12.1827 93.4339 12.1127C93.2643 12.0427 93.0818 12.0086 92.8982 12.0127C92.7117 12.0102 92.5266 12.0447 92.3538 12.1143C92.181 12.184 92.0241 12.2872 91.8922 12.418C91.7604 12.5487 91.6563 12.7044 91.5862 12.8757C91.516 13.047 91.4812 13.2306 91.4839 13.4155H91.4838Z" fill="white"/>
<path d="M99.8447 11.2076H102.307C103.376 11.2076 104.002 11.7443 104.002 12.5846C104.004 12.8512 103.913 13.1103 103.745 13.3185C103.577 13.5267 103.342 13.6714 103.08 13.7284V13.8129C103.399 13.8329 103.698 13.9736 103.915 14.2059C104.132 14.4382 104.251 14.7445 104.248 15.0613C104.248 16.0061 103.531 16.6226 102.332 16.6226H99.8447V11.2076ZM100.913 12.0279V13.4301H101.982C102.633 13.4301 102.945 13.1817 102.945 12.7237C102.945 12.3016 102.673 12.0279 102.101 12.0279L100.913 12.0279ZM100.913 14.2158V15.8024H102.191C102.829 15.8024 103.17 15.5235 103.17 15.0114C103.17 14.4695 102.784 14.2158 102.056 14.2158L100.913 14.2158Z" fill="white"/>
</svg>
