<svg width="146" height="46" viewBox="0 0 146 46" fill="none" xmlns="http://www.w3.org/2000/svg">
<path d="M29.1997 27.9219L24.7656 23.1724V22.8274L29.1997 18.0779L29.297 18.1469L34.6071 21.3439C36.1212 22.2524 36.1212 23.7474 34.6071 24.6674L29.3187 27.8644L29.1997 27.9219Z" fill="url(#paint0_linear_6972_112)"/>
<path d="M73.6919 25.0126C72.7807 25.0148 71.8906 25.3044 71.1342 25.8446C70.3778 26.3848 69.7889 27.1514 69.4422 28.0474C69.0955 28.9435 69.0064 29.9287 69.1863 30.8786C69.3662 31.8284 69.8069 32.7003 70.4527 33.3838C71.0985 34.0673 71.9205 34.5318 72.8146 34.7186C73.7087 34.9054 74.6348 34.8061 75.4758 34.4332C76.3168 34.0603 77.035 33.4306 77.5394 32.6237C78.0439 31.8168 78.312 30.869 78.3099 29.9001C78.3187 29.2537 78.2051 28.612 77.9759 28.0133C77.7467 27.4146 77.4065 26.871 76.9756 26.415C76.5447 25.959 76.032 25.5998 75.4678 25.3589C74.9037 25.1179 74.2998 25.0001 73.6919 25.0126V25.0126ZM73.6919 32.8671C73.1334 32.9086 72.5761 32.7705 72.0924 32.4708C71.6087 32.171 71.2209 31.7234 70.9796 31.1863C70.7383 30.6491 70.6545 30.0471 70.7391 29.4586C70.8238 28.8701 71.073 28.3223 71.4543 27.8865C71.8356 27.4506 72.3315 27.1467 72.8773 27.0144C73.4232 26.8822 73.9939 26.9276 74.5151 27.1448C75.0364 27.3619 75.4842 27.7408 75.8003 28.2322C76.1164 28.7236 76.2861 29.3047 76.2875 29.9001C76.3049 30.2773 76.2511 30.6544 76.1293 31.0091C76.0075 31.3639 75.8201 31.6891 75.5782 31.9657C75.3363 32.2422 75.0448 32.4644 74.7208 32.6192C74.3968 32.774 74.047 32.8583 73.6919 32.8671ZM63.6125 25.0126C62.7013 25.0148 61.8112 25.3044 61.0548 25.8446C60.2983 26.3848 59.7095 27.1514 59.3628 28.0474C59.0161 28.9435 58.927 29.9287 59.1069 30.8786C59.2868 31.8284 59.7275 32.7003 60.3733 33.3838C61.0191 34.0673 61.8411 34.5318 62.7352 34.7186C63.6293 34.9054 64.5554 34.8061 65.3964 34.4332C66.2374 34.0603 66.9556 33.4306 67.46 32.6237C67.9645 31.8168 68.2326 30.869 68.2305 29.9001C68.2393 29.2537 68.1257 28.612 67.8965 28.0133C67.6672 27.4146 67.3271 26.871 66.8962 26.415C66.4653 25.959 65.9525 25.5998 65.3884 25.3589C64.8243 25.1179 64.2203 25.0001 63.6125 25.0126V25.0126ZM63.6125 32.8671C63.054 32.9086 62.4967 32.7705 62.013 32.4708C61.5293 32.171 61.1415 31.7234 60.9002 31.1863C60.6589 30.6491 60.5751 30.0471 60.6597 29.4586C60.7444 28.8701 60.9936 28.3223 61.3749 27.8865C61.7562 27.4506 62.2521 27.1467 62.7979 27.0144C63.3438 26.8822 63.9145 26.9276 64.4357 27.1448C64.957 27.3619 65.4048 27.7408 65.7209 28.2322C66.037 28.7236 66.2067 29.3047 66.2081 29.9001C66.2255 30.2773 66.1717 30.6544 66.0499 31.0091C65.9281 31.3639 65.7407 31.6891 65.4988 31.9657C65.2569 32.2422 64.9654 32.4644 64.6414 32.6192C64.3174 32.774 63.9676 32.8583 63.6125 32.8671ZM51.6297 26.5191V28.5891H56.3017C56.2285 29.564 55.8473 30.484 55.2202 31.1996C54.7516 31.7073 54.1879 32.1048 53.5657 32.3663C52.9435 32.6277 52.2766 32.7474 51.6081 32.7176C50.2313 32.7176 48.9109 32.136 47.9374 31.1008C46.9639 30.0656 46.417 28.6616 46.417 27.1976C46.417 25.7336 46.9639 24.3295 47.9374 23.2943C48.9109 22.2591 50.2313 21.6776 51.6081 21.6776C52.928 21.6567 54.2024 22.1897 55.1553 23.1611L56.5288 21.7006C55.8842 21.0226 55.1189 20.4883 54.2777 20.1289C53.4364 19.7695 52.5362 19.5923 51.6297 19.6076C50.6683 19.5678 49.7092 19.7348 48.8099 20.0986C47.9106 20.4624 47.0896 21.0155 46.3962 21.7247C45.7027 22.434 45.151 23.2848 44.7742 24.2262C44.3974 25.1676 44.2031 26.1802 44.2031 27.2033C44.2031 28.2264 44.3974 29.239 44.7742 30.1804C45.151 31.1218 45.7027 31.9726 46.3962 32.6819C47.0896 33.3912 47.9106 33.9442 48.8099 34.308C49.7092 34.6718 50.6683 34.8388 51.6297 34.7991C52.5548 34.8383 53.4773 34.6691 54.3366 34.3024C55.1958 33.9358 55.9724 33.38 56.6153 32.6716C57.751 31.3449 58.3562 29.6001 58.3025 27.8071C58.3063 27.3755 58.2738 26.9444 58.2051 26.5191H51.6297ZM100.632 28.1291C100.35 27.2467 99.8222 26.4763 99.1192 25.9197C98.4162 25.3632 97.5709 25.0469 96.6951 25.0126C96.1035 25.0113 95.518 25.1391 94.9747 25.3881C94.4314 25.637 93.9419 26.0018 93.5365 26.4599C93.131 26.9179 92.8182 27.4596 92.6174 28.0513C92.4167 28.643 92.3322 29.2722 92.3691 29.9001C92.3599 30.9498 92.6703 31.9746 93.2539 32.8214C93.8376 33.6681 94.6631 34.2913 95.6074 34.598C96.5516 34.9046 97.5638 34.8782 98.4927 34.5227C99.4217 34.1672 100.218 33.5017 100.761 32.6256L99.1933 31.4756C98.9595 31.8899 98.6279 32.232 98.2315 32.468C97.835 32.7041 97.3873 32.8258 96.933 32.8211C96.4642 32.8416 96.0006 32.711 95.603 32.4462C95.2054 32.1814 94.8924 31.795 94.7051 31.3376L100.859 28.6351L100.632 28.1291ZM94.3591 29.7621C94.3371 29.4048 94.3825 29.0466 94.4924 28.7082C94.6023 28.3699 94.7746 28.0582 94.9992 27.7916C95.2238 27.5249 95.4961 27.3086 95.8003 27.1552C96.1045 27.0019 96.4345 26.9146 96.7708 26.8986C97.1192 26.8759 97.4662 26.9632 97.7682 27.1493C98.0703 27.3355 98.3139 27.6123 98.4687 27.9451L94.3591 29.7621ZM89.3626 34.5001H91.385V20.1251H89.3626V34.5001ZM86.0533 26.1051H85.9776C85.6755 25.7392 85.3026 25.447 84.8845 25.2486C84.4664 25.0501 84.0129 24.95 83.5551 24.9551C82.3732 25.016 81.2587 25.5581 80.4425 26.4691C79.6263 27.3801 79.1711 28.5901 79.1711 29.8483C79.1711 31.1065 79.6263 32.3165 80.4425 33.2275C81.2587 34.1385 82.3732 34.6806 83.5551 34.7416C84.0136 34.7513 84.4684 34.6533 84.8872 34.4545C85.306 34.2557 85.6783 33.9611 85.9776 33.5916H86.0533V34.2931C86.0533 36.1676 85.1124 37.1681 83.5983 37.1681C83.0925 37.1562 82.6015 36.9849 82.1875 36.6757C81.7735 36.3665 81.4552 35.9335 81.2731 35.4316L79.5211 36.2021C79.845 37.0671 80.4082 37.8073 81.1362 38.3248C81.8642 38.8422 82.7227 39.1126 83.5983 39.1001C85.9668 39.1001 87.9242 37.6166 87.9242 34.0056V25.3001H86.0533V26.1051ZM83.7281 32.8671C83.0195 32.8201 82.3544 32.4876 81.8683 31.9375C81.3821 31.3873 81.1115 30.6607 81.1115 29.9058C81.1115 29.1509 81.3821 28.4243 81.8683 27.8741C82.3544 27.324 83.0195 26.9915 83.7281 26.9446C84.0744 26.9605 84.4142 27.0503 84.7272 27.2086C85.0403 27.367 85.3201 27.5907 85.5502 27.8665C85.7802 28.1422 85.9558 28.4644 86.0663 28.8137C86.1769 29.1631 86.2203 29.5325 86.1939 29.9001C86.2234 30.2689 86.1822 30.6402 86.0729 30.9916C85.9636 31.343 85.7884 31.6672 85.5579 31.9445C85.3274 32.2219 85.0464 32.4466 84.7319 32.6052C84.4174 32.7638 84.0759 32.8528 83.7281 32.8671V32.8671ZM110.105 20.1251H105.26V34.5001H107.283V29.0491H110.105C110.682 29.0931 111.261 29.0104 111.806 28.8061C112.351 28.6018 112.85 28.2803 113.273 27.8617C113.696 27.443 114.033 26.9362 114.264 26.3728C114.495 25.8094 114.614 25.2015 114.614 24.5871C114.614 23.9726 114.495 23.3647 114.264 22.8013C114.033 22.2379 113.696 21.7311 113.273 21.3124C112.85 20.8938 112.351 20.5723 111.806 20.368C111.261 20.1637 110.682 20.081 110.105 20.1251V20.1251ZM110.105 27.0251H107.283V22.1261H110.149C110.453 22.1261 110.754 22.1897 111.034 22.3134C111.315 22.4371 111.57 22.6183 111.785 22.8469C112 23.0754 112.171 23.3467 112.287 23.6453C112.403 23.9439 112.463 24.2639 112.463 24.5871C112.463 24.9102 112.403 25.2303 112.287 25.5288C112.171 25.8274 112 26.0987 111.785 26.3272C111.57 26.5558 111.315 26.737 111.034 26.8607C110.754 26.9844 110.453 27.0481 110.149 27.0481L110.105 27.0251ZM122.586 24.9666C121.849 24.9183 121.116 25.1006 120.476 25.491C119.835 25.8814 119.317 26.4627 118.984 27.1631L120.769 27.9566C120.949 27.6109 121.22 27.3281 121.548 27.1424C121.876 26.9567 122.248 26.876 122.618 26.9101C122.875 26.8782 123.135 26.901 123.383 26.9771C123.632 27.0533 123.863 27.1813 124.065 27.3536C124.266 27.526 124.433 27.7392 124.556 27.981C124.679 28.2227 124.756 28.4881 124.781 28.7616V28.8996C124.131 28.5361 123.407 28.3466 122.672 28.3476C120.747 28.3476 118.779 29.4976 118.779 31.5906C118.798 32.0354 118.901 32.4717 119.082 32.8734C119.262 33.2752 119.517 33.6342 119.831 33.9292C120.145 34.2242 120.511 34.4491 120.908 34.5907C121.305 34.7322 121.725 34.7874 122.142 34.7531C122.65 34.7829 123.156 34.6687 123.608 34.4222C124.06 34.1756 124.443 33.8056 124.716 33.3501H124.781V34.5001H126.728V28.9686C126.728 26.4501 124.933 24.9896 122.629 24.9896L122.586 24.9666ZM122.337 32.8441C121.677 32.8441 120.758 32.4876 120.758 31.6251C120.758 30.4751 121.904 30.0841 122.921 30.0841C123.563 30.0672 124.198 30.234 124.76 30.5671C124.692 31.1916 124.413 31.7688 123.976 32.1917C123.538 32.6146 122.971 32.8545 122.38 32.8671L122.337 32.8441ZM133.822 25.3001L131.508 31.5331H131.443L129.042 25.3001H126.879L130.481 34.0171L128.426 38.8586H130.535L136.072 25.3001H133.822ZM115.653 34.5001H117.665V20.1251H115.653V34.5001Z" fill="white"/>
<path d="M11.2903 8.67096C10.9339 9.11902 10.7521 9.69499 10.782 10.281V35.719C10.7452 36.3059 10.9279 36.8845 11.2903 37.329L11.366 37.421L24.7656 23.1725V22.8275L11.366 8.59045L11.2903 8.67096Z" fill="url(#paint1_linear_6972_112)"/>
<path d="M29.3301 27.8531L24.7663 23.0001L11.291 37.3291C11.5966 37.6183 11.9878 37.7847 12.3967 37.7994C12.8056 37.8141 13.2064 37.6762 13.5297 37.4096L29.3301 27.8531" fill="url(#paint2_linear_6972_112)"/>
<path d="M29.3301 18.1469L13.5297 8.60194C13.2085 8.33159 12.808 8.19031 12.3985 8.20293C11.9891 8.21555 11.5969 8.38126 11.291 8.67094L24.7663 22.9999L29.3301 18.1469Z" fill="url(#paint3_linear_6972_112)"/>
<path opacity="0.12" d="M34.6066 24.4951L29.1992 27.7496L29.2966 27.8531L34.6066 24.6561C34.9201 24.5151 35.192 24.2869 35.3937 23.9955C35.5955 23.7041 35.7196 23.3602 35.753 23.0001C35.6854 23.3273 35.5464 23.6331 35.3473 23.8928C35.1482 24.1525 34.8945 24.3588 34.6066 24.4951Z" fill="black"/>
<path d="M45.5405 16.4104H44.751V14.1104H45.4215C45.7232 13.7622 45.95 13.3483 46.0864 12.8975C46.2227 12.4468 46.2652 11.9699 46.211 11.4999V8.04993H50.5369V14.0989H51.2615V16.3989H50.4612V14.9499H45.5405V16.4104ZM47.0437 11.4999C47.092 12.4237 46.8771 13.3415 46.4273 14.1334H49.6717V8.90093H47.0437V11.4999Z" fill="white"/>
<path d="M57.7616 14.0529C57.4502 14.3849 57.0802 14.6484 56.6728 14.8282C56.2655 15.0079 55.8288 15.1005 55.3877 15.1005C54.9467 15.1005 54.51 15.0079 54.1027 14.8282C53.6953 14.6484 53.3253 14.3849 53.0139 14.0529C52.3952 13.3658 52.0498 12.4512 52.0498 11.4999C52.0498 10.5486 52.3952 9.63399 53.0139 8.94688C53.3253 8.61481 53.6953 8.35135 54.1027 8.17159C54.51 7.99182 54.9467 7.89929 55.3877 7.89929C55.8288 7.89929 56.2655 7.99182 56.6728 8.17159C57.0802 8.35135 57.4502 8.61481 57.7616 8.94688C58.074 9.28267 58.3201 9.68153 58.4854 10.12C58.6507 10.5584 58.7319 11.0276 58.7241 11.4999C58.7369 11.9729 58.658 12.4436 58.4925 12.8828C58.3269 13.322 58.0781 13.7203 57.7616 14.0529V14.0529ZM53.6195 13.4779C53.8474 13.7295 54.1214 13.9288 54.4246 14.0633C54.7279 14.1978 55.0538 14.2647 55.3823 14.2599C55.7111 14.2668 56.0377 14.2009 56.3412 14.0662C56.6447 13.9316 56.9185 13.7312 57.1451 13.4779C57.6118 12.9387 57.8708 12.2327 57.8708 11.4999C57.8708 10.7671 57.6118 10.0611 57.1451 9.52188C56.9185 9.26854 56.6447 9.06817 56.3412 8.93353C56.0377 8.7989 55.7111 8.73295 55.3823 8.73988C55.0538 8.73503 54.7279 8.80193 54.4246 8.93644C54.1214 9.07095 53.8474 9.27021 53.6195 9.52188C53.1597 10.0647 52.9053 10.7693 52.9053 11.4999C52.9053 12.2304 53.1597 12.9351 53.6195 13.4779Z" fill="white"/>
<path d="M62.9198 15.0994C62.4822 15.1067 62.0478 15.0198 61.6426 14.8439C61.2374 14.668 60.8699 14.4068 60.5622 14.0759C59.9381 13.3825 59.5898 12.4597 59.5898 11.4999C59.5898 10.5401 59.9381 9.61736 60.5622 8.92391C60.875 8.58735 61.2495 8.32281 61.6625 8.14674C62.0756 7.97066 62.5183 7.88682 62.9631 7.90041C63.4158 7.88679 63.8655 7.98331 64.2778 8.18261C64.6902 8.38191 65.0543 8.67873 65.3423 9.05041L64.7691 9.64841C64.5567 9.35794 64.2817 9.12592 63.9675 8.97184C63.6532 8.81776 63.3088 8.74611 62.9631 8.76291C62.6302 8.75388 62.2991 8.8176 61.9903 8.95014C61.6815 9.08267 61.4015 9.28119 61.1678 9.53341C60.7019 10.0776 60.4438 10.787 60.4438 11.5229C60.4438 12.2588 60.7019 12.9682 61.1678 13.5124C61.4015 13.7646 61.6815 13.9631 61.9903 14.0957C62.2991 14.2282 62.6302 14.2919 62.9631 14.2829C63.3347 14.2717 63.6995 14.1743 64.032 13.9975C64.3645 13.8207 64.6567 13.5688 64.8881 13.2594L65.4721 13.8689C65.1758 14.2464 64.8071 14.5523 64.3906 14.7659C63.9305 14.9945 63.4275 15.1085 62.9198 15.0994Z" fill="white"/>
<path d="M68.8684 14.9499H68.0356V8.90093H66.2188V8.04993H70.6745V8.90093H68.8684V14.9499Z" fill="white"/>
<path d="M76.4057 8.04993L73.9507 13.8689C73.8912 14.1022 73.7846 14.319 73.6385 14.5042C73.4923 14.6893 73.3101 14.8385 73.1043 14.9413C72.8986 15.0442 72.6743 15.0982 72.4469 15.0997C72.2196 15.1012 71.9947 15.0501 71.7877 14.9499L72.004 14.1334C72.1364 14.2125 72.2849 14.2559 72.4366 14.2599C72.5967 14.2685 72.7553 14.2243 72.8909 14.1334C73.0222 14.0172 73.1228 13.8666 73.1828 13.6964L73.4208 13.1444L71.2578 8.04993H72.242L73.8426 12.0059L75.4215 8.04993H76.4057Z" fill="white"/>
<path d="M77.3477 14.9499V8.04993H82.0413V14.9499H81.2085V8.90093H78.1804V14.9499H77.3477Z" fill="white"/>
<path d="M83.5225 14.9499V8.04993H84.3552V11.0054H87.5996V8.04993H88.4432V14.9499H87.5996V11.8334H84.3552V14.9499H83.5225Z" fill="white"/>
<path d="M95.2343 14.0529C94.922 14.3853 94.5511 14.649 94.1428 14.8289C93.7346 15.0088 93.297 15.1014 92.8551 15.1014C92.4131 15.1014 91.9755 15.0088 91.5673 14.8289C91.1591 14.649 90.7882 14.3853 90.4758 14.0529C89.8571 13.3658 89.5117 12.4512 89.5117 11.4999C89.5117 10.5486 89.8571 9.63399 90.4758 8.94688C90.7872 8.61481 91.1572 8.35135 91.5646 8.17159C91.9719 7.99182 92.4086 7.89929 92.8497 7.89929C93.2907 7.89929 93.7274 7.99182 94.1347 8.17159C94.5421 8.35135 94.9121 8.61481 95.2235 8.94688C95.8373 9.63666 96.1793 10.5502 96.1793 11.4999C96.1793 12.4495 95.8373 13.3631 95.2235 14.0529H95.2343ZM91.0922 13.4779C91.3189 13.7312 91.5927 13.9316 91.8962 14.0662C92.1997 14.2009 92.5263 14.2668 92.8551 14.2599C93.1836 14.2647 93.5095 14.1978 93.8128 14.0633C94.116 13.9288 94.39 13.7295 94.6179 13.4779C95.0777 12.9351 95.3321 12.2304 95.3321 11.4999C95.3321 10.7693 95.0777 10.0647 94.6179 9.52188C94.39 9.27021 94.116 9.07095 93.8128 8.93644C93.5095 8.80193 93.1836 8.73503 92.8551 8.73988C92.5263 8.73295 92.1997 8.7989 91.8962 8.93353C91.5927 9.06817 91.3189 9.26854 91.0922 9.52188C90.6256 10.0611 90.3666 10.7671 90.3666 11.4999C90.3666 12.2327 90.6256 12.9387 91.0922 13.4779V13.4779Z" fill="white"/>
<path d="M99.5928 14.9499V8.04991H101.94C102.426 8.04472 102.897 8.23344 103.259 8.57891C103.44 8.74567 103.584 8.95263 103.681 9.18514C103.778 9.41765 103.826 9.67002 103.821 9.92441C103.824 10.2342 103.741 10.538 103.583 10.7984C103.424 11.0453 103.203 11.2404 102.945 11.3619V11.3619C103.258 11.4754 103.532 11.6832 103.735 11.9599C103.934 12.2417 104.04 12.5851 104.038 12.9374C104.043 13.2025 103.994 13.4657 103.893 13.7082C103.792 13.9506 103.642 14.1665 103.454 14.3404C103.078 14.7118 102.582 14.9138 102.069 14.9039L99.5928 14.9499ZM100.426 11.0054H101.94C102.081 11.0141 102.223 10.9887 102.354 10.9309C102.485 10.8731 102.602 10.7846 102.697 10.6719C102.88 10.4808 102.985 10.2204 102.989 9.94741C102.999 9.67356 102.91 9.40598 102.74 9.19991C102.649 9.09266 102.537 9.00817 102.412 8.95249C102.286 8.89681 102.151 8.87134 102.015 8.87791H100.458L100.426 11.0054ZM100.426 14.0989H102.113C102.259 14.1041 102.405 14.0749 102.539 14.0133C102.674 13.9516 102.794 13.8591 102.891 13.7424C103.078 13.5303 103.182 13.2509 103.183 12.9604C103.177 12.6723 103.069 12.3973 102.88 12.1899C102.776 12.0735 102.65 11.9816 102.51 11.9202C102.371 11.8588 102.22 11.8293 102.069 11.8334H100.426V14.0989Z" fill="white"/>
<defs>
<linearGradient id="paint0_linear_6972_112" x1="36.5862" y1="22.9999" x2="10.4252" y2="22.9999" gradientUnits="userSpaceOnUse">
<stop stop-color="#FFE000"/>
<stop offset="0.41" stop-color="#FFBD00"/>
<stop offset="0.78" stop-color="#FFA500"/>
<stop offset="1" stop-color="#FF9C00"/>
</linearGradient>
<linearGradient id="paint1_linear_6972_112" x1="23.5759" y1="10.0165" x2="4.31528" y2="28.1295" gradientUnits="userSpaceOnUse">
<stop stop-color="#00A0FF"/>
<stop offset="0.01" stop-color="#00A1FF"/>
<stop offset="0.26" stop-color="#00BEFF"/>
<stop offset="0.51" stop-color="#00D2FF"/>
<stop offset="0.76" stop-color="#00DFFF"/>
<stop offset="1" stop-color="#00E3FF"/>
</linearGradient>
<linearGradient id="paint2_linear_6972_112" x1="26.8535" y1="25.6451" x2="0.729541" y2="50.2017" gradientUnits="userSpaceOnUse">
<stop stop-color="#FF3A44"/>
<stop offset="1" stop-color="#C31162"/>
</linearGradient>
<linearGradient id="paint3_linear_6972_112" x1="7.89516" y1="0.206942" x2="19.5572" y2="11.1741" gradientUnits="userSpaceOnUse">
<stop stop-color="#32A071"/>
<stop offset="0.07" stop-color="#2DA771"/>
<stop offset="0.48" stop-color="#15CF74"/>
<stop offset="0.8" stop-color="#06E775"/>
<stop offset="1" stop-color="#00F076"/>
</linearGradient>
</defs>
</svg>
