<svg width="146" height="46" viewBox="0 0 146 46" fill="none" xmlns="http://www.w3.org/2000/svg">
<path d="M31.2554 22.8658C31.269 21.822 31.5486 20.7986 32.0682 19.8908C32.5878 18.983 33.3305 18.2202 34.2273 17.6735C33.6576 16.8668 32.906 16.2028 32.0323 15.7344C31.1586 15.266 30.1868 15.0061 29.1941 14.9753C27.0764 14.7549 25.0234 16.2319 23.9443 16.2319C22.8443 16.2319 21.1828 14.9972 19.3936 15.0337C18.2363 15.0708 17.1085 15.4045 16.12 16.0023C15.1314 16.6001 14.3159 17.4417 13.7529 18.445C11.314 22.6323 13.1332 28.7862 15.4695 32.1709C16.6384 33.8283 18.0045 35.6796 19.792 35.614C21.5412 35.542 22.1945 34.5079 24.306 34.5079C26.3978 34.5079 27.0107 35.614 28.8345 35.5722C30.7115 35.542 31.8941 33.9075 33.022 32.2344C33.8619 31.0534 34.5081 29.7482 34.9369 28.3671C33.8464 27.9098 32.9158 27.1442 32.2611 26.1659C31.6065 25.1876 31.2567 24.0399 31.2554 22.8658Z" fill="#18212F"/>
<path d="M27.811 12.7493C28.8344 11.531 29.3386 9.96512 29.2165 8.38416C27.653 8.547 26.2087 9.28801 25.1715 10.4595C24.6643 11.0319 24.2759 11.6977 24.0284 12.419C23.7809 13.1402 23.6792 13.9028 23.7291 14.6631C24.5112 14.671 25.2849 14.503 25.9919 14.1715C26.6989 13.84 27.3209 13.3537 27.811 12.7493V12.7493Z" fill="#18212F"/>
<path d="M52.2415 31.5846H46.5012L45.1227 35.6209H42.6914L48.1285 20.6876H50.6545L56.0916 35.6209H53.6188L52.2415 31.5846ZM47.0958 29.7221H51.6458L49.4028 23.1714H49.34L47.0958 29.7221Z" fill="#18212F"/>
<path d="M67.8346 30.1777C67.8346 33.5611 66.0084 35.7348 63.2526 35.7348C62.5545 35.771 61.8602 35.6116 61.2492 35.2747C60.6383 34.9378 60.1354 34.4371 59.798 33.83H59.7459V39.2227H57.4922V24.7334H59.6736V26.5442H59.7151C60.0679 25.94 60.5794 25.4419 61.195 25.103C61.8106 24.764 62.5073 24.5969 63.2111 24.6194C65.9977 24.6195 67.8346 26.8038 67.8346 30.1777ZM65.5181 30.1777C65.5181 27.9735 64.3693 26.5243 62.6166 26.5243C60.8947 26.5243 59.7364 28.004 59.7364 30.1777C59.7364 32.3714 60.8947 33.8406 62.6166 33.8406C64.3694 33.8406 65.5181 32.402 65.5181 30.1777H65.5181Z" fill="#18212F"/>
<path d="M79.9191 30.1777C79.9191 33.5611 78.0924 35.7348 75.3366 35.7348C74.6385 35.771 73.9442 35.6116 73.3332 35.2747C72.7223 34.9378 72.2193 34.4371 71.882 33.83H71.8299V39.2227H69.5762V24.7334H71.7576V26.5442H71.7991C72.1519 25.94 72.6633 25.4419 73.279 25.103C73.8946 24.764 74.5913 24.5969 75.2951 24.6194C78.0817 24.6195 79.9191 26.8038 79.9191 30.1777ZM77.6021 30.1777C77.6021 27.9735 76.4533 26.5243 74.7006 26.5243C72.9787 26.5243 71.8204 28.004 71.8204 30.1777C71.8204 32.3714 72.9787 33.8406 74.7006 33.8406C76.4533 33.8406 77.6021 32.402 77.6021 30.1777V30.1777Z" fill="#18212F"/>
<path d="M87.9047 31.4602C88.0717 32.941 89.5224 33.9134 91.5049 33.9134C93.4045 33.9134 94.7712 32.941 94.7712 31.6057C94.7712 30.4466 93.9469 29.7526 91.9952 29.277L90.0435 28.8107C87.2782 28.1484 85.9945 26.866 85.9945 24.785C85.9945 22.2084 88.2588 20.4387 91.4729 20.4387C94.6563 20.4387 96.8378 22.2084 96.9112 24.785H94.6361C94.5 23.2947 93.2576 22.3952 91.4421 22.3952C89.6266 22.3952 88.3843 23.3053 88.3843 24.63C88.3843 25.6857 89.1778 26.307 91.1188 26.7826L92.778 27.1865C95.8678 27.9111 97.1504 29.1419 97.1504 31.3262C97.1504 34.12 94.9073 35.8698 91.3379 35.8698C87.9982 35.8698 85.7433 34.1611 85.5977 31.46L87.9047 31.4602Z" fill="#18212F"/>
<path d="M102.017 22.1568V24.7334H104.105V26.5031H102.017V32.5053C102.017 33.4378 102.435 33.8723 103.353 33.8723C103.601 33.868 103.848 33.8507 104.094 33.8206V35.5798C103.682 35.6562 103.262 35.6909 102.842 35.6831C100.62 35.6831 99.7527 34.8552 99.7527 32.7437V26.5031H98.1562V24.7334H99.7526V22.1568H102.017Z" fill="#18212F"/>
<path d="M105.312 30.1777C105.312 26.7521 107.347 24.5995 110.52 24.5995C113.703 24.5995 115.728 26.7521 115.728 30.1777C115.728 33.6128 113.714 35.756 110.52 35.756C107.327 35.756 105.312 33.6127 105.312 30.1777ZM113.432 30.1777C113.432 27.8278 112.346 26.4409 110.52 26.4409C108.694 26.4409 107.608 27.8384 107.608 30.1777C107.608 32.537 108.694 33.9134 110.52 33.9134C112.346 33.9134 113.432 32.537 113.432 30.1777H113.432Z" fill="#18212F"/>
<path d="M117.586 24.7334H119.735V26.5865H119.788C119.933 26.0077 120.275 25.4963 120.756 25.138C121.237 24.7798 121.827 24.5967 122.429 24.6194C122.688 24.6185 122.947 24.6465 123.201 24.7028V26.7932C122.873 26.6939 122.531 26.6482 122.188 26.6582C121.861 26.645 121.534 26.7022 121.231 26.826C120.928 26.9497 120.656 27.137 120.433 27.3749C120.21 27.6129 120.041 27.8959 119.939 28.2046C119.836 28.5133 119.803 28.8402 119.84 29.1631V35.6209H117.586L117.586 24.7334Z" fill="#18212F"/>
<path d="M133.592 32.4231C133.288 34.3996 131.347 35.756 128.864 35.756C125.67 35.756 123.688 33.6339 123.688 30.2294C123.688 26.8143 125.681 24.5995 128.769 24.5995C131.807 24.5995 133.717 26.6687 133.717 29.9699V30.7356H125.963V30.8706C125.927 31.2713 125.977 31.6749 126.111 32.0548C126.245 32.4346 126.458 32.7819 126.737 33.0735C127.017 33.3652 127.356 33.5946 127.731 33.7465C128.107 33.8984 128.511 33.9693 128.916 33.9545C129.449 34.004 129.983 33.8817 130.44 33.6057C130.897 33.3298 131.252 32.915 131.452 32.4231L133.592 32.4231ZM125.973 29.1736H131.462C131.483 28.8134 131.427 28.4528 131.301 28.1147C131.174 27.7765 130.978 27.468 130.725 27.2085C130.472 26.9491 130.168 26.7442 129.831 26.6069C129.495 26.4695 129.133 26.4026 128.769 26.4104C128.402 26.4082 128.038 26.4781 127.699 26.6161C127.359 26.7541 127.051 26.9574 126.791 27.2143C126.531 27.4712 126.325 27.7766 126.184 28.1129C126.044 28.4492 125.972 28.8097 125.973 29.1737V29.1736Z" fill="#18212F"/>
<path d="M45.4938 12.4806H46.4614C46.6279 12.5012 46.797 12.4873 46.9579 12.4399C47.1188 12.3925 47.268 12.3125 47.3962 12.205C47.5244 12.0976 47.6287 11.9649 47.7026 11.8155C47.7765 11.6661 47.8184 11.5031 47.8257 11.3368C47.8257 10.675 47.3235 10.2476 46.472 10.2476C46.3014 10.2239 46.1277 10.2344 45.9612 10.2785C45.7947 10.3225 45.6388 10.3991 45.5027 10.5039C45.3666 10.6087 45.253 10.7394 45.1687 10.8884C45.0844 11.0374 45.0311 11.2017 45.0118 11.3714H43.9495C43.9678 11.0632 44.0498 10.762 44.1906 10.4867C44.3313 10.2113 44.5278 9.96754 44.7676 9.77067C45.0075 9.57381 45.2856 9.42802 45.5848 9.34237C45.8839 9.25672 46.1976 9.23306 46.5064 9.27285C47.931 9.27285 48.9342 10.0638 48.9342 11.2023C48.9375 11.5838 48.8089 11.9548 48.5696 12.2535C48.3304 12.5521 47.995 12.7604 47.6196 12.8435V12.9281C48.0647 12.9476 48.4838 13.1411 48.7854 13.4663C49.087 13.7914 49.2465 14.2218 49.2291 14.6632C49.1961 14.9805 49.0996 15.2882 48.9453 15.568C48.7909 15.8479 48.5817 16.0944 48.33 16.2931C48.0783 16.4918 47.7891 16.6387 47.4794 16.7251C47.1697 16.8115 46.8458 16.8358 46.5265 16.7964C46.2066 16.8397 45.8812 16.8186 45.5696 16.7345C45.2581 16.6504 44.9668 16.5049 44.7132 16.3067C44.4595 16.1086 44.2487 15.8619 44.0933 15.5812C43.9379 15.3005 43.8411 14.9917 43.8086 14.6732H44.8875C44.9526 15.3596 45.5886 15.8024 46.5265 15.8024C47.4645 15.8024 48.0768 15.305 48.0768 14.6039C48.0768 13.8929 47.5 13.4548 46.4922 13.4548H45.4938V12.4806Z" fill="#18212F"/>
<path d="M50.4551 15.0912C50.4551 14.1165 51.1883 13.5546 52.4865 13.4747L53.966 13.3902V12.9228C53.966 12.3508 53.5858 12.0279 52.8478 12.0279C52.2461 12.0279 51.8303 12.2469 51.7095 12.6298H50.6659C50.7761 11.6997 51.6597 11.1031 52.8987 11.1031C54.2681 11.1031 55.0404 11.7789 55.0404 12.9228V16.6226H54.0015V15.8616H53.9163C53.7431 16.1346 53.5001 16.3571 53.2118 16.5065C52.9236 16.6559 52.6006 16.7267 52.2757 16.7118C52.0464 16.7355 51.8147 16.7112 51.5954 16.6406C51.3762 16.57 51.1743 16.4547 51.0027 16.302C50.8312 16.1493 50.6938 15.9627 50.5995 15.7541C50.5052 15.5456 50.456 15.3198 50.4551 15.0912V15.0912ZM53.966 14.6285V14.1758L52.6322 14.2604C51.88 14.3103 51.5389 14.5639 51.5389 15.0413C51.5389 15.5287 51.9653 15.8123 52.5517 15.8123C52.7235 15.8295 52.897 15.8123 53.062 15.7617C53.227 15.7111 53.38 15.6281 53.512 15.5177C53.6439 15.4072 53.7521 15.2716 53.8301 15.1188C53.9081 14.9661 53.9543 14.7993 53.966 14.6285V14.6285Z" fill="#18212F"/>
<path d="M57.9002 12.1072V16.6226H56.8223V11.2076H60.4185V12.1071L57.9002 12.1072Z" fill="#18212F"/>
<path d="M66.9482 13.9127C66.9482 15.6332 66.0706 16.7118 64.6921 16.7118C64.3537 16.7347 64.0158 16.6613 63.718 16.5002C63.4203 16.339 63.1752 16.0969 63.0116 15.8023H62.9263V18.4229H61.8486V11.2076H62.8861V12.1025H62.9666C63.1332 11.7976 63.3814 11.5442 63.6841 11.3704C63.9867 11.1967 64.3319 11.1092 64.6814 11.1178C66.0706 11.1177 66.9482 12.1917 66.9482 13.9127ZM65.8397 13.9127C65.8397 12.7689 65.2937 12.0778 64.3806 12.0778C63.4735 12.0778 62.9062 12.7836 62.9062 13.9174C62.9062 15.046 63.4735 15.7524 64.3759 15.7524C65.2937 15.7524 65.8397 15.0612 65.8397 13.9127Z" fill="#18212F"/>
<path d="M68.3838 18.5621V17.642C68.5004 17.6567 68.6179 17.6634 68.7355 17.662C68.9651 17.6788 69.1929 17.611 69.3752 17.4715C69.5575 17.3321 69.6814 17.1308 69.7232 16.9063L69.8037 16.6426L67.8271 11.2076H69.0008L70.3699 15.5088H70.4551L71.8194 11.2076H72.9622L70.9265 16.8464C70.4599 18.164 69.9435 18.5868 68.8303 18.5868C68.7403 18.5868 68.4845 18.5768 68.3838 18.5621Z" fill="#18212F"/>
<path d="M73.8027 15.0859H74.8759C74.9813 15.5633 75.4327 15.8123 76.064 15.8123C76.7818 15.8123 77.2224 15.4987 77.2224 15.0114C77.2224 14.4894 76.8268 14.2404 76.064 14.2404H75.2467V13.4101H76.0498C76.7013 13.4101 77.0329 13.1618 77.0329 12.709C77.0329 12.3115 76.7119 12.008 76.0498 12.008C75.4468 12.008 75.0062 12.2616 74.9363 12.6891H73.8975C73.9752 12.1979 74.2442 11.7565 74.6467 11.4599C75.0492 11.1634 75.553 11.0352 76.0498 11.1031C77.348 11.1031 78.0907 11.685 78.0907 12.5998C78.0968 12.8546 78.0144 13.1037 77.8575 13.3055C77.7005 13.5073 77.4784 13.6495 77.2284 13.7084V13.793C77.5261 13.8311 77.7993 13.9762 77.9963 14.2008C78.1932 14.4254 78.3002 14.7138 78.2968 15.0114C78.2968 16.0408 77.4132 16.7219 76.064 16.7219C74.8712 16.7218 73.9022 16.1799 73.8027 15.0859Z" fill="#18212F"/>
<path d="M79.8477 16.6226V11.2076H80.9161V14.9322H81.0014L83.5185 11.2077H84.5869V16.6227H83.5185V12.8782H83.4379L80.9161 16.6227L79.8477 16.6226Z" fill="#18212F"/>
<path d="M90.4712 12.1072H88.7512V16.6226H87.6721V12.1072H85.9521V11.2077H90.4712V12.1072Z" fill="#18212F"/>
<path d="M96.2755 15.1606C96.1286 15.6554 95.811 16.0834 95.3783 16.3698C94.9455 16.6561 94.4249 16.7826 93.9076 16.7272C93.5478 16.7366 93.1902 16.6683 92.8597 16.5269C92.5291 16.3856 92.2336 16.1746 91.9935 15.9087C91.7535 15.6428 91.5747 15.3282 91.4695 14.9869C91.3644 14.6456 91.3354 14.2857 91.3846 13.9322C91.3367 13.5776 91.3662 13.2169 91.4711 12.8745C91.576 12.5322 91.7539 12.2162 91.9927 11.948C92.2314 11.6797 92.5256 11.4654 92.8552 11.3197C93.1847 11.1739 93.542 11.1001 93.9029 11.1031C95.4226 11.1031 96.3406 12.1325 96.3406 13.8329V14.2058H92.4839V14.2657C92.4668 14.4645 92.4918 14.6646 92.5574 14.8532C92.623 15.0417 92.7276 15.2146 92.8646 15.3607C93.0016 15.5068 93.1679 15.6229 93.3529 15.7015C93.5378 15.7801 93.7373 15.8194 93.9385 15.817C94.1961 15.8475 94.4571 15.8014 94.6883 15.6845C94.9195 15.5677 95.1103 15.3853 95.2367 15.1605L96.2755 15.1606ZM92.4838 13.4155H95.2414C95.255 13.2338 95.2302 13.0513 95.1684 12.8798C95.1067 12.7082 95.0095 12.5514 94.883 12.4193C94.7565 12.2872 94.6035 12.1827 94.4339 12.1127C94.2643 12.0427 94.0818 12.0086 93.8982 12.0127C93.7117 12.0102 93.5266 12.0447 93.3538 12.1143C93.181 12.184 93.0241 12.2872 92.8922 12.418C92.7604 12.5487 92.6563 12.7044 92.5862 12.8757C92.516 13.047 92.4812 13.2306 92.4839 13.4155H92.4838Z" fill="#18212F"/>
<path d="M100.845 11.2076H103.307C104.376 11.2076 105.002 11.7443 105.002 12.5846C105.004 12.8512 104.913 13.1103 104.745 13.3185C104.577 13.5267 104.342 13.6714 104.08 13.7284V13.8129C104.399 13.8329 104.698 13.9736 104.915 14.2059C105.132 14.4382 105.251 14.7445 105.248 15.0613C105.248 16.0061 104.531 16.6226 103.332 16.6226H100.845V11.2076ZM101.913 12.0279V13.4301H102.982C103.633 13.4301 103.945 13.1817 103.945 12.7237C103.945 12.3016 103.673 12.0279 103.101 12.0279L101.913 12.0279ZM101.913 14.2158V15.8024H103.191C103.829 15.8024 104.17 15.5235 104.17 15.0114C104.17 14.4695 103.784 14.2158 103.056 14.2158L101.913 14.2158Z" fill="#18212F"/>
</svg>
