<svg width="265" height="64" viewBox="0 0 265 64" fill="none" xmlns="http://www.w3.org/2000/svg">
<g clip-path="url(#clip0_619_3035)">
<path d="M101.6 18.7355C105.09 18.7355 108.8 19.866 111.362 22.3445L108.403 27.084C106.724 25.6491 104.206 24.4751 101.909 24.4751C96.6967 24.4751 94.5763 28.0841 94.5763 31.78C94.5763 35.5629 96.9175 39.4763 101.909 39.4763C104.471 39.4763 107.033 38.0849 108.8 36.3456L112.069 40.9112C111.716 41.259 111.362 41.6069 110.965 41.9547C108.712 43.781 105.664 45.2159 101.6 45.2159C93.2511 45.2159 87.9502 39.5198 87.9502 31.9539C87.9502 24.4316 93.5603 18.7355 101.6 18.7355Z" fill="#18212F"/>
<path d="M126.205 18.7355C134.289 18.7355 139.811 24.4751 139.811 31.78C139.811 39.3024 134.289 45.1724 126.205 45.1724C118.121 45.1724 112.6 39.3024 112.6 31.78C112.644 24.4316 118.166 18.7355 126.205 18.7355ZM126.205 39.4328C130.313 39.4328 133.229 36.1282 133.229 31.78C133.229 27.6058 130.313 24.4316 126.205 24.4316C122.097 24.4316 119.182 27.5623 119.182 31.78C119.226 36.1717 122.097 39.4328 126.205 39.4328Z" fill="#18212F"/>
<path d="M143.3 19.1703H149.749L156.95 31.1278C157.966 32.8236 159.114 35.476 159.114 35.476H159.202C159.202 35.476 158.893 32.7366 158.893 31.1278V19.1703H165.254V44.7376H158.849L151.605 32.8236C150.589 31.1278 149.44 28.4754 149.44 28.4754H149.352C149.352 28.4754 149.661 31.2147 149.661 32.8236V44.7376H143.3V19.1703Z" fill="#18212F"/>
<path d="M177.049 24.5185H169.142V19.1703H191.317V24.5185H183.41V44.7376H177.049V24.5185Z" fill="#18212F"/>
<path d="M199.401 19.1703H206.072L214.906 44.7376H208.369L206.778 39.3893H198.65L197.104 44.7376H190.566L199.401 19.1703ZM205.276 34.3454L203.819 29.3885C203.333 27.7797 202.758 24.9968 202.758 24.9968H202.67C202.67 24.9968 202.096 27.7797 201.61 29.3885L200.108 34.3454H205.276Z" fill="#18212F"/>
<path d="M229.528 18.7355C233.017 18.7355 236.728 19.866 239.29 22.3445L236.331 27.084C234.652 25.6491 232.134 24.4751 229.837 24.4751C224.624 24.4751 222.504 28.0841 222.504 31.78C222.504 35.5629 224.845 39.4763 229.837 39.4763C232.399 39.4763 234.961 38.0849 236.728 36.3456L239.997 40.9112C237.7 43.2157 234.299 45.2159 229.528 45.2159C221.179 45.2159 215.878 39.5198 215.878 31.9539C215.922 24.4316 221.488 18.7355 229.528 18.7355Z" fill="#18212F"/>
<path d="M250.775 24.5185H242.868V19.1703H264.999V24.5185H257.136V44.7376H250.775V24.5185Z" fill="#18212F"/>
<path d="M64.8033 23.0836C64.0965 20.5617 61.4902 19.0398 58.9282 19.7355C56.3661 20.4312 54.82 22.9967 55.5268 25.5186C56.0568 27.4318 56.3219 29.4755 56.3219 31.4756C56.3219 44.1723 45.8526 54.4775 32.9538 54.4775C31.717 54.4775 30.5243 54.3905 29.3757 54.2166C34.8091 52.9991 38.8731 48.2161 38.8731 42.52C38.8731 35.8673 33.3956 30.519 26.6811 30.519C19.9225 30.519 14.4891 35.9108 14.4891 42.52C14.4891 43.8245 14.71 45.0419 15.0633 46.216C11.6619 42.2156 9.62994 37.0848 9.62994 31.5191C9.62994 21.0835 16.7861 11.9523 26.9903 9.2999C29.5524 8.64768 31.0985 6.03877 30.3917 3.51682C29.7291 0.994881 27.0787 -0.526981 24.5166 0.168728C10.0717 3.90816 0 16.8223 0 31.5626C0 49.4771 14.7983 64 32.9538 64C51.1535 64 65.9077 49.4336 65.9077 31.5626C65.9077 28.6493 65.5543 25.823 64.8033 23.0836Z" fill="#F58A1F"/>
<path d="M53.5418 10.9239C53.9745 6.62254 50.7829 2.79028 46.413 2.36434C42.0431 1.9384 38.1498 5.08008 37.7171 9.38148C37.2844 13.6829 40.4761 17.5151 44.846 17.9411C49.2158 18.367 53.1091 15.2253 53.5418 10.9239Z" fill="#F58A1F"/>
</g>
<defs>
<clipPath id="clip0_619_3035">
<rect width="265" height="64" fill="white"/>
</clipPath>
</defs>
</svg>
