<svg width="75" height="75" viewBox="0 0 75 75" fill="none" xmlns="http://www.w3.org/2000/svg">
<g clip-path="url(#clip0_7028_388)">
<path fill-rule="evenodd" clip-rule="evenodd" d="M7.8 75C3.525 75 0 71.4615 0 67.1923V24.8077H0.0375V7.07692C0.0375 3.19231 3.1875 0 7.0875 0H67.9125C71.775 0 75 3.19231 75 7.07692V24.8077V67.2308C75 71.5 71.475 75.0385 67.2 75.0385H7.8V75Z" fill="#005AA2"/>
<path fill-rule="evenodd" clip-rule="evenodd" d="M7.80039 74.1154H67.2004C70.9879 74.1154 74.1004 71 74.1004 67.1923V49.5385H0.900391V67.1923C0.900391 71 4.01289 74.1154 7.80039 74.1154Z" fill="white"/>
<path fill-rule="evenodd" clip-rule="evenodd" d="M65.3629 21.9231H66.1879C66.9379 21.9231 67.1254 22.3846 67.1254 22.6538C67.1254 23.0384 66.8254 23.3846 66.1879 23.3846H65.3629V21.9231ZM64.0879 19.2692V24.2308H66.4879C67.8754 24.2308 68.4754 23.5 68.4754 22.6154C68.4754 22.0384 68.2129 21 66.3754 21H65.3629V19.2308H64.0879V19.2692ZM69.2629 24.2308H70.5754V19.2692H69.2629V24.2308ZM58.1254 19.2692V24.2308H59.4379V22.1154H61.5379V24.2308H62.8504V19.2692H61.5379V21.1538H59.4379V19.2692H58.1254ZM55.5754 22V22.1154C55.5754 23.1923 54.9004 23.4615 54.3754 23.4615C53.8129 23.4615 53.5879 23.1923 53.5879 22.8077C53.5879 22 54.6379 22 55.3504 22H55.5754ZM52.8379 20.5769C53.5129 20.1923 54.0004 20.1538 54.4504 20.1538C55.0504 20.1538 55.5754 20.4615 55.5754 21V21.1923H55.4629C55.2004 21.1923 54.9754 21.1923 54.7129 21.1923C52.6129 21.1923 52.2379 22.1538 52.2379 22.8461C52.2379 23.6154 52.7629 24.3846 54.0004 24.3846C55.0879 24.3846 55.4629 23.7692 55.5754 23.5769V24.2308H56.8504V21.0769C56.8504 20.3461 56.6629 19.1923 54.6754 19.1923C54.0004 19.1923 53.4379 19.2692 52.8379 19.5V20.5769ZM48.4129 22.0769H49.2379C49.5379 22.0769 50.1004 22.1154 50.1004 22.7308C50.1004 23.3846 49.5004 23.3846 49.2379 23.3846H48.4129V22.0769ZM48.4129 20.1538H49.2379C49.5004 20.1538 49.9504 20.1923 49.9504 20.6923C49.9504 21.1923 49.4629 21.2308 49.2379 21.2308H48.4129V20.1538ZM47.1004 19.2692V24.2308H49.6504C50.7754 24.2308 51.4879 23.7308 51.4879 22.8461C51.4879 22.0384 50.9254 21.6538 50.3629 21.6154V21.5769C50.8879 21.4615 51.3004 21.0769 51.3004 20.4615C51.3004 19.9231 51.0004 19.2308 49.5754 19.2308H47.1004V19.2692ZM42.3754 21.7692C42.3754 20.6154 43.0129 20.1154 43.5754 20.1154C44.1754 20.1154 44.7754 20.5769 44.7754 21.7692C44.7754 22.9231 44.1754 23.3846 43.5754 23.3846C42.9754 23.3846 42.3754 22.9231 42.3754 21.7692ZM40.9879 21.7692C40.9879 23.4231 42.0754 24.3461 43.5754 24.3461C45.0754 24.3461 46.1629 23.4231 46.1629 21.7692C46.1629 20.0769 45.0754 19.1923 43.5754 19.1923C42.1129 19.1923 40.9879 20.1154 40.9879 21.7692ZM35.4754 19.2692L37.0129 21.6923L35.3254 24.2308H36.7879L37.5754 22.9231L37.8754 22.3461H37.9129L38.2129 22.9231L39.0379 24.2308H40.5754L38.9254 21.6923L40.4254 19.2692H39.0004L38.3629 20.4231L38.0629 21L37.7629 20.4231L37.0879 19.2692H35.4754ZM33.3004 22V22.1154C33.3004 23.1923 32.6629 23.4615 32.1004 23.4615C31.5004 23.4615 31.3129 23.1923 31.3129 22.8077C31.3129 22 32.3629 22 33.0754 22H33.3004ZM30.5629 20.5769C31.2379 20.1923 31.7254 20.1538 32.1754 20.1538C32.7754 20.1538 33.3004 20.4615 33.3004 21V21.1923H33.1879C32.9629 21.1923 32.7004 21.1923 32.4754 21.1923C30.3754 21.1923 30.0004 22.1538 30.0004 22.8461C30.0004 23.6154 30.5254 24.3846 31.7629 24.3846C32.8504 24.3846 33.2254 23.7692 33.3379 23.5769V24.2308H34.6129V21.0769C34.6129 20.3461 34.4254 19.1923 32.4004 19.1923C31.7254 19.1923 31.1629 19.2692 30.5629 19.5V20.5769ZM25.7254 21.7692C25.7254 20.6923 26.2879 20.2308 26.8129 20.2308C27.3379 20.2308 27.9004 20.6923 27.9004 21.7692C27.9004 22.8077 27.3379 23.3077 26.8129 23.3077C26.3254 23.3077 25.7254 22.8077 25.7254 21.7692ZM25.7254 26.3077V24.3846V23.5769C25.9879 24 26.4379 24.3461 27.1504 24.3461C28.2379 24.3461 29.2879 23.6154 29.2879 21.7692C29.2879 19.9231 28.3129 19.1923 27.1879 19.1923C26.9629 19.1923 26.0629 19.2308 25.5379 20.1154H25.5004V19.2692H24.3754V26.2692H25.7254V26.3077ZM19.2754 19.2692V20.2308H20.8504V24.2308H22.1629V20.2308H23.7379V19.2692H19.2754ZM18.8629 19.3461C18.4879 19.2308 18.0754 19.2308 17.7754 19.2308C16.0129 19.2308 15.0754 20.4231 15.0754 21.7308C15.0754 23.0384 15.9004 24.3461 17.7004 24.3461C18.2629 24.3461 18.7129 24.2308 18.9754 24.1538L18.9004 23.1923C18.5629 23.3461 18.1879 23.3846 17.9254 23.3846C17.0254 23.3846 16.4629 22.6923 16.4629 21.8077C16.4629 20.8077 17.1379 20.1538 18.0004 20.1538C18.3004 20.1538 18.5629 20.1923 18.8254 20.2692L18.8629 19.3461ZM12.8254 22V22.1154C12.8254 23.1923 12.1879 23.4615 11.6254 23.4615C11.0254 23.4615 10.8379 23.1923 10.8379 22.8077C10.8379 22 11.8879 22 12.6004 22H12.8254ZM10.0879 20.5769C10.7629 20.1923 11.2504 20.1538 11.7004 20.1538C12.3004 20.1538 12.8254 20.4615 12.8254 21V21.1923H12.7129C12.4879 21.1923 12.2254 21.1923 12.0004 21.1923C9.90039 21.1923 9.52539 22.1538 9.52539 22.8461C9.52539 23.6154 10.0504 24.3846 11.2879 24.3846C12.3754 24.3846 12.7504 23.7692 12.8629 23.5769V24.2308H14.1379V21.0769C14.1379 20.3461 13.9504 19.1923 11.9254 19.1923C11.2504 19.1923 10.6879 19.2692 10.0879 19.5V20.5769ZM5.81289 22.1154H6.48789C7.16289 22.1154 7.42539 22.3461 7.42539 22.7308C7.42539 23.1538 7.01289 23.3846 6.48789 23.3846C6.15039 23.3846 5.47539 23.3077 4.76289 23L4.65039 23.9231C5.43789 24.2692 6.15039 24.3461 6.52539 24.3461C7.95039 24.3461 8.77539 23.6923 8.77539 22.8077C8.77539 21.9615 8.10039 21.7308 7.68789 21.6538V21.6154C7.95039 21.5769 8.55039 21.3077 8.55039 20.5C8.55039 19.8846 8.13789 19.1923 6.60039 19.1923C5.92539 19.1923 5.51289 19.3077 4.91289 19.5L4.95039 20.4615C5.51289 20.1923 6.15039 20.1154 6.37539 20.1154C6.97539 20.1154 7.20039 20.3846 7.20039 20.6538C7.20039 20.8461 7.08789 21.1538 6.48789 21.1538H5.81289V22.1154ZM35.0629 12.6538H35.8504C36.6004 12.6538 36.7879 13.0769 36.7879 13.3846C36.7879 13.7692 36.4879 14.1154 35.8504 14.1154H35.0629V12.6538ZM33.7504 10.0384V15.0384H36.1879C37.5754 15.0384 38.1754 14.3077 38.1754 13.4231C38.1754 12.8461 37.8754 11.8077 36.0754 11.8077H35.0629V10.0384H33.7504ZM38.9254 15H40.2379V9.99999H38.9254V15ZM28.9129 14.0384C29.4379 13.3077 29.4379 12.5 29.4379 11.7308V11H30.9004V14.0384H28.9129ZM28.2754 10.0384V11.6538C28.2754 12.6154 28.2004 13.3846 27.6379 14.0384H27.0754V16.3077H28.2754V15H31.8004V16.3077H33.0004V14.0384H32.1754V10.0384H28.2754ZM25.0504 12.7308V12.8461C25.0504 13.9231 24.3754 14.1538 23.8504 14.1538C23.2879 14.1538 23.0629 13.8846 23.0629 13.5384C23.0629 12.7308 24.1129 12.7308 24.8254 12.7308H25.0504ZM22.3129 11.3077C22.9879 10.9231 23.4754 10.8461 23.9254 10.8461C24.5254 10.8461 25.0504 11.1538 25.0504 11.6923V11.9231H24.9379C24.6754 11.9231 24.4504 11.9231 24.1879 11.9231C22.0879 11.9231 21.7129 12.8846 21.7129 13.5769C21.7129 14.3461 22.2004 15.1154 23.4754 15.1154C24.5629 15.1154 24.9379 14.5384 25.0504 14.3077V15H26.3254V11.8461C26.3254 11.0769 26.1379 9.92306 24.1504 9.92306C23.4754 9.92306 22.9129 9.99999 22.3129 10.2692V11.3077ZM16.7629 10.0384V12.1154C16.7629 13.1923 16.8754 14.0384 16.0879 14.0384C16.0129 14.0384 15.9379 14.0384 15.8629 14L15.8254 15C16.0129 15.0384 16.1629 15.0769 16.3879 15.0769C17.7379 15.0769 17.9629 14.5769 17.9629 12.0769V10.9615H19.5004V15H20.8129V9.99999H16.7629V10.0384ZM11.0629 10.0384V15.0384H12.3754V12.6538H12.4504L14.1379 15.0384H15.7879L13.6879 12.4231L15.5254 10.0769H14.0629L12.4504 12.3461H12.3754V10.0769H11.0629V10.0384ZM6.45039 12.0769H7.20039C8.13789 12.0769 8.40039 12.5384 8.40039 13.0384C8.40039 13.5 8.06289 13.9615 7.20039 13.9615H6.45039V12.0769ZM6.45039 9.34614H7.05039C8.10039 9.34614 8.13789 9.99999 8.13789 10.1923C8.13789 10.5 7.95039 11.0384 7.08789 11.0384H6.41289V9.34614H6.45039ZM5.06289 8.30768V15H7.20039C9.33789 15 9.86289 13.9231 9.86289 13.1154C9.86289 12.2692 9.30039 11.6538 8.43789 11.5C8.92539 11.3846 9.52539 10.9615 9.52539 9.96152C9.52539 8.80768 8.58789 8.30768 7.31289 8.30768H5.06289Z" fill="white"/>
<mask id="mask0_7028_388" style="mask-type:luminance" maskUnits="userSpaceOnUse" x="6" y="62" width="13" height="9">
<path d="M6.1875 65.0385L9.225 62.1154L15.2625 68.3077C16.2375 69.3077 17.025 70.0769 18.1875 70.2692H13.9125C11.85 70.2692 10.425 69.3846 8.925 67.8462L6.1875 65.0385" fill="white"/>
</mask>
<g mask="url(#mask0_7028_388)">
<path d="M6.1875 65.0385L9.225 62.1154L15.2625 68.3077C16.2375 69.3077 17.025 70.0769 18.1875 70.2692H13.9125C11.85 70.2692 10.425 69.3846 8.925 67.8462L6.1875 65.0385Z" fill="url(#paint0_linear_7028_388)"/>
</g>
<mask id="mask1_7028_388" style="mask-type:luminance" maskUnits="userSpaceOnUse" x="11" y="61" width="15" height="9">
<path d="M25.8748 65.0385L22.8373 61.9615L18.5998 66.3846C18.0748 66.9615 17.5123 66.7692 17.0623 66.3462L12.8248 62.1154L11.9248 63.0385L17.4373 68.5769C18.8623 70.0385 20.9248 70.1154 22.3498 68.6539L25.8748 65.0385" fill="white"/>
</mask>
<g mask="url(#mask1_7028_388)">
<path d="M25.8748 65.0385L22.8373 61.9615L18.5998 66.3846C18.0748 66.9615 17.5123 66.7692 17.0623 66.3462L12.8248 62.1154L11.9248 63.0385L17.4373 68.5769C18.8623 70.0385 20.9248 70.1154 22.3498 68.6539L25.8748 65.0385Z" fill="url(#paint1_linear_7028_388)"/>
</g>
<mask id="mask2_7028_388" style="mask-type:luminance" maskUnits="userSpaceOnUse" x="13" y="52" width="13" height="9">
<path d="M25.875 57.8846L22.8375 60.8077L16.8 54.6154C15.825 53.6154 15.0375 52.8077 13.875 52.6538L18.1875 52.6154C20.2125 52.6154 21.6375 53.5 23.1375 55.0385L25.875 57.8846" fill="white"/>
</mask>
<g mask="url(#mask2_7028_388)">
<path d="M25.875 57.8846L22.8375 60.8077L16.8 54.6154C15.825 53.6154 15.0375 52.8077 13.875 52.6538L18.1875 52.6154C20.2125 52.6154 21.6375 53.5 23.1375 55.0385L25.875 57.8846Z" fill="url(#paint2_linear_7028_388)"/>
</g>
<mask id="mask3_7028_388" style="mask-type:luminance" maskUnits="userSpaceOnUse" x="6" y="53" width="15" height="8">
<path d="M6.1875 57.8846L9.225 60.9615L13.4625 56.5385C14.025 56 14.55 56.1539 15 56.5769L19.2375 60.8077L20.1375 59.8846L14.625 54.3462C13.2 52.8846 11.1375 52.7692 9.7125 54.2692L6.1875 57.8846" fill="white"/>
</mask>
<g mask="url(#mask3_7028_388)">
<path d="M6.1875 57.8846L9.225 60.9615L13.4625 56.5385C14.025 56 14.55 56.1539 15 56.5769L19.2375 60.8077L20.1375 59.8846L14.625 54.3462C13.2 52.8846 11.1375 52.7692 9.7125 54.2692L6.1875 57.8846Z" fill="url(#paint3_linear_7028_388)"/>
</g>
<path fill-rule="evenodd" clip-rule="evenodd" d="M53.3996 69H53.8871C54.0746 69 54.4121 69.0385 54.4121 69.3846C54.4121 69.7692 54.0371 69.7692 53.9246 69.7692H53.4371V69H53.3996ZM53.3996 67.8462H53.8871C54.0371 67.8462 54.3371 67.8846 54.3371 68.1539C54.3371 68.4616 54.0371 68.4616 53.8871 68.4616H53.3996V67.8462ZM52.6496 67.3462V70.2692H54.1121C54.7871 70.2692 55.1996 70 55.1996 69.4616C55.1996 69 54.8621 68.7692 54.5246 68.7692V68.7308C54.8246 68.6539 55.0871 68.4616 55.0871 68.0769C55.0871 67.7692 54.8996 67.3846 54.0746 67.3846H52.6496V67.3462ZM49.8746 68.8077C49.8746 68.1539 50.2496 67.8462 50.5871 67.8462C50.9246 67.8462 51.2996 68.1154 51.2996 68.8077C51.2996 69.5 50.9246 69.7692 50.5871 69.7692C50.2121 69.7692 49.8746 69.5 49.8746 68.8077ZM49.0496 68.8077C49.0496 69.8077 49.6871 70.3077 50.5496 70.3077C51.4121 70.3077 52.0496 69.8077 52.0496 68.8077C52.0496 67.8462 51.4121 67.3077 50.5496 67.3077C49.7246 67.3077 49.0496 67.8462 49.0496 68.8077ZM46.3871 69.6923C46.7246 69.2692 46.6871 68.8077 46.6871 68.3462V67.9231H47.5496V69.7308H46.3871V69.6923ZM46.0496 67.3462V68.2692C46.0496 68.8462 46.0121 69.2692 45.6746 69.6923H45.3371V71.0385H46.0496V70.2692H48.1121V71.0385H48.8246V69.6923H48.3371V67.3462H46.0496ZM44.1371 68.9231V69C44.1371 69.6154 43.7621 69.7692 43.4246 69.7692C43.0871 69.7692 42.9746 69.6154 42.9746 69.3846C42.9746 68.9231 43.5746 68.9231 43.9871 68.9231H44.1371ZM42.5246 68.1154C42.9371 67.9231 43.1996 67.8462 43.4621 67.8462C43.8371 67.8462 44.1371 68.0385 44.1371 68.3462V68.4616H44.0621C43.9121 68.4616 43.7621 68.4616 43.6496 68.4616C42.4121 68.4616 42.1871 69.0385 42.1871 69.4231C42.1871 69.8846 42.4871 70.3077 43.1996 70.3077C43.8371 70.3077 44.0621 69.9616 44.0996 69.8462V70.2692H44.8496V68.4231C44.8496 68 44.7371 67.3077 43.5371 67.3077C43.1621 67.3077 42.8246 67.3462 42.4871 67.5V68.1154H42.5246ZM39.2996 67.3462V68.5385C39.2996 69.1539 39.3371 69.6923 38.9246 69.6923C38.8496 69.6923 38.8121 69.6923 38.7746 69.6539L38.7371 70.2308C38.8496 70.2692 38.9246 70.2692 39.0746 70.2692C39.8246 70.2692 39.9746 69.9616 39.9746 68.5385V67.8846H40.8746V70.2308H41.6246V67.3077H39.2996V67.3462ZM35.9621 67.3462V70.2692H36.7121V68.8846H36.7496L37.7246 70.2692H38.6996L37.4621 68.7308L38.5496 67.3462H37.6871L36.7496 68.6539H36.7121V67.3462H35.9621ZM33.3371 68.5385H33.7871C34.3496 68.5385 34.4996 68.8077 34.4996 69.0769C34.4996 69.3462 34.2746 69.6154 33.7871 69.6154H33.3371V68.5385ZM33.3371 66.9616H33.7121C34.3121 66.9616 34.3496 67.3462 34.3496 67.4616C34.3496 67.6539 34.2371 67.9616 33.7496 67.9616H33.3371V66.9616ZM32.5496 66.3462V70.2692H33.8246C35.0621 70.2692 35.3621 69.6539 35.3621 69.1539C35.3621 68.6539 35.0246 68.2692 34.5371 68.1923C34.8371 68.0769 35.1746 67.8846 35.1746 67.2692C35.1746 66.6154 34.6496 66.3077 33.8621 66.3077H32.5496V66.3462ZM67.2746 61.0769V61.8846H66.7496C66.4871 61.8846 66.2996 61.7308 66.2996 61.4616C66.2996 61.2692 66.4496 61.0769 66.7496 61.0769H67.2746ZM68.0621 60.5769H66.5621C66.0746 60.5769 65.5496 60.8462 65.5496 61.4616C65.5496 61.8077 65.7371 62.1923 66.2246 62.3077L65.5121 63.5H66.4121L67.0121 62.4231H67.3496V63.5H68.0996V60.5769H68.0621ZM62.0246 60.5769V63.5H62.8496L64.1621 61.4616H64.1996L64.1621 62V63.5H64.9121V60.5769H64.0496L62.7746 62.6154L62.8121 62.1154V60.5769H62.0246ZM58.5371 60.5769V63.5H59.2871V62.2692H60.5246V63.5H61.2746V60.5769H60.5246V61.6923H59.2871V60.5769H58.5371ZM57.0371 62.1539V62.2308C57.0371 62.8462 56.6621 63 56.3246 63C55.9871 63 55.8746 62.8462 55.8746 62.6154C55.8746 62.1539 56.4746 62.1539 56.8871 62.1539H57.0371ZM55.4246 61.3077C55.8371 61.1154 56.0996 61.0769 56.3621 61.0769C56.7371 61.0769 57.0371 61.2308 57.0371 61.5769V61.6923H56.9996C56.8496 61.6923 56.6996 61.6923 56.5496 61.6923C55.3121 61.6923 55.0871 62.2692 55.0871 62.6539C55.0871 63.1154 55.3871 63.5385 56.0996 63.5385C56.7371 63.5385 56.9621 63.1923 56.9996 63.0769H57.0371V63.5H57.7871V61.6923C57.7871 61.2692 57.6746 60.5769 56.5121 60.5769C56.0996 60.5769 55.7996 60.6154 55.4246 60.7692V61.3077ZM52.8371 62.2308H53.3246C53.5121 62.2308 53.8496 62.2692 53.8496 62.6154C53.8496 63 53.4746 63 53.3621 63H52.8746V62.2308H52.8371ZM52.8371 61.0769H53.3246C53.4746 61.0769 53.7746 61.1154 53.7746 61.3846C53.7746 61.6923 53.4746 61.6923 53.3246 61.6923H52.8371V61.0769ZM52.0871 60.5769V63.5H53.5496C54.2246 63.5 54.6371 63.2308 54.6371 62.6923C54.6371 62.1923 54.2996 62 53.9621 61.9616C54.2621 61.9231 54.4871 61.6923 54.4871 61.3077C54.4871 61 54.3371 60.5769 53.5121 60.5769H52.0871ZM49.3121 62.0385C49.3121 61.3462 49.6871 61.0769 50.0246 61.0769C50.3621 61.0769 50.7371 61.3462 50.7371 62.0385C50.7371 62.6923 50.3621 63 50.0246 63C49.6496 63 49.3121 62.6923 49.3121 62.0385ZM48.4871 62.0385C48.4871 63 49.1246 63.5385 49.9871 63.5385C50.8496 63.5385 51.4871 63 51.4871 62.0385C51.4871 61.0769 50.8496 60.5385 49.9871 60.5385C49.1246 60.5385 48.4871 61.0769 48.4871 62.0385ZM45.2246 60.5769L46.1246 62L45.1496 63.5H46.0121L46.4621 62.7308L46.6496 62.3846L46.8371 62.7308L47.3246 63.5H48.2246L47.2496 62L48.1496 60.5769H47.3246L46.9121 61.2308L46.7246 61.5769H46.6871L46.5371 61.2692L46.1246 60.5769H45.2246ZM43.9496 62.1539V62.2308C43.9496 62.8462 43.5746 63 43.2746 63C42.9371 63 42.7871 62.8462 42.7871 62.6154C42.7871 62.1539 43.3871 62.1539 43.8371 62.1539H43.9496ZM42.3746 61.3077C42.7496 61.1154 43.0496 61.0769 43.3121 61.0769C43.6496 61.0769 43.9496 61.2308 43.9496 61.5769V61.6923H43.8746C43.7246 61.6923 43.5746 61.6923 43.4246 61.6923C42.1871 61.6923 41.9621 62.2692 41.9621 62.6539C41.9621 63.1154 42.2621 63.5385 43.0121 63.5385C43.6496 63.5385 43.8371 63.1923 43.9121 63.0769V63.5H44.6621V61.6923C44.6621 61.2692 44.5496 60.5769 43.3496 60.5769C42.9371 60.5769 42.6371 60.6154 42.2996 60.7692V61.3077H42.3746ZM39.5246 62.0385C39.5246 61.4231 39.8621 61.1539 40.1996 61.1539C40.4996 61.1539 40.8371 61.4231 40.8371 62.0385C40.8371 62.6539 40.4996 62.9231 40.1996 62.9231C39.8621 62.9231 39.5246 62.6539 39.5246 62.0385ZM39.5246 64.6923V63.0769C39.6746 63.3077 39.9371 63.5 40.3496 63.5C40.9871 63.5 41.6246 63.0769 41.6246 62C41.6246 60.9231 41.0621 60.5 40.3871 60.5C40.2746 60.5 39.7496 60.5385 39.4496 61.0385V60.5385H38.8121V64.6539H39.5246V64.6923ZM35.7746 60.5769V61.1539H36.6746V63.5H37.4246V61.1539H38.3246V60.5769H35.7746ZM35.4371 62.6923C35.2496 62.7692 34.9871 62.8462 34.6121 62.8462C33.8996 62.8462 33.2621 62.4616 33.2621 61.5C33.2621 60.6923 33.7871 60.1539 34.6871 60.1539C34.9871 60.1539 35.2496 60.1923 35.4746 60.3077L35.5121 59.6154C35.2121 59.5385 34.9496 59.5 34.6496 59.5C33.4121 59.5 32.4746 60.1923 32.4746 61.5385C32.4746 62.9616 33.5246 63.5385 34.5371 63.5385C34.8371 63.5385 35.2121 63.5 35.5496 63.3846L35.4371 62.6923ZM54.4121 55.3846V55.4616C54.4121 56.0769 54.0371 56.2308 53.6996 56.2308C53.3621 56.2308 53.2496 56.0769 53.2496 55.8462C53.2496 55.3846 53.8496 55.3846 54.2621 55.3846H54.4121ZM52.7996 54.5385C53.2121 54.3077 53.4746 54.2692 53.7371 54.2692C54.1121 54.2692 54.4121 54.4616 54.4121 54.7692V54.8846H54.3371C54.1871 54.8846 54.0371 54.8846 53.9246 54.8846C52.6871 54.8846 52.4621 55.4231 52.4621 55.8462C52.4621 56.3077 52.7621 56.7308 53.4746 56.7308C54.1121 56.7308 54.3371 56.3846 54.3746 56.2692H54.4121V56.6923H55.1621V54.8462C55.1621 54.4231 55.0496 53.7308 53.8496 53.7308C53.4746 53.7308 53.1371 53.7692 52.7996 53.9231V54.5385ZM50.3621 56.7308L50.9621 55L51.1121 54.5385H51.1496L51.1121 55.0769V56.7308H51.8621V53.8077H50.8121L50.2121 55.4616L50.0621 55.9616H50.0246L49.8371 55.4616L49.2371 53.8077H48.1871V56.7308H48.9371V55.0769V54.5385L49.0871 55L49.6496 56.7308H50.3621ZM45.5996 54.9616C45.6371 54.5769 45.8621 54.2692 46.1996 54.2692C46.4996 54.2692 46.7996 54.4616 46.7996 54.9616H45.5996ZM47.5871 55.4616V55.3077C47.5871 55.0769 47.5496 53.7308 46.2371 53.7308C45.4496 53.7308 44.7746 54.3077 44.7746 55.2308C44.7746 56.2692 45.4871 56.7308 46.3496 56.7308C46.6871 56.7308 47.0621 56.6923 47.3621 56.5769V56C47.0996 56.1154 46.7996 56.1923 46.4621 56.1923C45.8996 56.1923 45.6371 55.8462 45.5996 55.4616H47.5871ZM41.9621 53.8077V54.3462H42.8621V56.6923H43.6121V54.3462H44.5121V53.8077H41.9621ZM41.6996 53.8077C41.4746 53.7308 41.2496 53.7308 41.0621 53.7308C40.0496 53.7308 39.4871 54.4231 39.4871 55.2308C39.4871 56 39.9746 56.7692 41.0246 56.7692C41.3621 56.7692 41.6246 56.7308 41.7746 56.6539L41.7371 56.1154C41.5496 56.1923 41.3246 56.2308 41.1371 56.2308C40.6121 56.2308 40.2746 55.8462 40.2746 55.3077C40.2746 54.7308 40.6871 54.3462 41.1746 54.3462C41.3621 54.3462 41.5121 54.3462 41.6621 54.4231L41.6996 53.8077ZM36.0746 53.8077V56.7308H36.8996L38.2121 54.6923H38.2496L38.2121 55.2308V56.7308H38.9621V53.8077H38.0996L36.8246 55.8462H36.7871L36.8246 55.3077V53.7692H36.0746V53.8077ZM35.4371 55.9231C35.2496 56 34.9871 56.0769 34.6121 56.0769C33.8996 56.0769 33.2621 55.6923 33.2621 54.7308C33.2621 53.9231 33.7871 53.3462 34.6871 53.3462C34.9871 53.3462 35.2496 53.3846 35.4746 53.5L35.5121 52.8077C35.2121 52.6923 34.9496 52.6923 34.6496 52.6923C33.4121 52.6923 32.4746 53.3846 32.4746 54.7308C32.4746 56.1923 33.5246 56.7308 34.5371 56.7308C34.8371 56.7308 35.2121 56.6923 35.5496 56.5769L35.4371 55.9231Z" fill="#005AA2"/>
</g>
<defs>
<linearGradient id="paint0_linear_7028_388" x1="1.72667e-07" y1="4.51539" x2="1.72667e-07" y2="4.11924" gradientUnits="userSpaceOnUse">
<stop stop-color="#005AA2"/>
<stop offset="1" stop-color="#005AA2"/>
</linearGradient>
<linearGradient id="paint1_linear_7028_388" x1="-0.000195411" y1="3.04233" x2="-0.000195411" y2="2.64618" gradientUnits="userSpaceOnUse">
<stop stop-color="#25A840"/>
<stop offset="1" stop-color="white"/>
</linearGradient>
<linearGradient id="paint2_linear_7028_388" x1="-5.11408e-07" y1="-4.48462" x2="-5.11408e-07" y2="-4.88462" gradientUnits="userSpaceOnUse">
<stop stop-color="#005AA2"/>
<stop offset="1" stop-color="#005AA2"/>
</linearGradient>
<linearGradient id="paint3_linear_7028_388" x1="-1.12634e-07" y1="-3.01921" x2="-1.12634e-07" y2="-3.41537" gradientUnits="userSpaceOnUse">
<stop stop-color="#25A840"/>
<stop offset="1" stop-color="white"/>
</linearGradient>
<clipPath id="clip0_7028_388">
<rect width="75" height="75" fill="white"/>
</clipPath>
</defs>
</svg>
