<svg width="75" height="75" viewBox="0 0 75 75" fill="none" xmlns="http://www.w3.org/2000/svg">
<rect width="75" height="75" rx="15" fill="white"/>
<path d="M5.8114 29.4385H11.9989C12.5614 29.4385 14.2489 29.251 14.9989 31.876C15.5614 33.5635 16.3114 36.1885 17.4364 40.126H17.8114C18.9364 36.001 19.8739 33.1885 20.2489 31.876C20.9989 29.251 22.8739 29.4385 23.6239 29.4385H29.4364V47.4385H23.4364V36.751H23.0614L19.8739 47.4385H15.3739L12.1864 36.751H11.6239V47.4385H5.8114M31.8739 29.4385H37.8739V40.126H38.4364L42.3739 31.3135C43.1239 29.626 44.8114 29.4385 44.8114 29.4385H50.4364V47.4385H44.4364V36.751H44.0614L40.1239 45.5635C39.3739 47.251 37.4989 47.4385 37.4989 47.4385H31.8739M58.4989 42.001V47.4385H52.8739V38.0635H71.2489C70.4989 40.3135 67.8739 42.001 64.8739 42.001" fill="#0F754E"/>
<path d="M71.625 36.9375C72.375 33.5625 70.125 29.4375 65.25 29.4375H52.5C52.875 33.375 56.25 36.9375 59.8125 36.9375" fill="url(#paint0_linear_797_650)"/>
<defs>
<linearGradient id="paint0_linear_797_650" x1="69.375" y1="27" x2="54.375" y2="27" gradientUnits="userSpaceOnUse">
<stop stop-color="#1F5CD7"/>
<stop offset="1" stop-color="#02AEFF"/>
</linearGradient>
</defs>
</svg>
