<svg width="16" height="38" viewBox="0 0 16 38" fill="none" xmlns="http://www.w3.org/2000/svg">
<path d="M8.0809 19C7.96343 19.0004 7.84757 18.9724 7.74302 18.9183L4.35386 17.1475C3.39198 16.644 2.63999 16.0796 2.0527 15.4222C0.771432 13.9973 0.0547904 12.1461 0.0395292 10.2218L0 3.91754C0.000789672 3.55869 0.112596 3.20906 0.319803 2.91747C0.52701 2.62588 0.819269 2.4069 1.15576 2.29111L7.37973 0.101322C7.74867 -0.0316806 8.1609 -0.0335806 8.53737 0.0946716L14.7839 2.21036C15.1219 2.32133 15.4171 2.53624 15.6281 2.825C15.839 3.11375 15.9552 3.46189 15.9604 3.82064L15.9999 10.1287C16.0086 12.0511 15.3165 13.9095 14.0555 15.35C13.4748 16.0169 12.7284 16.5898 11.7769 17.1028L8.4169 18.9135C8.31356 18.9696 8.19821 18.9993 8.0809 19Z" fill="#31509A"/>
<path d="M7.35949 11.7039C7.17199 11.7064 6.99097 11.6348 6.85502 11.5044L5.05079 9.7526C4.98461 9.689 4.93182 9.61257 4.89558 9.5279C4.85933 9.44323 4.84038 9.35204 4.83986 9.25981C4.83933 9.16757 4.85724 9.07617 4.89251 8.99108C4.92778 8.90599 4.9797 8.82896 5.04515 8.76459C5.17932 8.63249 5.35898 8.558 5.5464 8.55676C5.73383 8.55552 5.91444 8.62762 6.05032 8.75794L7.34913 10.0177L10.5181 6.8636C10.6522 6.73151 10.8319 6.65702 11.0193 6.65578C11.2067 6.65454 11.3874 6.72664 11.5232 6.85695C11.8028 7.12866 11.8056 7.57137 11.5298 7.84497L7.85925 11.4968C7.7258 11.6297 7.54601 11.7044 7.35854 11.7049" fill="white"/>
<path d="M8.0809 38C7.96343 38.0004 7.84757 37.9724 7.74302 37.9183L4.35386 36.1475C3.39198 35.644 2.63999 35.0796 2.0527 34.4222C0.771432 32.9973 0.0547904 31.1461 0.0395292 29.2218L0 22.9175C0.000789672 22.5587 0.112596 22.2091 0.319803 21.9175C0.52701 21.6259 0.819269 21.4069 1.15576 21.2911L7.37973 19.1013C7.74867 18.9683 8.1609 18.9664 8.53737 19.0947L14.7839 21.2104C15.1219 21.3213 15.4171 21.5362 15.6281 21.825C15.839 22.1138 15.9552 22.4619 15.9604 22.8206L15.9999 29.1287C16.0086 31.0511 15.3165 32.9095 14.0555 34.35C13.4748 35.0169 12.7284 35.5898 11.7769 36.1028L8.4169 37.9135C8.31356 37.9696 8.19821 37.9993 8.0809 38Z" fill="white"/>
<path d="M7.35949 30.7039C7.17199 30.7064 6.99097 30.6348 6.85502 30.5044L5.05079 28.7526C4.98461 28.689 4.93182 28.6126 4.89558 28.5279C4.85933 28.4432 4.84038 28.352 4.83986 28.2598C4.83933 28.1676 4.85724 28.0762 4.89251 27.9911C4.92778 27.906 4.9797 27.829 5.04515 27.7646C5.17932 27.6325 5.35898 27.558 5.5464 27.5568C5.73383 27.5555 5.91444 27.6276 6.05032 27.7579L7.34913 29.0177L10.5181 25.8636C10.6522 25.7315 10.8319 25.657 11.0193 25.6558C11.2067 25.6545 11.3874 25.7266 11.5232 25.857C11.8028 26.1287 11.8056 26.5714 11.5298 26.845L7.85925 30.4968C7.7258 30.6297 7.54601 30.7044 7.35854 30.7049" fill="#31509A"/>
</svg>
