<svg width="24" height="24" viewBox="0 0 24 24" fill="none" xmlns="http://www.w3.org/2000/svg">
<path fill-rule="evenodd" clip-rule="evenodd" d="M17.932 3.67599H6.066C3.335 3.67599 1.5 5.59499 1.5 8.44999V15.552C1.5 18.408 3.335 20.326 6.066 20.326H17.931C20.664 20.326 22.5 18.408 22.5 15.552V8.44999C22.5 5.59399 20.664 3.67499 17.932 3.67499V3.67599Z" fill="url(#paint0_linear_1211_3559)"/>
<path fill-rule="evenodd" clip-rule="evenodd" d="M17.1292 10.305H19.0302C19.2291 10.305 19.4199 10.226 19.5605 10.0853C19.7012 9.94467 19.7802 9.75391 19.7802 9.55499C19.7802 9.35608 19.7012 9.16531 19.5605 9.02466C19.4199 8.88401 19.2291 8.80499 19.0302 8.80499H16.3792C16.1803 8.80499 15.9895 8.88401 15.8489 9.02466C15.7082 9.16531 15.6292 9.35608 15.6292 9.55499V14.45C15.6292 14.6489 15.7082 14.8397 15.8489 14.9803C15.9895 15.121 16.1803 15.2 16.3792 15.2C16.5781 15.2 16.7689 15.121 16.9095 14.9803C17.0502 14.8397 17.1292 14.6489 17.1292 14.45V13.159H18.6222C18.8211 13.159 19.0119 13.08 19.1525 12.9393C19.2932 12.7987 19.3722 12.6079 19.3722 12.409C19.3722 12.2101 19.2932 12.0193 19.1525 11.8787C19.0119 11.738 18.8211 11.659 18.6222 11.659H17.1292V10.305ZM11.6532 15.2C12.4952 15.2 13.3192 14.858 13.9122 14.264C14.2106 13.9679 14.4471 13.6154 14.6079 13.2271C14.7688 12.8388 14.8508 12.4223 14.8492 12.002C14.8492 11.147 14.5162 10.344 13.9142 9.74199C13.3134 9.14397 12.5009 8.80724 11.6532 8.80499H10.4292C10.2303 8.80499 10.0395 8.88401 9.89889 9.02466C9.75823 9.16531 9.67921 9.35608 9.67921 9.55499V14.45C9.67921 14.864 10.0152 15.2 10.4292 15.2H11.6532ZM5.72021 13.58H6.44921C7.08143 13.5792 7.68756 13.3278 8.13479 12.881C8.58202 12.4341 8.83389 11.8282 8.83522 11.196C8.83442 10.5633 8.58282 9.95681 8.13556 9.50936C7.68829 9.06191 7.08187 8.81005 6.44921 8.80899H4.97021C4.7713 8.80899 4.58054 8.88801 4.43989 9.02866C4.29923 9.16931 4.22021 9.36008 4.22021 9.55899V14.443C4.22021 14.6419 4.29923 14.8327 4.43989 14.9733C4.58054 15.114 4.7713 15.193 4.97021 15.193C5.16913 15.193 5.35989 15.114 5.50055 14.9733C5.6412 14.8327 5.72021 14.6419 5.72021 14.443V13.581V13.58ZM11.1792 10.305H11.6532C12.1002 10.305 12.5372 10.485 12.8532 10.803C13.1732 11.122 13.3492 11.548 13.3492 12.002C13.3487 12.4518 13.1699 12.8831 12.852 13.2014C12.5341 13.5196 12.103 13.6989 11.6532 13.7H11.1792V10.305ZM5.72021 10.309H6.44921C6.67692 10.3198 6.89171 10.4179 7.04903 10.5829C7.20634 10.7478 7.29411 10.967 7.29411 11.195C7.29411 11.4229 7.20634 11.6422 7.04903 11.8071C6.89171 11.9721 6.67692 12.0702 6.44921 12.081H5.72021V10.309Z" fill="white"/>
<defs>
<linearGradient id="paint0_linear_1211_3559" x1="1.5" y1="20.326" x2="22.5" y2="20.326" gradientUnits="userSpaceOnUse">
<stop stop-color="#0D296D"/>
<stop offset="0.809607" stop-color="#0637AE"/>
<stop offset="1" stop-color="#0D166D"/>
</linearGradient>
</defs>
</svg>
